<svg id="Ebene_1" data-name="Ebene 1" xmlns="http://www.w3.org/2000/svg" xmlns:xlink="http://www.w3.org/1999/xlink" viewBox="0 0 561.22 744.38"><defs><style>.cls-1,.cls-27,.cls-3,.cls-4{fill:none;}.cls-2{clip-path:url(#clip-path);}.cls-3,.cls-4{stroke:#000;}.cls-27,.cls-3,.cls-4{stroke-linecap:round;stroke-linejoin:round;}.cls-3{stroke-width:0.06px;}.cls-4{stroke-width:0.72px;}.cls-5{fill:#dfdfdf;}.cls-28,.cls-5,.cls-6{fill-rule:evenodd;}.cls-6{fill:#f8e2c1;}.cls-29,.cls-7{font-size:7.2px;}.cls-7{font-family:ArialMT, Arial;}.cls-29,.cls-8{letter-spacing:0em;}.cls-9{letter-spacing:0em;}.cls-10{letter-spacing:0em;}.cls-11{letter-spacing:0em;}.cls-12{letter-spacing:0em;}.cls-13{letter-spacing:0em;}.cls-14,.cls-23{font-size:15.12px;font-family:ArialNarrow, Arial;}.cls-15,.cls-23{letter-spacing:-0.02em;}.cls-16{letter-spacing:0.02em;}.cls-17{letter-spacing:0.01em;}.cls-18{letter-spacing:0.02em;}.cls-19{letter-spacing:0.01em;}.cls-20{letter-spacing:0.01em;}.cls-21{letter-spacing:0.02em;}.cls-22{letter-spacing:0.01em;}.cls-24{letter-spacing:0.02em;}.cls-25{letter-spacing:0.01em;}.cls-26{letter-spacing:0em;}.cls-27{stroke:silver;stroke-width:1.44px;}.cls-28{fill:#fcf2e3;}.cls-29{font-family:Arial-BoldMT, Arial;font-weight:700;}.cls-30{letter-spacing:0em;}.cls-31{fill:#fff;}.cls-32{letter-spacing:-0.02em;}.cls-33{letter-spacing:-0.01em;}.cls-34{letter-spacing:0em;}.cls-35{letter-spacing:0em;}.cls-36{letter-spacing:0em;}.cls-37{letter-spacing:-0.01em;}.cls-38{letter-spacing:-0.03em;}</style><clipPath id="clip-path"><rect class="cls-1" x="-34" y="-15.31" width="595.02" height="841.66"/></clipPath></defs><g class="cls-2"><rect class="cls-3" x="-34" y="-15.33" width="595.38" height="841.62"/></g><polyline class="cls-4" points="31.52 310.11 31.52 724.83 539.12 724.83 539.12 310.11 31.52 310.11"/><polyline class="cls-4" points="31.52 77.55 31.52 304.35 539.12 304.35 539.12 77.55 31.52 77.55"/><path class="cls-5" d="M84,25.65a3.57,3.57,0,1,0-3.54,3.54A3.6,3.6,0,0,0,84,25.65"/><path class="cls-6" d="M82.58,24.21A3.56,3.56,0,0,0,79,20.67a3.51,3.51,0,0,0-3.54,3.54A3.56,3.56,0,0,0,79,27.81,3.61,3.61,0,0,0,82.58,24.21Z"/><path class="cls-4" d="M82.58,24.21A3.56,3.56,0,0,0,79,20.67a3.51,3.51,0,0,0-3.54,3.54A3.56,3.56,0,0,0,79,27.81,3.61,3.61,0,0,0,82.58,24.21Z"/><line class="cls-4" x1="79.04" y1="27.87" x2="79.04" y2="35.07"/><line class="cls-4" x1="75.44" y1="31.47" x2="82.64" y2="31.47"/><line class="cls-4" x1="75.44" y1="42.27" x2="79.04" y2="35.07"/><line class="cls-4" x1="82.64" y1="42.27" x2="79.04" y2="35.07"/><text class="cls-7" transform="translate(51.68 52.29)"><tspan class="cls-8">m</tspan><tspan x="6" y="0">anage</tspan><tspan class="cls-8" x="26.03" y="0">r</tspan><tspan class="cls-9" x="28.43" y="0"> </tspan><tspan class="cls-8" x="30.42" y="0">(</tspan><tspan x="32.82" y="0">Lu</tspan><tspan class="cls-10" x="40.83" y="0">k</tspan><tspan x="44.44" y="0">a</tspan><tspan class="cls-8" x="48.44" y="0">s</tspan><tspan x="52.05" y="0">)</tspan></text><line class="cls-4" x1="79.04" y1="55.23" x2="79.04" y2="60.27"/><line class="cls-4" x1="79.04" y1="63.15" x2="79.04" y2="68.19"/><line class="cls-4" x1="79.04" y1="71.07" x2="79.04" y2="76.11"/><line class="cls-4" x1="79.04" y1="78.99" x2="79.04" y2="84.03"/><line class="cls-4" x1="79.04" y1="86.91" x2="79.04" y2="91.95"/><line class="cls-4" x1="79.04" y1="94.83" x2="79.04" y2="99.87"/><line class="cls-4" x1="79.04" y1="102.75" x2="79.04" y2="107.79"/><line class="cls-4" x1="79.04" y1="110.67" x2="79.04" y2="115.71"/><line class="cls-4" x1="79.04" y1="118.59" x2="79.04" y2="123.63"/><line class="cls-4" x1="79.04" y1="126.51" x2="79.04" y2="131.55"/><line class="cls-4" x1="79.04" y1="134.43" x2="79.04" y2="139.47"/><line class="cls-4" x1="79.04" y1="142.35" x2="79.04" y2="147.39"/><line class="cls-4" x1="79.04" y1="150.27" x2="79.04" y2="155.31"/><line class="cls-4" x1="79.04" y1="158.19" x2="79.04" y2="163.23"/><line class="cls-4" x1="79.04" y1="166.11" x2="79.04" y2="171.15"/><line class="cls-4" x1="79.04" y1="174.03" x2="79.04" y2="179.07"/><line class="cls-4" x1="79.04" y1="181.95" x2="79.04" y2="186.99"/><line class="cls-4" x1="79.04" y1="189.87" x2="79.04" y2="194.91"/><line class="cls-4" x1="79.04" y1="197.79" x2="79.04" y2="202.83"/><line class="cls-4" x1="79.04" y1="205.71" x2="79.04" y2="210.75"/><line class="cls-4" x1="79.04" y1="213.63" x2="79.04" y2="218.67"/><line class="cls-4" x1="79.04" y1="221.55" x2="79.04" y2="226.59"/><line class="cls-4" x1="79.04" y1="229.47" x2="79.04" y2="234.51"/><line class="cls-4" x1="79.04" y1="237.39" x2="79.04" y2="242.43"/><line class="cls-4" x1="79.04" y1="245.31" x2="79.04" y2="250.35"/><line class="cls-4" x1="79.04" y1="253.23" x2="79.04" y2="258.27"/><line class="cls-4" x1="79.04" y1="261.15" x2="79.04" y2="266.19"/><line class="cls-4" x1="79.04" y1="269.07" x2="79.04" y2="274.11"/><line class="cls-4" x1="79.04" y1="276.99" x2="79.04" y2="282.03"/><line class="cls-4" x1="79.04" y1="284.91" x2="79.04" y2="289.95"/><line class="cls-4" x1="79.04" y1="292.83" x2="79.04" y2="297.87"/><line class="cls-4" x1="79.04" y1="300.75" x2="79.04" y2="305.79"/><line class="cls-4" x1="79.04" y1="308.67" x2="79.04" y2="313.71"/><line class="cls-4" x1="79.04" y1="316.59" x2="79.04" y2="321.63"/><line class="cls-4" x1="79.04" y1="324.51" x2="79.04" y2="329.55"/><line class="cls-4" x1="79.04" y1="332.43" x2="79.04" y2="337.47"/><line class="cls-4" x1="79.04" y1="340.35" x2="79.04" y2="345.39"/><line class="cls-4" x1="79.04" y1="348.27" x2="79.04" y2="353.31"/><line class="cls-4" x1="79.04" y1="356.19" x2="79.04" y2="361.23"/><line class="cls-4" x1="79.04" y1="364.11" x2="79.04" y2="369.15"/><line class="cls-4" x1="79.04" y1="372.03" x2="79.04" y2="377.07"/><line class="cls-4" x1="79.04" y1="379.95" x2="79.04" y2="384.99"/><line class="cls-4" x1="79.04" y1="387.87" x2="79.04" y2="392.91"/><line class="cls-4" x1="79.04" y1="395.79" x2="79.04" y2="400.83"/><line class="cls-4" x1="79.04" y1="403.71" x2="79.04" y2="408.75"/><line class="cls-4" x1="79.04" y1="411.63" x2="79.04" y2="416.67"/><line class="cls-4" x1="79.04" y1="419.55" x2="79.04" y2="424.59"/><line class="cls-4" x1="79.04" y1="427.47" x2="79.04" y2="432.51"/><line class="cls-4" x1="79.04" y1="435.39" x2="79.04" y2="440.43"/><line class="cls-4" x1="79.04" y1="443.31" x2="79.04" y2="448.35"/><line class="cls-4" x1="79.04" y1="451.23" x2="79.04" y2="456.27"/><line class="cls-4" x1="79.04" y1="459.15" x2="79.04" y2="464.19"/><line class="cls-4" x1="79.04" y1="467.07" x2="79.04" y2="472.11"/><line class="cls-4" x1="79.04" y1="474.99" x2="79.04" y2="480.03"/><line class="cls-4" x1="79.04" y1="482.91" x2="79.04" y2="487.95"/><line class="cls-4" x1="79.04" y1="490.83" x2="79.04" y2="495.87"/><line class="cls-4" x1="79.04" y1="498.75" x2="79.04" y2="503.79"/><line class="cls-4" x1="79.04" y1="506.67" x2="79.04" y2="511.71"/><line class="cls-4" x1="79.04" y1="514.59" x2="79.04" y2="519.63"/><line class="cls-4" x1="79.04" y1="522.51" x2="79.04" y2="527.55"/><line class="cls-4" x1="79.04" y1="530.43" x2="79.04" y2="535.47"/><line class="cls-4" x1="79.04" y1="538.35" x2="79.04" y2="543.39"/><line class="cls-4" x1="79.04" y1="546.27" x2="79.04" y2="551.31"/><line class="cls-4" x1="79.04" y1="554.19" x2="79.04" y2="559.23"/><line class="cls-4" x1="79.04" y1="562.11" x2="79.04" y2="567.15"/><line class="cls-4" x1="79.04" y1="570.03" x2="79.04" y2="575.07"/><line class="cls-4" x1="79.04" y1="577.95" x2="79.04" y2="582.99"/><line class="cls-4" x1="79.04" y1="585.87" x2="79.04" y2="590.91"/><line class="cls-4" x1="79.04" y1="593.79" x2="79.04" y2="598.83"/><line class="cls-4" x1="79.04" y1="601.71" x2="79.04" y2="606.75"/><line class="cls-4" x1="79.04" y1="609.63" x2="79.04" y2="614.67"/><line class="cls-4" x1="79.04" y1="617.55" x2="79.04" y2="622.59"/><line class="cls-4" x1="79.04" y1="625.47" x2="79.04" y2="630.51"/><line class="cls-4" x1="79.04" y1="633.39" x2="79.04" y2="638.43"/><line class="cls-4" x1="79.04" y1="641.31" x2="79.04" y2="646.35"/><line class="cls-4" x1="79.04" y1="649.23" x2="79.04" y2="654.27"/><line class="cls-4" x1="79.04" y1="657.15" x2="79.04" y2="662.19"/><line class="cls-4" x1="79.04" y1="665.07" x2="79.04" y2="670.11"/><line class="cls-4" x1="79.04" y1="672.99" x2="79.04" y2="678.03"/><line class="cls-4" x1="79.04" y1="680.91" x2="79.04" y2="685.95"/><line class="cls-4" x1="79.04" y1="688.83" x2="79.04" y2="693.87"/><line class="cls-4" x1="79.04" y1="696.75" x2="79.04" y2="701.79"/><line class="cls-4" x1="79.04" y1="704.67" x2="79.04" y2="708.27"/><path class="cls-6" d="M82.58,108.81a1.79,1.79,0,0,0-1.8-1.74h-3.6a1.74,1.74,0,0,0-1.74,1.74v3.6a1.79,1.79,0,0,0,1.74,1.8h3.6a1.85,1.85,0,0,0,1.8-1.8Z"/><path class="cls-4" d="M82.58,108.81a1.79,1.79,0,0,0-1.8-1.74h-3.6a1.74,1.74,0,0,0-1.74,1.74v3.6a1.79,1.79,0,0,0,1.74,1.8h3.6a1.85,1.85,0,0,0,1.8-1.8Z"/><path class="cls-6" d="M82.58,165a1.79,1.79,0,0,0-1.8-1.74h-3.6A1.74,1.74,0,0,0,75.44,165v3.6a1.79,1.79,0,0,0,1.74,1.8h3.6a1.85,1.85,0,0,0,1.8-1.8Z"/><path class="cls-4" d="M82.58,165a1.79,1.79,0,0,0-1.8-1.74h-3.6A1.74,1.74,0,0,0,75.44,165v3.6a1.79,1.79,0,0,0,1.74,1.8h3.6a1.85,1.85,0,0,0,1.8-1.8Z"/><path class="cls-6" d="M82.58,221.13a1.79,1.79,0,0,0-1.8-1.74h-3.6a1.74,1.74,0,0,0-1.74,1.74v3.6a1.79,1.79,0,0,0,1.74,1.8h3.6a1.85,1.85,0,0,0,1.8-1.8Z"/><path class="cls-4" d="M82.58,221.13a1.79,1.79,0,0,0-1.8-1.74h-3.6a1.74,1.74,0,0,0-1.74,1.74v3.6a1.79,1.79,0,0,0,1.74,1.8h3.6a1.85,1.85,0,0,0,1.8-1.8Z"/><path class="cls-6" d="M82.58,272.25a1.79,1.79,0,0,0-1.8-1.74h-3.6a1.74,1.74,0,0,0-1.74,1.74v3.6a1.79,1.79,0,0,0,1.74,1.8h3.6a1.85,1.85,0,0,0,1.8-1.8Z"/><path class="cls-4" d="M82.58,272.25a1.79,1.79,0,0,0-1.8-1.74h-3.6a1.74,1.74,0,0,0-1.74,1.74v3.6a1.79,1.79,0,0,0,1.74,1.8h3.6a1.85,1.85,0,0,0,1.8-1.8Z"/><path class="cls-6" d="M82.58,389a1.81,1.81,0,0,0-1.8-1.8h-3.6a1.76,1.76,0,0,0-1.74,1.8V671.13a1.79,1.79,0,0,0,1.74,1.8h3.6a1.85,1.85,0,0,0,1.8-1.8Z"/><path class="cls-4" d="M82.58,389a1.81,1.81,0,0,0-1.8-1.8h-3.6a1.76,1.76,0,0,0-1.74,1.8V671.13a1.79,1.79,0,0,0,1.74,1.8h3.6a1.85,1.85,0,0,0,1.8-1.8Z"/><path class="cls-5" d="M375.56,25.65A3.57,3.57,0,1,0,372,29.19a3.6,3.6,0,0,0,3.54-3.54"/><path class="cls-6" d="M374.18,24.21a3.56,3.56,0,0,0-3.6-3.54A3.51,3.51,0,0,0,367,24.21a3.56,3.56,0,0,0,3.54,3.6A3.61,3.61,0,0,0,374.18,24.21Z"/><path class="cls-4" d="M374.18,24.21a3.56,3.56,0,0,0-3.6-3.54A3.51,3.51,0,0,0,367,24.21a3.56,3.56,0,0,0,3.54,3.6A3.61,3.61,0,0,0,374.18,24.21Z"/><line class="cls-4" x1="370.64" y1="27.87" x2="370.64" y2="35.07"/><line class="cls-4" x1="367.04" y1="31.47" x2="374.24" y2="31.47"/><line class="cls-4" x1="367.04" y1="42.27" x2="370.64" y2="35.07"/><line class="cls-4" x1="374.24" y1="42.27" x2="370.64" y2="35.07"/><text class="cls-7" transform="translate(342.56 52.29)">b<tspan class="cls-11" x="4" y="0">r</tspan><tspan x="6.41" y="0">o</tspan><tspan class="cls-11" x="10.41" y="0">k</tspan><tspan x="14.02" y="0">e</tspan><tspan class="cls-11" x="18.02" y="0">r</tspan><tspan class="cls-12" x="20.43" y="0"> </tspan><tspan class="cls-10" x="22.42" y="0">(</tspan><tspan class="cls-13" x="24.82" y="0">Do</tspan><tspan class="cls-10" x="34.02" y="0">m</tspan><tspan x="40.03" y="0">eni</tspan><tspan class="cls-11" x="49.64" y="0">c</tspan><tspan x="53.25" y="0">)</tspan></text><line class="cls-4" x1="370.64" y1="55.23" x2="370.64" y2="60.27"/><line class="cls-4" x1="370.64" y1="63.15" x2="370.64" y2="68.19"/><line class="cls-4" x1="370.64" y1="71.07" x2="370.64" y2="76.11"/><line class="cls-4" x1="370.64" y1="78.99" x2="370.64" y2="84.03"/><line class="cls-4" x1="370.64" y1="86.91" x2="370.64" y2="91.95"/><line class="cls-4" x1="370.64" y1="94.83" x2="370.64" y2="99.87"/><line class="cls-4" x1="370.64" y1="102.75" x2="370.64" y2="107.79"/><line class="cls-4" x1="370.64" y1="110.67" x2="370.64" y2="115.71"/><line class="cls-4" x1="370.64" y1="118.59" x2="370.64" y2="123.63"/><line class="cls-4" x1="370.64" y1="126.51" x2="370.64" y2="131.55"/><line class="cls-4" x1="370.64" y1="134.43" x2="370.64" y2="139.47"/><line class="cls-4" x1="370.64" y1="142.35" x2="370.64" y2="147.39"/><line class="cls-4" x1="370.64" y1="150.27" x2="370.64" y2="155.31"/><line class="cls-4" x1="370.64" y1="158.19" x2="370.64" y2="163.23"/><line class="cls-4" x1="370.64" y1="166.11" x2="370.64" y2="171.15"/><line class="cls-4" x1="370.64" y1="174.03" x2="370.64" y2="179.07"/><line class="cls-4" x1="370.64" y1="181.95" x2="370.64" y2="186.99"/><line class="cls-4" x1="370.64" y1="189.87" x2="370.64" y2="194.91"/><line class="cls-4" x1="370.64" y1="197.79" x2="370.64" y2="202.83"/><line class="cls-4" x1="370.64" y1="205.71" x2="370.64" y2="210.75"/><line class="cls-4" x1="370.64" y1="213.63" x2="370.64" y2="218.67"/><line class="cls-4" x1="370.64" y1="221.55" x2="370.64" y2="226.59"/><line class="cls-4" x1="370.64" y1="229.47" x2="370.64" y2="234.51"/><line class="cls-4" x1="370.64" y1="237.39" x2="370.64" y2="242.43"/><line class="cls-4" x1="370.64" y1="245.31" x2="370.64" y2="250.35"/><line class="cls-4" x1="370.64" y1="253.23" x2="370.64" y2="258.27"/><line class="cls-4" x1="370.64" y1="261.15" x2="370.64" y2="266.19"/><line class="cls-4" x1="370.64" y1="269.07" x2="370.64" y2="274.11"/><line class="cls-4" x1="370.64" y1="276.99" x2="370.64" y2="282.03"/><line class="cls-4" x1="370.64" y1="284.91" x2="370.64" y2="289.95"/><line class="cls-4" x1="370.64" y1="292.83" x2="370.64" y2="297.87"/><line class="cls-4" x1="370.64" y1="300.75" x2="370.64" y2="305.79"/><line class="cls-4" x1="370.64" y1="308.67" x2="370.64" y2="313.71"/><line class="cls-4" x1="370.64" y1="316.59" x2="370.64" y2="321.63"/><line class="cls-4" x1="370.64" y1="324.51" x2="370.64" y2="329.55"/><line class="cls-4" x1="370.64" y1="332.43" x2="370.64" y2="337.47"/><line class="cls-4" x1="370.64" y1="340.35" x2="370.64" y2="345.39"/><line class="cls-4" x1="370.64" y1="348.27" x2="370.64" y2="353.31"/><line class="cls-4" x1="370.64" y1="356.19" x2="370.64" y2="361.23"/><line class="cls-4" x1="370.64" y1="364.11" x2="370.64" y2="369.15"/><line class="cls-4" x1="370.64" y1="372.03" x2="370.64" y2="377.07"/><line class="cls-4" x1="370.64" y1="379.95" x2="370.64" y2="384.99"/><line class="cls-4" x1="370.64" y1="387.87" x2="370.64" y2="392.91"/><line class="cls-4" x1="370.64" y1="395.79" x2="370.64" y2="400.83"/><line class="cls-4" x1="370.64" y1="403.71" x2="370.64" y2="408.75"/><line class="cls-4" x1="370.64" y1="411.63" x2="370.64" y2="416.67"/><line class="cls-4" x1="370.64" y1="419.55" x2="370.64" y2="424.59"/><line class="cls-4" x1="370.64" y1="427.47" x2="370.64" y2="432.51"/><line class="cls-4" x1="370.64" y1="435.39" x2="370.64" y2="440.43"/><line class="cls-4" x1="370.64" y1="443.31" x2="370.64" y2="448.35"/><line class="cls-4" x1="370.64" y1="451.23" x2="370.64" y2="456.27"/><line class="cls-4" x1="370.64" y1="459.15" x2="370.64" y2="464.19"/><line class="cls-4" x1="370.64" y1="467.07" x2="370.64" y2="472.11"/><line class="cls-4" x1="370.64" y1="474.99" x2="370.64" y2="480.03"/><line class="cls-4" x1="370.64" y1="482.91" x2="370.64" y2="487.95"/><line class="cls-4" x1="370.64" y1="490.83" x2="370.64" y2="495.87"/><line class="cls-4" x1="370.64" y1="498.75" x2="370.64" y2="503.79"/><line class="cls-4" x1="370.64" y1="506.67" x2="370.64" y2="511.71"/><line class="cls-4" x1="370.64" y1="514.59" x2="370.64" y2="519.63"/><line class="cls-4" x1="370.64" y1="522.51" x2="370.64" y2="527.55"/><line class="cls-4" x1="370.64" y1="530.43" x2="370.64" y2="535.47"/><line class="cls-4" x1="370.64" y1="538.35" x2="370.64" y2="543.39"/><line class="cls-4" x1="370.64" y1="546.27" x2="370.64" y2="551.31"/><line class="cls-4" x1="370.64" y1="554.19" x2="370.64" y2="559.23"/><line class="cls-4" x1="370.64" y1="562.11" x2="370.64" y2="567.15"/><line class="cls-4" x1="370.64" y1="570.03" x2="370.64" y2="575.07"/><line class="cls-4" x1="370.64" y1="577.95" x2="370.64" y2="582.99"/><line class="cls-4" x1="370.64" y1="585.87" x2="370.64" y2="590.91"/><line class="cls-4" x1="370.64" y1="593.79" x2="370.64" y2="598.83"/><line class="cls-4" x1="370.64" y1="601.71" x2="370.64" y2="606.75"/><line class="cls-4" x1="370.64" y1="609.63" x2="370.64" y2="614.67"/><line class="cls-4" x1="370.64" y1="617.55" x2="370.64" y2="622.59"/><line class="cls-4" x1="370.64" y1="625.47" x2="370.64" y2="630.51"/><line class="cls-4" x1="370.64" y1="633.39" x2="370.64" y2="638.43"/><line class="cls-4" x1="370.64" y1="641.31" x2="370.64" y2="646.35"/><line class="cls-4" x1="370.64" y1="649.23" x2="370.64" y2="654.27"/><line class="cls-4" x1="370.64" y1="657.15" x2="370.64" y2="662.19"/><line class="cls-4" x1="370.64" y1="665.07" x2="370.64" y2="670.11"/><line class="cls-4" x1="370.64" y1="672.99" x2="370.64" y2="678.03"/><line class="cls-4" x1="370.64" y1="680.91" x2="370.64" y2="685.95"/><line class="cls-4" x1="370.64" y1="688.83" x2="370.64" y2="693.87"/><line class="cls-4" x1="370.64" y1="696.75" x2="370.64" y2="701.79"/><line class="cls-4" x1="370.64" y1="704.67" x2="370.64" y2="708.27"/><path class="cls-6" d="M374.18,108.87a1.81,1.81,0,0,0-1.8-1.8h-3.6a1.76,1.76,0,0,0-1.74,1.8V396.09a1.79,1.79,0,0,0,1.74,1.8h3.6a1.85,1.85,0,0,0,1.8-1.8Z"/><path class="cls-4" d="M374.18,108.87a1.81,1.81,0,0,0-1.8-1.8h-3.6a1.76,1.76,0,0,0-1.74,1.8V396.09a1.79,1.79,0,0,0,1.74,1.8h3.6a1.85,1.85,0,0,0,1.8-1.8Z"/><path class="cls-6" d="M374.18,456.57a1.79,1.79,0,0,0-1.8-1.74h-3.6a1.74,1.74,0,0,0-1.74,1.74v3.6a1.79,1.79,0,0,0,1.74,1.8h3.6a1.85,1.85,0,0,0,1.8-1.8Z"/><path class="cls-4" d="M374.18,456.57a1.79,1.79,0,0,0-1.8-1.74h-3.6a1.74,1.74,0,0,0-1.74,1.74v3.6a1.79,1.79,0,0,0,1.74,1.8h3.6a1.85,1.85,0,0,0,1.8-1.8Z"/><path class="cls-6" d="M374.18,504.81a1.79,1.79,0,0,0-1.8-1.74h-3.6a1.74,1.74,0,0,0-1.74,1.74v3.6a1.79,1.79,0,0,0,1.74,1.8h3.6a1.85,1.85,0,0,0,1.8-1.8Z"/><path class="cls-4" d="M374.18,504.81a1.79,1.79,0,0,0-1.8-1.74h-3.6a1.74,1.74,0,0,0-1.74,1.74v3.6a1.79,1.79,0,0,0,1.74,1.8h3.6a1.85,1.85,0,0,0,1.8-1.8Z"/><path class="cls-6" d="M374.18,553.05a1.79,1.79,0,0,0-1.8-1.74h-3.6a1.74,1.74,0,0,0-1.74,1.74v3.6a1.79,1.79,0,0,0,1.74,1.8h3.6a1.85,1.85,0,0,0,1.8-1.8Z"/><path class="cls-4" d="M374.18,553.05a1.79,1.79,0,0,0-1.8-1.74h-3.6a1.74,1.74,0,0,0-1.74,1.74v3.6a1.79,1.79,0,0,0,1.74,1.8h3.6a1.85,1.85,0,0,0,1.8-1.8Z"/><path class="cls-6" d="M374.18,604.89a1.79,1.79,0,0,0-1.8-1.74h-3.6a1.74,1.74,0,0,0-1.74,1.74v3.6a1.79,1.79,0,0,0,1.74,1.8h3.6a1.85,1.85,0,0,0,1.8-1.8Z"/><path class="cls-4" d="M374.18,604.89a1.79,1.79,0,0,0-1.8-1.74h-3.6a1.74,1.74,0,0,0-1.74,1.74v3.6a1.79,1.79,0,0,0,1.74,1.8h3.6a1.85,1.85,0,0,0,1.8-1.8Z"/><path class="cls-6" d="M374.18,663.93a1.79,1.79,0,0,0-1.8-1.74h-3.6a1.74,1.74,0,0,0-1.74,1.74v3.6a1.79,1.79,0,0,0,1.74,1.8h3.6a1.85,1.85,0,0,0,1.8-1.8Z"/><path class="cls-4" d="M374.18,663.93a1.79,1.79,0,0,0-1.8-1.74h-3.6a1.74,1.74,0,0,0-1.74,1.74v3.6a1.79,1.79,0,0,0,1.74,1.8h3.6a1.85,1.85,0,0,0,1.8-1.8Z"/><text class="cls-14" transform="translate(402.32 131.13)"><tspan class="cls-15">R</tspan><tspan class="cls-16" x="8.65" y="0">eg</tspan><tspan class="cls-17" x="23.01" y="0">i</tspan><tspan class="cls-18" x="25.89" y="0">s</tspan><tspan class="cls-19" x="32.38" y="0">t</tspan><tspan class="cls-20" x="35.97" y="0">r</tspan><tspan class="cls-21" x="40.28" y="0">a</tspan><tspan class="cls-19" x="47.48" y="0">t</tspan><tspan class="cls-17" x="51.08" y="0">i</tspan><tspan class="cls-16" x="53.95" y="0">on</tspan><tspan class="cls-19" x="68.32" y="0"> </tspan><tspan class="cls-18" x="71.92" y="0">p</tspan><tspan class="cls-22" x="79.1" y="0">r</tspan><tspan class="cls-18" x="83.41" y="0">oces</tspan><tspan x="110.75" y="0">s</tspan></text><text class="cls-23" transform="translate(402.32 368.01)">U<tspan class="cls-24" x="8.65" y="0">s</tspan><tspan class="cls-16" x="15.12" y="0">e</tspan><tspan class="cls-20" x="22.3" y="0">r</tspan><tspan class="cls-25" x="26.61" y="0"> </tspan><tspan class="cls-22" x="30.21" y="0">r</tspan><tspan class="cls-18" x="34.52" y="0">eques</tspan><tspan class="cls-26" x="69.74" y="0">t</tspan></text><polyline class="cls-27" points="43.04 422.43 43.04 531.15 402.32 531.15 402.32 422.43 43.04 422.43"/><polyline class="cls-4" points="43.04 422.43 43.04 531.15 402.32 531.15 402.32 422.43 43.04 422.43"/><polygon class="cls-28" points="43.04 422.43 43.04 436.11 61.76 436.11 71.12 426.03 71.12 422.43 43.04 422.43"/><polygon class="cls-4" points="43.04 422.43 43.04 436.11 61.76 436.11 71.12 426.03 71.12 422.43 43.04 422.43"/><polygon class="cls-4" points="43.04 422.43 43.04 436.11 61.76 436.11 71.12 426.03 71.12 422.43 43.04 422.43"/><text class="cls-29" transform="translate(46.64 431.31)">par<tspan class="cls-30" x="11.23" y="0"> </tspan></text><polyline class="cls-4" points="367.04 107.07 82.64 107.07 91.28 104.19"/><line class="cls-4" x1="82.64" y1="107.07" x2="91.28" y2="109.95"/><polyline class="cls-4" points="367.04 163.23 82.64 163.23 91.28 160.35"/><line class="cls-4" x1="82.64" y1="163.23" x2="91.28" y2="166.11"/><polyline class="cls-4" points="367.04 219.39 82.64 219.39 91.28 216.51"/><line class="cls-4" x1="82.64" y1="219.39" x2="91.28" y2="222.27"/><polyline class="cls-4" points="367.04 270.51 82.64 270.51 91.28 267.63"/><line class="cls-4" x1="82.64" y1="270.51" x2="91.28" y2="273.39"/><polyline class="cls-4" points="367.04 387.15 82.64 387.15 91.28 384.27"/><line class="cls-4" x1="82.64" y1="387.15" x2="91.28" y2="390.03"/><polyline class="cls-4" points="82.64 454.83 367.04 454.83 358.4 451.95"/><line class="cls-4" x1="367.04" y1="454.83" x2="358.4" y2="457.71"/><polyline class="cls-4" points="82.64 503.07 367.04 503.07 358.4 500.19"/><line class="cls-4" x1="367.04" y1="503.07" x2="358.4" y2="505.95"/><polyline class="cls-4" points="82.64 551.31 367.04 551.31 358.4 548.43"/><line class="cls-4" x1="367.04" y1="551.31" x2="358.4" y2="554.19"/><polyline class="cls-4" points="82.64 603.15 367.04 603.15 358.4 600.27"/><line class="cls-4" x1="367.04" y1="603.15" x2="358.4" y2="606.03"/><polyline class="cls-4" points="82.64 662.19 367.04 662.19 358.4 659.31"/><line class="cls-4" x1="367.04" y1="662.19" x2="358.4" y2="665.07"/><rect class="cls-31" x="162.56" y="593.07" width="123.9" height="8.04"/><text class="cls-7" transform="translate(162.56 599.49)"><tspan class="cls-8">need_police(reasons,location,urgenc</tspan><tspan class="cls-32" x="117.93" y="0">y</tspan><tspan x="121.35" y="0">)</tspan></text><rect class="cls-31" x="192.08" y="605.31" width="63.84" height="8.04"/><text class="cls-7" transform="translate(192.08 611.73)">«/hshl/polices/&lt;id&gt;»</text><rect class="cls-31" x="154.64" y="444.75" width="140.34" height="8.04"/><text class="cls-7" transform="translate(154.64 451.17)"><tspan class="cls-8">need_ambulance(reasons,location,urgenc</tspan><tspan class="cls-32" x="134.36" y="0">y</tspan><tspan x="137.78" y="0">)</tspan></text><rect class="cls-31" x="184.16" y="456.99" width="80.28" height="8.04"/><text class="cls-7" transform="translate(184.16 463.41)">«<tspan class="cls-10" x="4" y="0">/</tspan><tspan x="6.01" y="0">hshl</tspan><tspan class="cls-10" x="19.22" y="0">/</tspan><tspan x="21.23" y="0">ambulances</tspan><tspan class="cls-10" x="60.05" y="0">/</tspan><tspan x="62.06" y="0">&lt;id&gt;»</tspan></text><rect class="cls-31" x="135.2" y="492.99" width="178.98" height="8.04"/><text class="cls-7" transform="translate(135.2 499.41)"><tspan class="cls-8">alert_hospital(speciali</tspan><tspan x="69.4" y="0">s</tspan></text><text class="cls-7" transform="translate(208.28 499.41)"><tspan class="cls-8">ts_needed,reasons,dri</tspan><tspan class="cls-33" x="71.4" y="0">v</tspan><tspan class="cls-34" x="74.94" y="0">e</tspan><tspan class="cls-11" x="78.96" y="0">r_name</tspan><tspan x="103.42" y="0">)</tspan></text><rect class="cls-31" x="189.2" y="505.23" width="69.84" height="8.04"/><text class="cls-7" transform="translate(189.2 511.65)">«/hshl/hospitals/&lt;id&gt;»</text><rect class="cls-31" x="140.24" y="153.15" width="159.6" height="8.04"/><text class="cls-7" transform="translate(140.24 159.57)">registerFirefighter(dri<tspan class="cls-33" x="66.82" y="0">v</tspan><tspan class="cls-35" x="70.36" y="0">e</tspan><tspan x="74.38" y="0">r</tspan></text><text class="cls-7" transform="translate(217.16 159.57)">_name<tspan class="cls-8" x="22.01" y="0">,</tspan><tspan x="24.02" y="0">lo</tspan><tspan class="cls-10" x="29.63" y="0">c</tspan><tspan x="33.23" y="0">a</tspan><tspan class="cls-10" x="37.24" y="0">t</tspan><tspan x="39.25" y="0">ion</tspan><tspan class="cls-11" x="48.85" y="0">,</tspan><tspan x="50.86" y="0">i</tspan><tspan class="cls-11" x="52.46" y="0">s</tspan><tspan x="56.07" y="0">_</tspan><tspan class="cls-11" x="60.07" y="0">f</tspan><tspan x="62.08" y="0">ree</tspan><tspan class="cls-11" x="72.49" y="0">,</tspan><tspan x="74.49" y="0">id)</tspan></text><rect class="cls-31" x="184.88" y="165.39" width="75" height="8.04"/><text class="cls-7" transform="translate(184.88 171.81)">«/hshl/firefighters/&lt;id&gt;»</text><rect class="cls-31" x="105.68" y="260.43" width="228.24" height="8.04"/><text class="cls-7" transform="translate(105.68 266.85)"><tspan class="cls-8">registerHospital(hospital_name,l</tspan><tspan x="103.08" y="0">o</tspan></text><text class="cls-7" transform="translate(212.84 266.85)">cation,doctors,specialists,free_rooms)</text><rect class="cls-31" x="187.76" y="272.67" width="69.84" height="8.04"/><text class="cls-7" transform="translate(187.76 279.09)">«/hshl/hospitals/&lt;id&gt;»</text><rect class="cls-31" x="165.44" y="652.11" width="109.32" height="8.04"/><text class="cls-7" transform="translate(165.44 658.53)"><tspan class="cls-8">help_on_</tspan><tspan class="cls-36" x="29.69" y="0">t</tspan><tspan class="cls-10" x="31.67" y="0">he_</tspan><tspan class="cls-37" x="43.71" y="0">w</tspan><tspan class="cls-8" x="48.81" y="0">a</tspan><tspan class="cls-38" x="52.83" y="0">y</tspan><tspan class="cls-34" x="56.25" y="0">(</tspan><tspan class="cls-9" x="58.66" y="0">t</tspan><tspan class="cls-8" x="60.64" y="0">i</tspan><tspan class="cls-34" x="62.25" y="0">m</tspan><tspan class="cls-10" x="68.26" y="0">e_</tspan><tspan class="cls-9" x="76.29" y="0">t</tspan><tspan class="cls-8" x="78.27" y="0">ill_a</tspan><tspan class="cls-34" x="91.11" y="0">rr</tspan><tspan class="cls-8" x="95.94" y="0">i</tspan><tspan class="cls-33" x="97.55" y="0">v</tspan><tspan class="cls-34" x="101.09" y="0">a</tspan><tspan class="cls-11" x="105.11" y="0">l</tspan><tspan x="106.71" y="0">)</tspan></text><rect class="cls-31" x="194.24" y="664.35" width="58.98" height="8.04"/><text class="cls-7" transform="translate(194.24 670.77)">«/hshl/users/&lt;id&gt;»</text><rect class="cls-31" x="151.76" y="377.79" width="141.6" height="8.04"/><text class="cls-7" transform="translate(151.76 384.21)"><tspan class="cls-8">user_request(dri</tspan><tspan class="cls-33" x="52.54" y="0">v</tspan><tspan class="cls-10" x="56.08" y="0">er_name,location,reasons</tspan><tspan x="139.1" y="0">)</tspan></text><rect class="cls-31" x="194.24" y="389.31" width="58.98" height="8.04"/><text class="cls-7" transform="translate(194.24 395.73)">«/hshl/users/&lt;id&gt;»</text><rect class="cls-31" x="138.08" y="96.99" width="163.26" height="8.04"/><text class="cls-7" transform="translate(138.08 103.41)"><tspan class="cls-8">registerAmbulance(dri</tspan><tspan class="cls-33" x="70.58" y="0">v</tspan><tspan class="cls-10" x="74.12" y="0">er_na</tspan><tspan x="92.57" y="0">m</tspan></text><text class="cls-7" transform="translate(236.72 103.41)">e,location,is_free,id)</text><rect class="cls-31" x="182" y="109.23" width="80.28" height="8.04"/><text class="cls-7" transform="translate(182 115.65)">«<tspan class="cls-10" x="4" y="0">/</tspan><tspan x="6.01" y="0">hshl</tspan><tspan class="cls-10" x="19.22" y="0">/</tspan><tspan x="21.23" y="0">ambulances</tspan><tspan class="cls-10" x="60.05" y="0">/</tspan><tspan x="62.06" y="0">&lt;id&gt;»</tspan></text><rect class="cls-31" x="156.8" y="541.23" width="135.06" height="8.04"/><text class="cls-7" transform="translate(156.8 547.65)"><tspan class="cls-8">need_firefighter(reason</tspan><tspan x="74.61" y="0">s</tspan></text><text class="cls-7" transform="translate(235.04 547.65)"><tspan class="cls-8">,</tspan><tspan class="cls-30" x="2.01" y="0">loca</tspan><tspan class="cls-10" x="15.22" y="0">t</tspan><tspan x="17.22" y="0">ion</tspan><tspan class="cls-10" x="26.83" y="0">,</tspan><tspan class="cls-13" x="28.84" y="0">urgenc</tspan><tspan class="cls-32" x="50.85" y="0">y</tspan><tspan class="cls-13" x="54.27" y="0">)</tspan></text><rect class="cls-31" x="187.04" y="553.47" width="75" height="8.04"/><text class="cls-7" transform="translate(187.04 559.89)">«/hshl/firefighters/&lt;id&gt;»</text><rect class="cls-31" x="146.72" y="209.31" width="146.82" height="8.04"/><text class="cls-7" transform="translate(146.72 215.73)"><tspan class="cls-8">registerPolice(dri</tspan><tspan class="cls-33" x="54.15" y="0">v</tspan><tspan class="cls-10" x="57.69" y="0">er_na</tspan><tspan x="76.14" y="0">m</tspan></text><text class="cls-7" transform="translate(228.92 215.73)">e,location,is_free,id)</text><rect class="cls-31" x="190.64" y="221.55" width="63.84" height="8.04"/><text class="cls-7" transform="translate(190.64 227.97)">«/hshl/polices/&lt;id&gt;»</text></svg>