<svg id="Ebene_1" data-name="Ebene 1" xmlns="http://www.w3.org/2000/svg" viewBox="0 0 512.2 562.67"><defs><style>.cls-1{fill:#dfdfdf;}.cls-1,.cls-2,.cls-8{fill-rule:evenodd;}.cls-2{fill:#f8e2c1;}.cls-3{fill:none;stroke:#000;stroke-linecap:round;stroke-linejoin:round;stroke-width:0.72px;}.cls-21,.cls-23,.cls-25,.cls-4{font-size:7.2px;}.cls-21,.cls-4{font-family:Arial-BoldMT, Arial;font-weight:700;}.cls-25,.cls-5{letter-spacing:0em;}.cls-6{letter-spacing:0em;}.cls-7{letter-spacing:0em;}.cls-8{fill:#e5f2fe;}.cls-9{letter-spacing:0em;}.cls-10{letter-spacing:0em;}.cls-11{letter-spacing:0.02em;}.cls-12{letter-spacing:0em;}.cls-13{letter-spacing:0em;}.cls-14{letter-spacing:0em;}.cls-15{letter-spacing:-0.02em;}.cls-16,.cls-21{letter-spacing:0em;}.cls-17{letter-spacing:-0.02em;}.cls-18{letter-spacing:0em;}.cls-19{letter-spacing:0em;}.cls-20{letter-spacing:0em;}.cls-22{fill:#fff;}.cls-23,.cls-25{font-family:ArialMT, Arial;}.cls-24{letter-spacing:0em;}.cls-26{letter-spacing:-0.01em;}</style></defs><path class="cls-1" d="M42.72,283a7.89,7.89,0,1,0-7.86,7.86A7.9,7.9,0,0,0,42.72,283"/><path class="cls-2" d="M41.34,281.51a7.89,7.89,0,1,0-7.92,7.92A7.86,7.86,0,0,0,41.34,281.51Z"/><path class="cls-3" d="M41.34,281.51a7.89,7.89,0,1,0-7.92,7.92A7.86,7.86,0,0,0,41.34,281.51Z"/><path class="cls-3" d="M41.34,281.51a7.89,7.89,0,1,0-7.92,7.92A7.86,7.86,0,0,0,41.34,281.51Z"/><line class="cls-3" x1="33.48" y1="289.49" x2="33.48" y2="304.61"/><line class="cls-3" x1="22.68" y1="293.09" x2="33.48" y2="293.09"/><line class="cls-3" x1="44.28" y1="293.09" x2="33.48" y2="293.09"/><line class="cls-3" x1="33.48" y1="304.61" x2="42.12" y2="319.73"/><line class="cls-3" x1="33.48" y1="304.61" x2="24.84" y2="319.73"/><text class="cls-4" transform="translate(5.4 326.45)">ma<tspan class="cls-5" x="10.41" y="0">n</tspan><tspan x="14.81" y="0">a</tspan><tspan class="cls-5" x="18.82" y="0">g</tspan><tspan class="cls-6" x="23.22" y="0">er</tspan><tspan class="cls-7" x="30.03" y="0"> </tspan><tspan x="32.01" y="0">(</tspan><tspan class="cls-5" x="34.41" y="0">Lu</tspan><tspan x="43.22" y="0">kas)</tspan></text><path class="cls-1" d="M376.08,133.91c0-13.92-16.92-25.2-37.74-25.2s-37.8,11.28-37.8,25.2,16.92,25.14,37.8,25.14,37.74-11.28,37.74-25.14"/><path class="cls-8" d="M374.7,132.47c0-13.92-16.92-25.14-37.8-25.14s-37.74,11.22-37.74,25.14,16.86,25.2,37.74,25.2S374.7,146.39,374.7,132.47Z"/><path class="cls-3" d="M374.7,132.47c0-13.92-16.92-25.14-37.8-25.14s-37.74,11.22-37.74,25.14,16.86,25.2,37.74,25.2S374.7,146.39,374.7,132.47Z"/><path class="cls-3" d="M374.7,132.47c0-13.92-16.92-25.14-37.8-25.14s-37.74,11.22-37.74,25.14,16.86,25.2,37.74,25.2S374.7,146.39,374.7,132.47Z"/><text class="cls-4" transform="translate(310.68 134.21)">read<tspan class="cls-7" x="15.21" y="0"> </tspan><tspan x="17.19" y="0">from</tspan><tspan class="cls-7" x="33.19" y="0"> </tspan><tspan class="cls-9" x="35.18" y="0">topic</tspan></text><path class="cls-1" d="M217.68,86.39c0-13.92-16.92-25.2-37.74-25.2s-37.8,11.28-37.8,25.2,16.92,25.14,37.8,25.14,37.74-11.28,37.74-25.14"/><path class="cls-8" d="M216.3,85c0-13.92-16.92-25.14-37.8-25.14S140.76,71,140.76,85s16.86,25.2,37.74,25.2S216.3,98.87,216.3,85Z"/><path class="cls-3" d="M216.3,85c0-13.92-16.92-25.14-37.8-25.14S140.76,71,140.76,85s16.86,25.2,37.74,25.2S216.3,98.87,216.3,85Z"/><path class="cls-3" d="M216.3,85c0-13.92-16.92-25.14-37.8-25.14S140.76,71,140.76,85s16.86,25.2,37.74,25.2S216.3,98.87,216.3,85Z"/><text class="cls-4" transform="translate(145.8 82.37)">communicate<tspan class="cls-10" x="46.41" y="0"> </tspan><tspan class="cls-11" x="48.4" y="0">w</tspan><tspan class="cls-7" x="54.16" y="0">i</tspan><tspan x="56.14" y="0">th </tspan></text><text class="cls-4" transform="translate(167.4 91.73)">broker</text><path class="cls-1" d="M217.68,203.75c0-13.92-16.92-25.2-37.74-25.2s-37.8,11.28-37.8,25.2,16.92,25.14,37.8,25.14,37.74-11.28,37.74-25.14"/><path class="cls-8" d="M216.3,202.31c0-13.92-16.92-25.14-37.8-25.14s-37.74,11.22-37.74,25.14,16.86,25.2,37.74,25.2S216.3,216.23,216.3,202.31Z"/><path class="cls-3" d="M216.3,202.31c0-13.92-16.92-25.14-37.8-25.14s-37.74,11.22-37.74,25.14,16.86,25.2,37.74,25.2S216.3,216.23,216.3,202.31Z"/><path class="cls-3" d="M216.3,202.31c0-13.92-16.92-25.14-37.8-25.14s-37.74,11.22-37.74,25.14,16.86,25.2,37.74,25.2S216.3,216.23,216.3,202.31Z"/><text class="cls-4" transform="translate(147.24 204.05)">calculate<tspan class="cls-7" x="30.82" y="0"> </tspan><tspan class="cls-12" x="32.8" y="0">distance</tspan></text><path class="cls-1" d="M217.68,265c0-13.92-16.92-25.2-37.74-25.2S142.14,251,142.14,265s16.92,25.14,37.8,25.14,37.74-11.28,37.74-25.14"/><path class="cls-8" d="M216.3,263.51c0-13.92-16.92-25.14-37.8-25.14s-37.74,11.22-37.74,25.14,16.86,25.2,37.74,25.2S216.3,277.43,216.3,263.51Z"/><path class="cls-3" d="M216.3,263.51c0-13.92-16.92-25.14-37.8-25.14s-37.74,11.22-37.74,25.14,16.86,25.2,37.74,25.2S216.3,277.43,216.3,263.51Z"/><path class="cls-3" d="M216.3,263.51c0-13.92-16.92-25.14-37.8-25.14s-37.74,11.22-37.74,25.14,16.86,25.2,37.74,25.2S216.3,277.43,216.3,263.51Z"/><text class="cls-4" transform="translate(155.88 260.93)">create<tspan class="cls-7" x="21.22" y="0"> </tspan><tspan x="23.2" y="0">list</tspan><tspan class="cls-7" x="33.61" y="0"> </tspan><tspan x="35.59" y="0">of </tspan></text><text class="cls-4" transform="translate(158.76 270.29)"><tspan class="cls-5">ressource</tspan><tspan x="34.49" y="0">s</tspan></text><path class="cls-1" d="M376.08,337.67c0-13.92-16.92-25.2-37.74-25.2s-37.8,11.28-37.8,25.2,16.92,25.14,37.8,25.14,37.74-11.28,37.74-25.14"/><path class="cls-8" d="M374.7,336.23c0-13.92-16.92-25.14-37.8-25.14s-37.74,11.22-37.74,25.14,16.86,25.2,37.74,25.2S374.7,350.15,374.7,336.23Z"/><path class="cls-3" d="M374.7,336.23c0-13.92-16.92-25.14-37.8-25.14s-37.74,11.22-37.74,25.14,16.86,25.2,37.74,25.2S374.7,350.15,374.7,336.23Z"/><path class="cls-3" d="M374.7,336.23c0-13.92-16.92-25.14-37.8-25.14s-37.74,11.22-37.74,25.14,16.86,25.2,37.74,25.2S374.7,350.15,374.7,336.23Z"/><text class="cls-4" transform="translate(308.52 333.65)"><tspan class="cls-13">make</tspan><tspan class="cls-14" x="18.44" y="0"> </tspan><tspan class="cls-13" x="20.43" y="0">ressource</tspan><tspan x="54.92" y="0"> </tspan></text><text class="cls-4" transform="translate(324.36 343.01)">a<tspan class="cls-15" x="4" y="0">v</tspan><tspan x="7.85" y="0">iable</tspan></text><path class="cls-1" d="M376.08,410.39c0-13.92-16.92-25.2-37.74-25.2s-37.8,11.28-37.8,25.2,16.92,25.14,37.8,25.14,37.74-11.28,37.74-25.14"/><path class="cls-8" d="M374.7,409c0-13.92-16.92-25.14-37.8-25.14S299.16,395,299.16,409s16.86,25.2,37.74,25.2S374.7,422.87,374.7,409Z"/><path class="cls-3" d="M374.7,409c0-13.92-16.92-25.14-37.8-25.14S299.16,395,299.16,409s16.86,25.2,37.74,25.2S374.7,422.87,374.7,409Z"/><path class="cls-3" d="M374.7,409c0-13.92-16.92-25.14-37.8-25.14S299.16,395,299.16,409s16.86,25.2,37.74,25.2S374.7,422.87,374.7,409Z"/><text class="cls-4" transform="translate(308.52 406.37)"><tspan class="cls-13">make</tspan><tspan class="cls-14" x="18.44" y="0"> </tspan><tspan class="cls-13" x="20.43" y="0">ressource</tspan><tspan x="54.92" y="0"> </tspan></text><text class="cls-4" transform="translate(320.04 415.73)"><tspan class="cls-16">un</tspan><tspan class="cls-14" x="8.78" y="0">a</tspan><tspan class="cls-17" x="12.77" y="0">v</tspan><tspan class="cls-18" x="16.62" y="0">a</tspan><tspan class="cls-19" x="20.64" y="0">ibl</tspan><tspan x="29.01" y="0">e</tspan></text><path class="cls-1" d="M376.08,522c0-13.92-16.92-25.2-37.74-25.2s-37.8,11.28-37.8,25.2,16.92,25.14,37.8,25.14,37.74-11.28,37.74-25.14"/><path class="cls-8" d="M374.7,520.55c0-13.92-16.92-25.14-37.8-25.14s-37.74,11.22-37.74,25.14,16.86,25.2,37.74,25.2S374.7,534.47,374.7,520.55Z"/><path class="cls-3" d="M374.7,520.55c0-13.92-16.92-25.14-37.8-25.14s-37.74,11.22-37.74,25.14,16.86,25.2,37.74,25.2S374.7,534.47,374.7,520.55Z"/><path class="cls-3" d="M374.7,520.55c0-13.92-16.92-25.14-37.8-25.14s-37.74,11.22-37.74,25.14,16.86,25.2,37.74,25.2S374.7,534.47,374.7,520.55Z"/><text class="cls-4" transform="translate(302.76 522.29)">se<tspan class="cls-13" x="8.01" y="0">nd</tspan><tspan class="cls-7" x="16.82" y="0"> </tspan><tspan class="cls-9" x="18.8" y="0">err</tspan><tspan class="cls-13" x="28.41" y="0">o</tspan><tspan x="32.82" y="0">r</tspan><tspan class="cls-14" x="35.62" y="0"> </tspan><tspan x="37.61" y="0">messa</tspan><tspan class="cls-13" x="60.03" y="0">g</tspan><tspan x="64.43" y="0">e</tspan></text><path class="cls-1" d="M217.68,521.27c0-13.92-16.92-25.2-37.74-25.2s-37.8,11.28-37.8,25.2,16.92,25.14,37.8,25.14,37.74-11.28,37.74-25.14"/><path class="cls-8" d="M216.3,519.83c0-13.92-16.92-25.14-37.8-25.14s-37.74,11.22-37.74,25.14S157.62,545,178.5,545,216.3,533.75,216.3,519.83Z"/><path class="cls-3" d="M216.3,519.83c0-13.92-16.92-25.14-37.8-25.14s-37.74,11.22-37.74,25.14S157.62,545,178.5,545,216.3,533.75,216.3,519.83Z"/><path class="cls-3" d="M216.3,519.83c0-13.92-16.92-25.14-37.8-25.14s-37.74,11.22-37.74,25.14S157.62,545,178.5,545,216.3,533.75,216.3,519.83Z"/><text class="cls-4" transform="translate(155.16 517.25)">detect<tspan class="cls-10" x="21.21" y="0"> </tspan><tspan class="cls-11" x="23.19" y="0">w</tspan><tspan class="cls-20" x="28.95" y="0">r</tspan><tspan class="cls-12" x="31.77" y="0">ong </tspan></text><text class="cls-4" transform="translate(160.92 526.61)"><tspan class="cls-5">message</tspan><tspan x="30.87" y="0">s</tspan></text><path class="cls-1" d="M376.08,41.75c0-13.92-16.92-25.2-37.74-25.2s-37.8,11.28-37.8,25.2,16.92,25.14,37.8,25.14,37.74-11.28,37.74-25.14"/><path class="cls-8" d="M374.7,40.31c0-13.92-16.92-25.14-37.8-25.14s-37.74,11.22-37.74,25.14S316,65.51,336.9,65.51,374.7,54.23,374.7,40.31Z"/><path class="cls-3" d="M374.7,40.31c0-13.92-16.92-25.14-37.8-25.14s-37.74,11.22-37.74,25.14S316,65.51,336.9,65.51,374.7,54.23,374.7,40.31Z"/><path class="cls-3" d="M374.7,40.31c0-13.92-16.92-25.14-37.8-25.14s-37.74,11.22-37.74,25.14S316,65.51,336.9,65.51,374.7,54.23,374.7,40.31Z"/><text class="cls-21" transform="translate(309.96 42.05)">publi<tspan class="cls-7" x="17.16" y="0">s</tspan><tspan class="cls-19" x="21.15" y="0">h</tspan><tspan class="cls-7" x="25.54" y="0"> </tspan><tspan class="cls-19" x="27.53" y="0">to</tspan><tspan class="cls-14" x="34.31" y="0"> </tspan><tspan class="cls-19" x="36.29" y="0">topi</tspan><tspan class="cls-9" x="49.46" y="0">c</tspan></text><path class="cls-1" d="M376.08,265.67c0-13.92-16.92-25.2-37.74-25.2s-37.8,11.28-37.8,25.2,16.92,25.14,37.8,25.14,37.74-11.28,37.74-25.14"/><path class="cls-8" d="M374.7,264.23c0-13.92-16.92-25.14-37.8-25.14s-37.74,11.22-37.74,25.14,16.86,25.2,37.74,25.2S374.7,278.15,374.7,264.23Z"/><path class="cls-3" d="M374.7,264.23c0-13.92-16.92-25.14-37.8-25.14s-37.74,11.22-37.74,25.14,16.86,25.2,37.74,25.2S374.7,278.15,374.7,264.23Z"/><path class="cls-3" d="M374.7,264.23c0-13.92-16.92-25.14-37.8-25.14s-37.74,11.22-37.74,25.14,16.86,25.2,37.74,25.2S374.7,278.15,374.7,264.23Z"/><text class="cls-4" transform="translate(304.92 265.97)">register<tspan class="cls-7" x="26.41" y="0"> </tspan><tspan x="28.4" y="0">ne</tspan><tspan class="cls-11" x="36.8" y="0">w</tspan><tspan class="cls-14" x="42.56" y="0"> </tspan><tspan x="44.55" y="0">entity</tspan></text><path class="cls-1" d="M499.92,211.67c0-13.92-16.92-25.2-37.74-25.2s-37.8,11.28-37.8,25.2,16.92,25.14,37.8,25.14,37.74-11.28,37.74-25.14"/><path class="cls-8" d="M498.54,210.23c0-13.92-16.92-25.14-37.8-25.14S423,196.31,423,210.23s16.86,25.2,37.74,25.2S498.54,224.15,498.54,210.23Z"/><path class="cls-3" d="M498.54,210.23c0-13.92-16.92-25.14-37.8-25.14S423,196.31,423,210.23s16.86,25.2,37.74,25.2S498.54,224.15,498.54,210.23Z"/><path class="cls-3" d="M498.54,210.23c0-13.92-16.92-25.14-37.8-25.14S423,196.31,423,210.23s16.86,25.2,37.74,25.2S498.54,224.15,498.54,210.23Z"/><text class="cls-4" transform="translate(429.48 211.97)">register<tspan class="cls-7" x="26.41" y="0"> </tspan><tspan class="cls-9" x="28.4" y="0">firefighter</tspan></text><path class="cls-1" d="M499.92,342.71c0-13.92-16.92-25.2-37.74-25.2s-37.8,11.28-37.8,25.2,16.92,25.14,37.8,25.14,37.74-11.28,37.74-25.14"/><path class="cls-8" d="M498.54,341.27c0-13.92-16.92-25.14-37.8-25.14S423,327.35,423,341.27s16.86,25.2,37.74,25.2S498.54,355.19,498.54,341.27Z"/><path class="cls-3" d="M498.54,341.27c0-13.92-16.92-25.14-37.8-25.14S423,327.35,423,341.27s16.86,25.2,37.74,25.2S498.54,355.19,498.54,341.27Z"/><path class="cls-3" d="M498.54,341.27c0-13.92-16.92-25.14-37.8-25.14S423,327.35,423,341.27s16.86,25.2,37.74,25.2S498.54,355.19,498.54,341.27Z"/><text class="cls-4" transform="translate(427.32 343.01)">register<tspan class="cls-7" x="26.41" y="0"> </tspan><tspan class="cls-9" x="28.4" y="0">ambulance</tspan></text><path class="cls-1" d="M499.92,144c0-13.92-16.92-25.2-37.74-25.2s-37.8,11.28-37.8,25.2,16.92,25.14,37.8,25.14,37.74-11.28,37.74-25.14"/><path class="cls-8" d="M498.54,142.55c0-13.92-16.92-25.14-37.8-25.14S423,128.63,423,142.55s16.86,25.2,37.74,25.2S498.54,156.47,498.54,142.55Z"/><path class="cls-3" d="M498.54,142.55c0-13.92-16.92-25.14-37.8-25.14S423,128.63,423,142.55s16.86,25.2,37.74,25.2S498.54,156.47,498.54,142.55Z"/><path class="cls-3" d="M498.54,142.55c0-13.92-16.92-25.14-37.8-25.14S423,128.63,423,142.55s16.86,25.2,37.74,25.2S498.54,156.47,498.54,142.55Z"/><text class="cls-4" transform="translate(435.96 144.29)">register<tspan class="cls-7" x="26.41" y="0"> </tspan><tspan x="28.4" y="0">police</tspan></text><path class="cls-1" d="M499.92,274.31c0-13.92-16.92-25.2-37.74-25.2s-37.8,11.28-37.8,25.2,16.92,25.14,37.8,25.14,37.74-11.28,37.74-25.14"/><path class="cls-8" d="M498.54,272.87c0-13.92-16.92-25.14-37.8-25.14S423,259,423,272.87s16.86,25.2,37.74,25.2S498.54,286.79,498.54,272.87Z"/><path class="cls-3" d="M498.54,272.87c0-13.92-16.92-25.14-37.8-25.14S423,259,423,272.87s16.86,25.2,37.74,25.2S498.54,286.79,498.54,272.87Z"/><path class="cls-3" d="M498.54,272.87c0-13.92-16.92-25.14-37.8-25.14S423,259,423,272.87s16.86,25.2,37.74,25.2S498.54,286.79,498.54,272.87Z"/><text class="cls-4" transform="translate(432.36 274.61)">register<tspan class="cls-7" x="26.41" y="0"> </tspan><tspan x="28.4" y="0">hospital</tspan></text><path class="cls-1" d="M217.68,349.19c0-13.92-16.92-25.2-37.74-25.2s-37.8,11.28-37.8,25.2,16.92,25.14,37.8,25.14,37.74-11.28,37.74-25.14"/><path class="cls-8" d="M216.3,347.75c0-13.92-16.92-25.14-37.8-25.14s-37.74,11.22-37.74,25.14S157.62,373,178.5,373,216.3,361.67,216.3,347.75Z"/><path class="cls-3" d="M216.3,347.75c0-13.92-16.92-25.14-37.8-25.14s-37.74,11.22-37.74,25.14S157.62,373,178.5,373,216.3,361.67,216.3,347.75Z"/><path class="cls-3" d="M216.3,347.75c0-13.92-16.92-25.14-37.8-25.14s-37.74,11.22-37.74,25.14S157.62,373,178.5,373,216.3,361.67,216.3,347.75Z"/><text class="cls-4" transform="translate(144.36 349.49)">ma<tspan class="cls-5" x="10.41" y="0">n</tspan><tspan x="14.81" y="0">a</tspan><tspan class="cls-5" x="18.82" y="0">g</tspan><tspan class="cls-6" x="23.22" y="0">e</tspan><tspan class="cls-10" x="27.23" y="0"> </tspan><tspan x="29.21" y="0">ress</tspan><tspan class="cls-5" x="44.03" y="0">ou</tspan><tspan class="cls-12" x="52.84" y="0">rces</tspan></text><line class="cls-3" x1="216.36" y1="519.89" x2="221.4" y2="519.89"/><line class="cls-3" x1="224.28" y1="519.89" x2="229.32" y2="519.89"/><line class="cls-3" x1="232.2" y1="519.89" x2="237.24" y2="519.89"/><line class="cls-3" x1="240.12" y1="519.89" x2="245.16" y2="519.89"/><line class="cls-3" x1="248.04" y1="519.89" x2="253.08" y2="519.89"/><line class="cls-3" x1="255.96" y1="519.89" x2="261" y2="519.89"/><line class="cls-3" x1="263.88" y1="519.89" x2="268.92" y2="519.89"/><line class="cls-3" x1="271.8" y1="519.89" x2="276.84" y2="519.89"/><line class="cls-3" x1="279.72" y1="519.89" x2="284.76" y2="519.89"/><line class="cls-3" x1="287.64" y1="519.89" x2="292.68" y2="519.89"/><line class="cls-3" x1="295.56" y1="519.89" x2="299.16" y2="519.89"/><line class="cls-3" x1="216.36" y1="519.89" x2="227.16" y2="515.57"/><line class="cls-3" x1="216.36" y1="519.89" x2="227.16" y2="524.21"/><line class="cls-3" x1="63.72" y1="313.25" x2="140.76" y2="336.29"/><line class="cls-3" x1="56.52" y1="339.89" x2="160.92" y2="494.69"/><line class="cls-3" x1="63.72" y1="295.97" x2="140.76" y2="273.65"/><line class="cls-3" x1="63.72" y1="283.01" x2="142.2" y2="227.57"/><line class="cls-3" x1="56.52" y1="269.33" x2="160.92" y2="110.21"/><line class="cls-3" x1="216.36" y1="263.57" x2="221.4" y2="263.57"/><line class="cls-3" x1="224.28" y1="263.57" x2="229.32" y2="263.57"/><line class="cls-3" x1="232.2" y1="263.57" x2="237.24" y2="263.57"/><line class="cls-3" x1="240.12" y1="263.57" x2="245.16" y2="263.57"/><line class="cls-3" x1="248.04" y1="263.57" x2="253.08" y2="263.57"/><line class="cls-3" x1="255.96" y1="263.57" x2="261" y2="263.57"/><line class="cls-3" x1="263.88" y1="263.57" x2="268.92" y2="263.57"/><line class="cls-3" x1="271.8" y1="263.57" x2="276.84" y2="263.57"/><line class="cls-3" x1="279.72" y1="263.57" x2="284.76" y2="263.57"/><line class="cls-3" x1="287.64" y1="263.57" x2="292.68" y2="263.57"/><line class="cls-3" x1="295.56" y1="263.57" x2="299.16" y2="263.57"/><line class="cls-3" x1="216.36" y1="263.57" x2="227.16" y2="259.25"/><line class="cls-3" x1="216.36" y1="263.57" x2="227.16" y2="267.89"/><line class="cls-3" x1="299.16" y1="338.45" x2="294.12" y2="338.45"/><line class="cls-3" x1="291.24" y1="338.45" x2="286.2" y2="339.17"/><line class="cls-3" x1="283.32" y1="339.17" x2="278.28" y2="339.89"/><line class="cls-3" x1="275.4" y1="339.89" x2="270.36" y2="340.61"/><line class="cls-3" x1="267.48" y1="340.61" x2="262.44" y2="340.61"/><line class="cls-3" x1="259.56" y1="341.33" x2="254.52" y2="341.33"/><line class="cls-3" x1="251.64" y1="342.05" x2="246.6" y2="342.05"/><line class="cls-3" x1="243.72" y1="342.77" x2="238.68" y2="342.77"/><line class="cls-3" x1="235.8" y1="342.77" x2="230.76" y2="343.49"/><line class="cls-3" x1="227.88" y1="343.49" x2="222.84" y2="344.21"/><line class="cls-3" x1="219.96" y1="344.21" x2="216.36" y2="344.93"/><line class="cls-3" x1="299.16" y1="338.45" x2="289.08" y2="343.49"/><line class="cls-3" x1="299.16" y1="338.45" x2="288.36" y2="334.85"/><line class="cls-3" x1="299.16" y1="393.89" x2="294.12" y2="392.45"/><line class="cls-3" x1="291.24" y1="391.01" x2="286.2" y2="389.57"/><line class="cls-3" x1="283.32" y1="388.13" x2="278.28" y2="385.97"/><line class="cls-3" x1="275.4" y1="385.25" x2="270.36" y2="383.09"/><line class="cls-3" x1="267.48" y1="382.37" x2="262.44" y2="380.21"/><line class="cls-3" x1="259.56" y1="378.77" x2="254.52" y2="377.33"/><line class="cls-3" x1="251.64" y1="375.89" x2="246.6" y2="374.45"/><line class="cls-3" x1="243.72" y1="373.01" x2="238.68" y2="370.85"/><line class="cls-3" x1="235.8" y1="370.13" x2="230.76" y2="367.97"/><line class="cls-3" x1="227.88" y1="367.25" x2="222.84" y2="365.09"/><line class="cls-3" x1="219.96" y1="363.65" x2="216.36" y2="362.21"/><line class="cls-3" x1="299.16" y1="393.89" x2="287.64" y2="393.89"/><line class="cls-3" x1="299.16" y1="393.89" x2="290.52" y2="385.97"/><line class="cls-3" x1="434.52" y1="167.81" x2="429.48" y2="172.13"/><line class="cls-3" x1="426.6" y1="175.01" x2="421.56" y2="180.05"/><line class="cls-3" x1="418.68" y1="182.93" x2="413.64" y2="187.97"/><line class="cls-3" x1="410.76" y1="190.85" x2="405.72" y2="195.89"/><line class="cls-3" x1="402.84" y1="198.77" x2="397.8" y2="203.09"/><line class="cls-3" x1="394.92" y1="205.97" x2="389.88" y2="211.01"/><line class="cls-3" x1="387" y1="213.89" x2="381.96" y2="218.93"/><line class="cls-3" x1="379.08" y1="221.81" x2="374.04" y2="226.85"/><line class="cls-3" x1="371.16" y1="229.73" x2="366.12" y2="234.77"/><line class="cls-3" x1="363.24" y1="237.65" x2="361.8" y2="239.09"/><line class="cls-3" x1="434.52" y1="167.81" x2="429.48" y2="178.61"/><line class="cls-3" x1="434.52" y1="167.81" x2="423.72" y2="172.13"/><line class="cls-3" x1="423" y1="226.13" x2="417.96" y2="228.29"/><line class="cls-3" x1="415.08" y1="229.01" x2="410.04" y2="231.17"/><line class="cls-3" x1="407.16" y1="232.61" x2="402.12" y2="234.77"/><line class="cls-3" x1="399.24" y1="236.21" x2="394.2" y2="238.37"/><line class="cls-3" x1="391.32" y1="239.81" x2="386.28" y2="241.97"/><line class="cls-3" x1="383.4" y1="242.69" x2="378.36" y2="244.85"/><line class="cls-3" x1="375.48" y1="246.29" x2="374.76" y2="247.01"/><line class="cls-3" x1="423" y1="226.13" x2="415.08" y2="234.05"/><line class="cls-3" x1="423" y1="226.13" x2="411.48" y2="226.13"/><line class="cls-3" x1="423" y1="270.05" x2="417.96" y2="270.05"/><line class="cls-3" x1="415.08" y1="270.05" x2="410.04" y2="269.33"/><line class="cls-3" x1="407.16" y1="269.33" x2="402.12" y2="268.61"/><line class="cls-3" x1="399.24" y1="268.61" x2="394.2" y2="268.61"/><line class="cls-3" x1="391.32" y1="267.89" x2="386.28" y2="267.89"/><line class="cls-3" x1="383.4" y1="267.17" x2="378.36" y2="267.17"/><line class="cls-3" x1="375.48" y1="267.17" x2="374.76" y2="266.45"/><line class="cls-3" x1="423" y1="270.05" x2="412.2" y2="273.65"/><line class="cls-3" x1="423" y1="270.05" x2="412.2" y2="265.01"/><line class="cls-3" x1="423" y1="317.57" x2="417.96" y2="314.69"/><line class="cls-3" x1="415.08" y1="313.25" x2="410.04" y2="309.65"/><line class="cls-3" x1="407.16" y1="308.21" x2="402.12" y2="304.61"/><line class="cls-3" x1="399.24" y1="303.17" x2="394.2" y2="299.57"/><line class="cls-3" x1="391.32" y1="298.13" x2="386.28" y2="295.25"/><line class="cls-3" x1="383.4" y1="293.09" x2="378.36" y2="290.21"/><line class="cls-3" x1="375.48" y1="288.05" x2="374.76" y2="287.33"/><line class="cls-3" x1="423" y1="317.57" x2="411.48" y2="315.41"/><line class="cls-3" x1="423" y1="317.57" x2="415.8" y2="308.21"/><line class="cls-3" x1="299.16" y1="50.45" x2="294.12" y2="51.89"/><line class="cls-3" x1="291.24" y1="52.61" x2="286.2" y2="54.05"/><line class="cls-3" x1="283.32" y1="54.77" x2="278.28" y2="56.21"/><line class="cls-3" x1="275.4" y1="56.93" x2="270.36" y2="58.37"/><line class="cls-3" x1="267.48" y1="59.09" x2="262.44" y2="60.53"/><line class="cls-3" x1="259.56" y1="61.25" x2="254.52" y2="62.69"/><line class="cls-3" x1="251.64" y1="63.41" x2="246.6" y2="64.85"/><line class="cls-3" x1="243.72" y1="66.29" x2="238.68" y2="67.73"/><line class="cls-3" x1="235.8" y1="68.45" x2="230.76" y2="69.89"/><line class="cls-3" x1="227.88" y1="70.61" x2="222.84" y2="72.05"/><line class="cls-3" x1="219.96" y1="72.77" x2="216.36" y2="74.21"/><line class="cls-3" x1="299.16" y1="50.45" x2="289.8" y2="57.65"/><line class="cls-3" x1="299.16" y1="50.45" x2="287.64" y2="49.01"/><line class="cls-3" x1="299.16" y1="121.01" x2="294.12" y2="119.57"/><line class="cls-3" x1="291.24" y1="118.85" x2="286.2" y2="117.41"/><line class="cls-3" x1="283.32" y1="116.69" x2="278.28" y2="115.25"/><line class="cls-3" x1="275.4" y1="113.81" x2="270.36" y2="112.37"/><line class="cls-3" x1="267.48" y1="111.65" x2="262.44" y2="110.21"/><line class="cls-3" x1="259.56" y1="109.49" x2="254.52" y2="108.05"/><line class="cls-3" x1="251.64" y1="106.61" x2="246.6" y2="105.17"/><line class="cls-3" x1="243.72" y1="104.45" x2="238.68" y2="103.01"/><line class="cls-3" x1="235.8" y1="102.29" x2="230.76" y2="100.85"/><line class="cls-3" x1="227.88" y1="99.41" x2="222.84" y2="97.97"/><line class="cls-3" x1="219.96" y1="97.25" x2="216.36" y2="95.81"/><line class="cls-3" x1="299.16" y1="121.01" x2="287.64" y2="121.73"/><line class="cls-3" x1="299.16" y1="121.01" x2="289.8" y2="113.81"/><rect class="cls-22" x="383.4" y="304.61" width="31.02" height="8.04"/><text class="cls-23" transform="translate(383.4 311.03)"><tspan class="cls-24">«in</tspan><tspan class="cls-18" x="9.63" y="0">c</tspan><tspan class="cls-13" x="13.24" y="0">lude</tspan><tspan x="26.89" y="0">»</tspan></text><rect class="cls-22" x="383.4" y="238.37" width="31.02" height="8.04"/><text class="cls-23" transform="translate(383.4 244.79)"><tspan class="cls-24">«in</tspan><tspan class="cls-18" x="9.63" y="0">c</tspan><tspan class="cls-13" x="13.24" y="0">lude</tspan><tspan x="26.89" y="0">»</tspan></text><rect class="cls-22" x="382.68" y="205.25" width="31.02" height="8.04"/><text class="cls-23" transform="translate(382.68 211.67)"><tspan class="cls-24">«in</tspan><tspan class="cls-18" x="9.63" y="0">c</tspan><tspan class="cls-13" x="13.24" y="0">lude</tspan><tspan x="26.89" y="0">»</tspan></text><rect class="cls-22" x="242.28" y="380.21" width="31.02" height="8.04"/><text class="cls-25" transform="translate(242.28 386.63)">«in<tspan class="cls-20" x="9.63" y="0">c</tspan><tspan x="13.24" y="0">lude</tspan><tspan class="cls-12" x="26.89" y="0">»</tspan></text><rect class="cls-22" x="242.28" y="64.13" width="31.02" height="8.04"/><text class="cls-25" transform="translate(242.28 70.55)">«in<tspan class="cls-20" x="9.63" y="0">c</tspan><tspan x="13.24" y="0">lude</tspan><tspan class="cls-12" x="26.89" y="0">»</tspan></text><rect class="cls-22" x="242.28" y="265.73" width="29.7" height="8.04"/><text class="cls-25" transform="translate(242.28 272.15)">«e<tspan class="cls-26" x="8.02" y="0">x</tspan><tspan class="cls-13" x="11.57" y="0">tend</tspan><tspan class="cls-12" x="25.61" y="0">»</tspan></text><rect class="cls-22" x="242.28" y="343.49" width="31.02" height="8.04"/><text class="cls-25" transform="translate(242.28 349.91)">«in<tspan class="cls-20" x="9.63" y="0">c</tspan><tspan x="13.24" y="0">lude</tspan><tspan class="cls-12" x="26.89" y="0">»</tspan></text><rect class="cls-22" x="242.28" y="110.21" width="31.02" height="8.04"/><text class="cls-25" transform="translate(242.28 116.63)">«in<tspan class="cls-20" x="9.63" y="0">c</tspan><tspan x="13.24" y="0">lude</tspan><tspan class="cls-12" x="26.89" y="0">»</tspan></text><rect class="cls-22" x="242.28" y="522.05" width="29.7" height="8.04"/><text class="cls-25" transform="translate(242.28 528.47)">«e<tspan class="cls-26" x="8.02" y="0">x</tspan><tspan class="cls-13" x="11.57" y="0">tend</tspan><tspan class="cls-12" x="25.61" y="0">»</tspan></text><rect class="cls-22" x="383.4" y="270.05" width="31.02" height="8.04"/><text class="cls-23" transform="translate(383.4 276.47)"><tspan class="cls-24">«in</tspan><tspan class="cls-18" x="9.63" y="0">c</tspan><tspan class="cls-13" x="13.24" y="0">lude</tspan><tspan x="26.89" y="0">»</tspan></text></svg>