<svg id="Ebene_1" data-name="Ebene 1" xmlns="http://www.w3.org/2000/svg" xmlns:xlink="http://www.w3.org/1999/xlink" viewBox="0 0 595.28 841.89"><defs><style>.cls-1,.cls-4,.cls-7{fill:none;}.cls-2{clip-path:url(#clip-path);}.cls-3{clip-path:url(#clip-path-2);}.cls-4,.cls-7{stroke:#000;stroke-linecap:round;stroke-linejoin:round;}.cls-4{stroke-width:0.06px;}.cls-5{fill:#dfdfdf;}.cls-12,.cls-26,.cls-5,.cls-6{fill-rule:evenodd;}.cls-6{fill:#f8e2c2;}.cls-7{stroke-width:0.72px;}.cls-25,.cls-28,.cls-8{font-size:7.2px;}.cls-25,.cls-8{font-family:Arial-BoldMT, Arial;font-weight:700;}.cls-9{letter-spacing:0em;}.cls-10{letter-spacing:0em;}.cls-11{letter-spacing:0em;}.cls-12{fill:#e5f2fc;}.cls-13{letter-spacing:0em;}.cls-14{letter-spacing:0em;}.cls-15{letter-spacing:0.02em;}.cls-16{letter-spacing:0em;}.cls-17{letter-spacing:0em;}.cls-18{letter-spacing:0em;}.cls-19{letter-spacing:-0.02em;}.cls-20,.cls-25{letter-spacing:0em;}.cls-21{letter-spacing:-0.02em;}.cls-22{letter-spacing:0em;}.cls-23{letter-spacing:0em;}.cls-24{letter-spacing:0em;}.cls-26{fill:#fcf2e3;}.cls-27{fill:#fff;}.cls-28{font-family:ArialMT, Arial;}.cls-29{letter-spacing:-0.01em;}.cls-30{clip-path:url(#clip-path-3);}</style><clipPath id="clip-path"><rect class="cls-1" x="0.03" y="-0.06" width="595.22" height="842"/></clipPath><clipPath id="clip-path-2"><rect class="cls-1" x="0.03" y="-0.04" width="595.02" height="841.66"/></clipPath><clipPath id="clip-path-3"><rect class="cls-1" x="0.03" y="841.62" width="595.02" height="0.06"/></clipPath></defs><g class="cls-2"><g class="cls-3"><rect class="cls-4" x="0.03" y="-0.06" width="595.38" height="841.62"/></g><path class="cls-5" d="M69.75,319.56a7.89,7.89,0,1,0-7.86,7.86,7.9,7.9,0,0,0,7.86-7.86"/><path class="cls-6" d="M68.37,318.12A7.89,7.89,0,1,0,60.45,326,7.86,7.86,0,0,0,68.37,318.12Z"/><path class="cls-7" d="M68.37,318.12A7.89,7.89,0,1,0,60.45,326,7.86,7.86,0,0,0,68.37,318.12Z"/><path class="cls-7" d="M68.37,318.12A7.89,7.89,0,1,0,60.45,326,7.86,7.86,0,0,0,68.37,318.12Z"/><line class="cls-7" x1="60.51" y1="326.1" x2="60.51" y2="341.22"/><line class="cls-7" x1="49.71" y1="329.7" x2="60.51" y2="329.7"/><line class="cls-7" x1="71.31" y1="329.7" x2="60.51" y2="329.7"/><line class="cls-7" x1="60.51" y1="341.22" x2="69.15" y2="356.34"/><line class="cls-7" x1="60.51" y1="341.22" x2="51.87" y2="356.34"/><text class="cls-8" transform="translate(32.43 363.06)">ma<tspan class="cls-9" x="10.41" y="0">n</tspan><tspan x="14.81" y="0">a</tspan><tspan class="cls-9" x="18.82" y="0">g</tspan><tspan class="cls-10" x="23.22" y="0">er</tspan><tspan class="cls-11" x="30.03" y="0"> </tspan><tspan x="32.01" y="0">(</tspan><tspan class="cls-9" x="34.41" y="0">Lu</tspan><tspan x="43.22" y="0">kas)</tspan></text><path class="cls-5" d="M403.11,170.52c0-13.92-16.92-25.2-37.74-25.2s-37.8,11.28-37.8,25.2,16.92,25.14,37.8,25.14,37.74-11.28,37.74-25.14"/><path class="cls-12" d="M401.73,169.08c0-13.92-16.92-25.14-37.8-25.14s-37.74,11.22-37.74,25.14,16.86,25.2,37.74,25.2S401.73,183,401.73,169.08Z"/><path class="cls-7" d="M401.73,169.08c0-13.92-16.92-25.14-37.8-25.14s-37.74,11.22-37.74,25.14,16.86,25.2,37.74,25.2S401.73,183,401.73,169.08Z"/><path class="cls-7" d="M401.73,169.08c0-13.92-16.92-25.14-37.8-25.14s-37.74,11.22-37.74,25.14,16.86,25.2,37.74,25.2S401.73,183,401.73,169.08Z"/><text class="cls-8" transform="translate(337.71 170.82)">read<tspan class="cls-11" x="15.21" y="0"> </tspan><tspan x="17.19" y="0">from</tspan><tspan class="cls-11" x="33.19" y="0"> </tspan><tspan class="cls-13" x="35.18" y="0">topic</tspan></text><path class="cls-5" d="M244.71,123c0-13.92-16.92-25.2-37.74-25.2s-37.8,11.28-37.8,25.2,16.92,25.14,37.8,25.14,37.74-11.28,37.74-25.14"/><path class="cls-12" d="M243.33,121.56c0-13.92-16.92-25.14-37.8-25.14s-37.74,11.22-37.74,25.14,16.86,25.2,37.74,25.2S243.33,135.48,243.33,121.56Z"/><path class="cls-7" d="M243.33,121.56c0-13.92-16.92-25.14-37.8-25.14s-37.74,11.22-37.74,25.14,16.86,25.2,37.74,25.2S243.33,135.48,243.33,121.56Z"/><path class="cls-7" d="M243.33,121.56c0-13.92-16.92-25.14-37.8-25.14s-37.74,11.22-37.74,25.14,16.86,25.2,37.74,25.2S243.33,135.48,243.33,121.56Z"/><text class="cls-8" transform="translate(172.83 118.98)">communicate<tspan class="cls-14" x="46.41" y="0"> </tspan><tspan class="cls-15" x="48.4" y="0">w</tspan><tspan class="cls-11" x="54.16" y="0">i</tspan><tspan x="56.14" y="0">th </tspan></text><text class="cls-8" transform="translate(194.43 128.34)">broker</text><path class="cls-5" d="M244.71,245.4c0-13.92-16.92-25.2-37.74-25.2s-37.8,11.28-37.8,25.2,16.92,25.14,37.8,25.14,37.74-11.28,37.74-25.14"/><path class="cls-12" d="M243.33,244c0-13.92-16.92-25.14-37.8-25.14S167.79,230,167.79,244s16.86,25.2,37.74,25.2S243.33,257.88,243.33,244Z"/><path class="cls-7" d="M243.33,244c0-13.92-16.92-25.14-37.8-25.14S167.79,230,167.79,244s16.86,25.2,37.74,25.2S243.33,257.88,243.33,244Z"/><path class="cls-7" d="M243.33,244c0-13.92-16.92-25.14-37.8-25.14S167.79,230,167.79,244s16.86,25.2,37.74,25.2S243.33,257.88,243.33,244Z"/><text class="cls-8" transform="translate(174.27 245.7)">calculate<tspan class="cls-11" x="30.82" y="0"> </tspan><tspan class="cls-16" x="32.8" y="0">distance</tspan></text><path class="cls-5" d="M244.71,314.52c0-13.92-16.92-25.2-37.74-25.2s-37.8,11.28-37.8,25.2,16.92,25.14,37.8,25.14,37.74-11.28,37.74-25.14"/><path class="cls-12" d="M243.33,313.08c0-13.92-16.92-25.14-37.8-25.14s-37.74,11.22-37.74,25.14,16.86,25.2,37.74,25.2S243.33,327,243.33,313.08Z"/><path class="cls-7" d="M243.33,313.08c0-13.92-16.92-25.14-37.8-25.14s-37.74,11.22-37.74,25.14,16.86,25.2,37.74,25.2S243.33,327,243.33,313.08Z"/><path class="cls-7" d="M243.33,313.08c0-13.92-16.92-25.14-37.8-25.14s-37.74,11.22-37.74,25.14,16.86,25.2,37.74,25.2S243.33,327,243.33,313.08Z"/><text class="cls-8" transform="translate(182.91 310.5)">create<tspan class="cls-11" x="21.22" y="0"> </tspan><tspan x="23.2" y="0">list</tspan><tspan class="cls-11" x="33.61" y="0"> </tspan><tspan x="35.59" y="0">of </tspan></text><text class="cls-8" transform="translate(185.79 319.86)"><tspan class="cls-9">ressource</tspan><tspan x="34.49" y="0">s</tspan></text><path class="cls-5" d="M403.11,374.28c0-13.92-16.92-25.2-37.74-25.2s-37.8,11.28-37.8,25.2,16.92,25.14,37.8,25.14,37.74-11.28,37.74-25.14"/><path class="cls-12" d="M401.73,372.84c0-13.92-16.92-25.14-37.8-25.14s-37.74,11.22-37.74,25.14S343.05,398,363.93,398,401.73,386.76,401.73,372.84Z"/><path class="cls-7" d="M401.73,372.84c0-13.92-16.92-25.14-37.8-25.14s-37.74,11.22-37.74,25.14S343.05,398,363.93,398,401.73,386.76,401.73,372.84Z"/><path class="cls-7" d="M401.73,372.84c0-13.92-16.92-25.14-37.8-25.14s-37.74,11.22-37.74,25.14S343.05,398,363.93,398,401.73,386.76,401.73,372.84Z"/><text class="cls-8" transform="translate(335.55 370.26)"><tspan class="cls-17">make</tspan><tspan class="cls-18" x="18.44" y="0"> </tspan><tspan class="cls-17" x="20.43" y="0">ressource</tspan><tspan x="54.92" y="0"> </tspan></text><text class="cls-8" transform="translate(351.39 379.62)">a<tspan class="cls-19" x="4" y="0">v</tspan><tspan x="7.85" y="0">iable</tspan></text><path class="cls-5" d="M403.11,447c0-13.92-16.92-25.2-37.74-25.2s-37.8,11.28-37.8,25.2,16.92,25.14,37.8,25.14,37.74-11.28,37.74-25.14"/><path class="cls-12" d="M401.73,445.56c0-13.92-16.92-25.14-37.8-25.14s-37.74,11.22-37.74,25.14,16.86,25.2,37.74,25.2S401.73,459.48,401.73,445.56Z"/><path class="cls-7" d="M401.73,445.56c0-13.92-16.92-25.14-37.8-25.14s-37.74,11.22-37.74,25.14,16.86,25.2,37.74,25.2S401.73,459.48,401.73,445.56Z"/><path class="cls-7" d="M401.73,445.56c0-13.92-16.92-25.14-37.8-25.14s-37.74,11.22-37.74,25.14,16.86,25.2,37.74,25.2S401.73,459.48,401.73,445.56Z"/><text class="cls-8" transform="translate(335.55 442.98)"><tspan class="cls-17">make</tspan><tspan class="cls-18" x="18.44" y="0"> </tspan><tspan class="cls-17" x="20.43" y="0">ressource</tspan><tspan x="54.92" y="0"> </tspan></text><text class="cls-8" transform="translate(347.07 452.34)"><tspan class="cls-20">un</tspan><tspan class="cls-18" x="8.78" y="0">a</tspan><tspan class="cls-21" x="12.77" y="0">v</tspan><tspan class="cls-22" x="16.62" y="0">a</tspan><tspan class="cls-23" x="20.64" y="0">ibl</tspan><tspan x="29.01" y="0">e</tspan></text><path class="cls-5" d="M403.11,557.88c0-13.92-16.92-25.2-37.74-25.2s-37.8,11.28-37.8,25.2S344.49,583,365.37,583s37.74-11.28,37.74-25.14"/><path class="cls-12" d="M401.73,556.44c0-13.92-16.92-25.14-37.8-25.14s-37.74,11.22-37.74,25.14,16.86,25.2,37.74,25.2S401.73,570.36,401.73,556.44Z"/><path class="cls-7" d="M401.73,556.44c0-13.92-16.92-25.14-37.8-25.14s-37.74,11.22-37.74,25.14,16.86,25.2,37.74,25.2S401.73,570.36,401.73,556.44Z"/><path class="cls-7" d="M401.73,556.44c0-13.92-16.92-25.14-37.8-25.14s-37.74,11.22-37.74,25.14,16.86,25.2,37.74,25.2S401.73,570.36,401.73,556.44Z"/><text class="cls-8" transform="translate(329.79 558.18)">se<tspan class="cls-17" x="8.01" y="0">nd</tspan><tspan class="cls-11" x="16.82" y="0"> </tspan><tspan class="cls-13" x="18.8" y="0">err</tspan><tspan class="cls-17" x="28.41" y="0">o</tspan><tspan x="32.82" y="0">r</tspan><tspan class="cls-18" x="35.62" y="0"> </tspan><tspan x="37.61" y="0">messa</tspan><tspan class="cls-17" x="60.03" y="0">g</tspan><tspan x="64.43" y="0">e</tspan></text><path class="cls-5" d="M244.71,557.88c0-13.92-16.92-25.2-37.74-25.2s-37.8,11.28-37.8,25.2S186.09,583,207,583s37.74-11.28,37.74-25.14"/><path class="cls-12" d="M243.33,556.44c0-13.92-16.92-25.14-37.8-25.14s-37.74,11.22-37.74,25.14,16.86,25.2,37.74,25.2S243.33,570.36,243.33,556.44Z"/><path class="cls-7" d="M243.33,556.44c0-13.92-16.92-25.14-37.8-25.14s-37.74,11.22-37.74,25.14,16.86,25.2,37.74,25.2S243.33,570.36,243.33,556.44Z"/><path class="cls-7" d="M243.33,556.44c0-13.92-16.92-25.14-37.8-25.14s-37.74,11.22-37.74,25.14,16.86,25.2,37.74,25.2S243.33,570.36,243.33,556.44Z"/><text class="cls-8" transform="translate(182.19 553.86)">detect<tspan class="cls-14" x="21.21" y="0"> </tspan><tspan class="cls-15" x="23.19" y="0">w</tspan><tspan class="cls-24" x="28.95" y="0">r</tspan><tspan class="cls-16" x="31.77" y="0">ong </tspan></text><text class="cls-8" transform="translate(187.95 563.22)"><tspan class="cls-9">message</tspan><tspan x="30.87" y="0">s</tspan></text><path class="cls-5" d="M403.11,78.36c0-13.92-16.92-25.2-37.74-25.2s-37.8,11.28-37.8,25.2,16.92,25.14,37.8,25.14,37.74-11.28,37.74-25.14"/><path class="cls-12" d="M401.73,76.92c0-13.92-16.92-25.14-37.8-25.14S326.19,63,326.19,76.92s16.86,25.2,37.74,25.2S401.73,90.84,401.73,76.92Z"/><path class="cls-7" d="M401.73,76.92c0-13.92-16.92-25.14-37.8-25.14S326.19,63,326.19,76.92s16.86,25.2,37.74,25.2S401.73,90.84,401.73,76.92Z"/><path class="cls-7" d="M401.73,76.92c0-13.92-16.92-25.14-37.8-25.14S326.19,63,326.19,76.92s16.86,25.2,37.74,25.2S401.73,90.84,401.73,76.92Z"/><text class="cls-25" transform="translate(336.99 78.66)">publi<tspan class="cls-11" x="17.16" y="0">s</tspan><tspan class="cls-23" x="21.15" y="0">h</tspan><tspan class="cls-11" x="25.54" y="0"> </tspan><tspan class="cls-23" x="27.53" y="0">to</tspan><tspan class="cls-18" x="34.31" y="0"> </tspan><tspan class="cls-23" x="36.29" y="0">topi</tspan><tspan class="cls-13" x="49.46" y="0">c</tspan></text><path class="cls-5" d="M403.11,302.28c0-13.92-16.92-25.2-37.74-25.2s-37.8,11.28-37.8,25.2,16.92,25.14,37.8,25.14,37.74-11.28,37.74-25.14"/><path class="cls-12" d="M401.73,300.84c0-13.92-16.92-25.14-37.8-25.14s-37.74,11.22-37.74,25.14S343.05,326,363.93,326,401.73,314.76,401.73,300.84Z"/><path class="cls-7" d="M401.73,300.84c0-13.92-16.92-25.14-37.8-25.14s-37.74,11.22-37.74,25.14S343.05,326,363.93,326,401.73,314.76,401.73,300.84Z"/><path class="cls-7" d="M401.73,300.84c0-13.92-16.92-25.14-37.8-25.14s-37.74,11.22-37.74,25.14S343.05,326,363.93,326,401.73,314.76,401.73,300.84Z"/><text class="cls-8" transform="translate(331.95 302.58)">register<tspan class="cls-11" x="26.41" y="0"> </tspan><tspan x="28.4" y="0">ne</tspan><tspan class="cls-15" x="36.8" y="0">w</tspan><tspan class="cls-18" x="42.56" y="0"> </tspan><tspan x="44.55" y="0">entity</tspan></text><path class="cls-5" d="M527,248.28c0-13.92-16.92-25.2-37.74-25.2s-37.8,11.28-37.8,25.2,16.92,25.14,37.8,25.14S527,262.14,527,248.28"/><path class="cls-12" d="M525.57,246.84c0-13.92-16.92-25.14-37.8-25.14S450,232.92,450,246.84,466.89,272,487.77,272,525.57,260.76,525.57,246.84Z"/><path class="cls-7" d="M525.57,246.84c0-13.92-16.92-25.14-37.8-25.14S450,232.92,450,246.84,466.89,272,487.77,272,525.57,260.76,525.57,246.84Z"/><path class="cls-7" d="M525.57,246.84c0-13.92-16.92-25.14-37.8-25.14S450,232.92,450,246.84,466.89,272,487.77,272,525.57,260.76,525.57,246.84Z"/><text class="cls-8" transform="translate(456.51 248.58)">register<tspan class="cls-11" x="26.41" y="0"> </tspan><tspan class="cls-13" x="28.4" y="0">firefighter</tspan></text><path class="cls-5" d="M527,379.32c0-13.92-16.92-25.2-37.74-25.2s-37.8,11.28-37.8,25.2,16.92,25.14,37.8,25.14S527,393.18,527,379.32"/><path class="cls-12" d="M525.57,377.88c0-13.92-16.92-25.14-37.8-25.14S450,364,450,377.88s16.86,25.2,37.74,25.2S525.57,391.8,525.57,377.88Z"/><path class="cls-7" d="M525.57,377.88c0-13.92-16.92-25.14-37.8-25.14S450,364,450,377.88s16.86,25.2,37.74,25.2S525.57,391.8,525.57,377.88Z"/><path class="cls-7" d="M525.57,377.88c0-13.92-16.92-25.14-37.8-25.14S450,364,450,377.88s16.86,25.2,37.74,25.2S525.57,391.8,525.57,377.88Z"/><text class="cls-8" transform="translate(454.35 379.62)">register<tspan class="cls-11" x="26.41" y="0"> </tspan><tspan class="cls-13" x="28.4" y="0">ambulance</tspan></text><path class="cls-5" d="M527,180.6c0-13.92-16.92-25.2-37.74-25.2s-37.8,11.28-37.8,25.2,16.92,25.14,37.8,25.14S527,194.46,527,180.6"/><path class="cls-12" d="M525.57,179.16c0-13.92-16.92-25.14-37.8-25.14S450,165.24,450,179.16s16.86,25.2,37.74,25.2S525.57,193.08,525.57,179.16Z"/><path class="cls-7" d="M525.57,179.16c0-13.92-16.92-25.14-37.8-25.14S450,165.24,450,179.16s16.86,25.2,37.74,25.2S525.57,193.08,525.57,179.16Z"/><path class="cls-7" d="M525.57,179.16c0-13.92-16.92-25.14-37.8-25.14S450,165.24,450,179.16s16.86,25.2,37.74,25.2S525.57,193.08,525.57,179.16Z"/><text class="cls-8" transform="translate(462.99 180.9)">register<tspan class="cls-11" x="26.41" y="0"> </tspan><tspan x="28.4" y="0">police</tspan></text><path class="cls-5" d="M527,310.92c0-13.92-16.92-25.2-37.74-25.2s-37.8,11.28-37.8,25.2,16.92,25.14,37.8,25.14S527,324.78,527,310.92"/><path class="cls-12" d="M525.57,309.48c0-13.92-16.92-25.14-37.8-25.14S450,295.56,450,309.48s16.86,25.2,37.74,25.2S525.57,323.4,525.57,309.48Z"/><path class="cls-7" d="M525.57,309.48c0-13.92-16.92-25.14-37.8-25.14S450,295.56,450,309.48s16.86,25.2,37.74,25.2S525.57,323.4,525.57,309.48Z"/><path class="cls-7" d="M525.57,309.48c0-13.92-16.92-25.14-37.8-25.14S450,295.56,450,309.48s16.86,25.2,37.74,25.2S525.57,323.4,525.57,309.48Z"/><text class="cls-8" transform="translate(459.39 311.22)">register<tspan class="cls-11" x="26.41" y="0"> </tspan><tspan x="28.4" y="0">hospital</tspan></text><path class="cls-5" d="M244.71,385.8c0-13.92-16.92-25.2-37.74-25.2s-37.8,11.28-37.8,25.2,16.92,25.14,37.8,25.14,37.74-11.28,37.74-25.14"/><path class="cls-12" d="M243.33,384.36c0-13.92-16.92-25.14-37.8-25.14s-37.74,11.22-37.74,25.14,16.86,25.2,37.74,25.2S243.33,398.28,243.33,384.36Z"/><path class="cls-7" d="M243.33,384.36c0-13.92-16.92-25.14-37.8-25.14s-37.74,11.22-37.74,25.14,16.86,25.2,37.74,25.2S243.33,398.28,243.33,384.36Z"/><path class="cls-7" d="M243.33,384.36c0-13.92-16.92-25.14-37.8-25.14s-37.74,11.22-37.74,25.14,16.86,25.2,37.74,25.2S243.33,398.28,243.33,384.36Z"/><text class="cls-8" transform="translate(171.39 386.1)">ma<tspan class="cls-9" x="10.41" y="0">n</tspan><tspan x="14.81" y="0">a</tspan><tspan class="cls-9" x="18.82" y="0">g</tspan><tspan class="cls-10" x="23.22" y="0">e</tspan><tspan class="cls-14" x="27.23" y="0"> </tspan><tspan x="29.21" y="0">ress</tspan><tspan class="cls-9" x="44.03" y="0">ou</tspan><tspan class="cls-16" x="52.84" y="0">rces</tspan></text><line class="cls-7" x1="326.19" y1="320.34" x2="243.39" y2="364.26"/><polygon class="cls-26" points="251.31 354.9 255.63 362.82 243.39 364.26 251.31 354.9"/><polygon class="cls-7" points="251.31 354.9 255.63 362.82 243.39 364.26 251.31 354.9"/><line class="cls-7" x1="326.19" y1="430.5" x2="243.39" y2="398.82"/><polygon class="cls-26" points="255.63 398.82 252.75 406.75 243.39 398.82 255.63 398.82"/><polygon class="cls-7" points="255.63 398.82 252.75 406.75 243.39 398.82 255.63 398.82"/><line class="cls-7" x1="326.19" y1="375.06" x2="243.39" y2="381.54"/><polygon class="cls-26" points="254.19 376.5 254.91 385.14 243.39 381.55 254.19 376.5"/><polygon class="cls-7" points="254.19 376.5 254.91 385.14 243.39 381.55 254.19 376.5"/><line class="cls-7" x1="243.39" y1="556.5" x2="248.43" y2="556.5"/><line class="cls-7" x1="251.31" y1="556.5" x2="256.35" y2="556.5"/><line class="cls-7" x1="259.23" y1="556.5" x2="264.27" y2="556.5"/><line class="cls-7" x1="267.15" y1="556.5" x2="272.19" y2="556.5"/><line class="cls-7" x1="275.07" y1="556.5" x2="280.11" y2="556.5"/><line class="cls-7" x1="282.99" y1="556.5" x2="288.03" y2="556.5"/><line class="cls-7" x1="290.91" y1="556.5" x2="295.95" y2="556.5"/><line class="cls-7" x1="298.83" y1="556.5" x2="303.87" y2="556.5"/><line class="cls-7" x1="306.75" y1="556.5" x2="311.79" y2="556.5"/><line class="cls-7" x1="314.67" y1="556.5" x2="319.71" y2="556.5"/><line class="cls-7" x1="322.59" y1="556.5" x2="326.19" y2="556.5"/><line class="cls-7" x1="243.39" y1="556.5" x2="254.19" y2="552.18"/><line class="cls-7" x1="243.39" y1="556.5" x2="254.19" y2="560.82"/><line class="cls-7" x1="450.03" y1="354.18" x2="401.79" y2="323.94"/><polygon class="cls-26" points="414.03 326.11 408.99 334.02 401.79 323.94 414.03 326.11"/><polygon class="cls-7" points="414.03 326.11 408.99 334.02 401.79 323.94 414.03 326.11"/><line class="cls-7" x1="450.03" y1="306.66" x2="401.79" y2="303.06"/><polygon class="cls-26" points="413.31 299.46 413.31 308.11 401.79 303.06 413.31 299.46"/><polygon class="cls-7" points="413.31 299.46 413.31 308.11 401.79 303.06 413.31 299.46"/><line class="cls-7" x1="450.03" y1="262.74" x2="401.79" y2="283.62"/><polygon class="cls-26" points="410.43 274.99 414.03 282.9 401.79 283.63 410.43 274.99"/><polygon class="cls-7" points="410.43 274.99 414.03 282.9 401.79 283.63 410.43 274.99"/><line class="cls-7" x1="461.55" y1="204.42" x2="388.83" y2="275.7"/><polygon class="cls-26" points="393.87 264.9 400.35 270.67 388.83 275.7 393.87 264.9"/><polygon class="cls-7" points="393.87 264.9 400.35 270.67 388.83 275.7 393.87 264.9"/><line class="cls-7" x1="326.19" y1="157.62" x2="243.39" y2="132.42"/><polygon class="cls-26" points="255.63 131.71 253.47 139.63 243.39 132.43 255.63 131.71"/><polygon class="cls-7" points="255.63 131.71 253.47 139.63 243.39 132.43 255.63 131.71"/><line class="cls-7" x1="326.19" y1="87.06" x2="243.39" y2="110.82"/><polygon class="cls-26" points="253.47 103.63 255.63 111.55 243.39 110.83 253.47 103.63"/><polygon class="cls-7" points="253.47 103.63 255.63 111.55 243.39 110.83 253.47 103.63"/><line class="cls-7" x1="83.55" y1="376.5" x2="187.95" y2="531.3"/><line class="cls-7" x1="90.75" y1="334.74" x2="167.79" y2="320.34"/><line class="cls-7" x1="90.75" y1="320.34" x2="167.79" y2="268.5"/><line class="cls-7" x1="83.55" y1="305.94" x2="187.95" y2="146.82"/><line class="cls-7" x1="90.75" y1="349.86" x2="167.79" y2="372.9"/><rect class="cls-27" x="269.31" y="558.66" width="29.7" height="8.04"/><text class="cls-28" transform="translate(269.31 565.08)"><tspan class="cls-9">«e</tspan><tspan class="cls-29" x="8.02" y="0">x</tspan><tspan class="cls-17" x="11.57" y="0">tend</tspan><tspan x="25.61" y="0">»</tspan></text><g class="cls-30"><line class="cls-4" x1="595.47" y1="841.62" x2="0.03" y2="841.62"/></g><line class="cls-4" x1="0.03" y1="841.62" x2="0.03" y2="-0.06"/></g></svg>