<svg id="Ebene_1" data-name="Ebene 1" xmlns="http://www.w3.org/2000/svg" viewBox="0 0 530.98 564.33"><defs><style>.cls-1{fill:#dfdfdf;}.cls-1,.cls-2,.cls-22,.cls-8{fill-rule:evenodd;}.cls-2{fill:#f8e2c2;}.cls-3{fill:none;stroke:#000;stroke-linecap:round;stroke-linejoin:round;stroke-width:0.72px;}.cls-21,.cls-24,.cls-4{font-size:7.2px;}.cls-21,.cls-4{font-family:Arial-BoldMT, Arial;font-weight:700;}.cls-5{letter-spacing:0em;}.cls-6{letter-spacing:0em;}.cls-7{letter-spacing:0em;}.cls-8{fill:#e5f2fc;}.cls-9{letter-spacing:0em;}.cls-10{letter-spacing:0em;}.cls-11{letter-spacing:0.02em;}.cls-12{letter-spacing:0em;}.cls-13{letter-spacing:0em;}.cls-14{letter-spacing:0em;}.cls-15{letter-spacing:-0.02em;}.cls-16,.cls-21{letter-spacing:0em;}.cls-17{letter-spacing:-0.02em;}.cls-18{letter-spacing:0em;}.cls-19{letter-spacing:0em;}.cls-20{letter-spacing:0em;}.cls-22{fill:#fcf2e3;}.cls-23{fill:#fff;}.cls-24{font-family:ArialMT, Arial;}.cls-25{letter-spacing:-0.01em;}</style></defs><path class="cls-1" d="M41.5,280.9a7.89,7.89,0,1,0-7.86,7.86,7.9,7.9,0,0,0,7.86-7.86"/><path class="cls-2" d="M40.12,279.46a7.89,7.89,0,1,0-7.92,7.92A7.86,7.86,0,0,0,40.12,279.46Z"/><path class="cls-3" d="M40.12,279.46a7.89,7.89,0,1,0-7.92,7.92A7.86,7.86,0,0,0,40.12,279.46Z"/><path class="cls-3" d="M40.12,279.46a7.89,7.89,0,1,0-7.92,7.92A7.86,7.86,0,0,0,40.12,279.46Z"/><line class="cls-3" x1="32.26" y1="287.44" x2="32.26" y2="302.56"/><line class="cls-3" x1="21.46" y1="291.04" x2="32.26" y2="291.04"/><line class="cls-3" x1="43.06" y1="291.04" x2="32.26" y2="291.04"/><line class="cls-3" x1="32.26" y1="302.56" x2="40.9" y2="317.68"/><line class="cls-3" x1="32.26" y1="302.56" x2="23.62" y2="317.68"/><text class="cls-4" transform="translate(4.18 324.4)">ma<tspan class="cls-5" x="10.41" y="0">n</tspan><tspan x="14.81" y="0">a</tspan><tspan class="cls-5" x="18.82" y="0">g</tspan><tspan class="cls-6" x="23.22" y="0">er</tspan><tspan class="cls-7" x="30.03" y="0"> </tspan><tspan x="32.01" y="0">(</tspan><tspan class="cls-5" x="34.41" y="0">Lu</tspan><tspan x="43.22" y="0">kas)</tspan></text><path class="cls-1" d="M374.86,131.86c0-13.92-16.92-25.2-37.74-25.2s-37.8,11.28-37.8,25.2S316.24,157,337.12,157s37.74-11.28,37.74-25.14"/><path class="cls-8" d="M373.48,130.42c0-13.92-16.92-25.14-37.8-25.14s-37.74,11.22-37.74,25.14,16.86,25.2,37.74,25.2S373.48,144.34,373.48,130.42Z"/><path class="cls-3" d="M373.48,130.42c0-13.92-16.92-25.14-37.8-25.14s-37.74,11.22-37.74,25.14,16.86,25.2,37.74,25.2S373.48,144.34,373.48,130.42Z"/><path class="cls-3" d="M373.48,130.42c0-13.92-16.92-25.14-37.8-25.14s-37.74,11.22-37.74,25.14,16.86,25.2,37.74,25.2S373.48,144.34,373.48,130.42Z"/><text class="cls-4" transform="translate(309.46 132.16)">read<tspan class="cls-7" x="15.21" y="0"> </tspan><tspan x="17.19" y="0">from</tspan><tspan class="cls-7" x="33.19" y="0"> </tspan><tspan class="cls-9" x="35.18" y="0">topic</tspan></text><path class="cls-1" d="M216.46,84.34c0-13.92-16.92-25.2-37.74-25.2s-37.8,11.28-37.8,25.2,16.92,25.14,37.8,25.14,37.74-11.28,37.74-25.14"/><path class="cls-8" d="M215.08,82.9c0-13.92-16.92-25.14-37.8-25.14S139.54,69,139.54,82.9s16.86,25.2,37.74,25.2S215.08,96.82,215.08,82.9Z"/><path class="cls-3" d="M215.08,82.9c0-13.92-16.92-25.14-37.8-25.14S139.54,69,139.54,82.9s16.86,25.2,37.74,25.2S215.08,96.82,215.08,82.9Z"/><path class="cls-3" d="M215.08,82.9c0-13.92-16.92-25.14-37.8-25.14S139.54,69,139.54,82.9s16.86,25.2,37.74,25.2S215.08,96.82,215.08,82.9Z"/><text class="cls-4" transform="translate(144.58 80.32)">communicate<tspan class="cls-10" x="46.41" y="0"> </tspan><tspan class="cls-11" x="48.4" y="0">w</tspan><tspan class="cls-7" x="54.16" y="0">i</tspan><tspan x="56.14" y="0">th </tspan></text><text class="cls-4" transform="translate(166.18 89.68)">broker</text><path class="cls-1" d="M216.46,206.74c0-13.92-16.92-25.2-37.74-25.2s-37.8,11.28-37.8,25.2,16.92,25.14,37.8,25.14,37.74-11.28,37.74-25.14"/><path class="cls-8" d="M215.08,205.3c0-13.92-16.92-25.14-37.8-25.14s-37.74,11.22-37.74,25.14,16.86,25.2,37.74,25.2S215.08,219.22,215.08,205.3Z"/><path class="cls-3" d="M215.08,205.3c0-13.92-16.92-25.14-37.8-25.14s-37.74,11.22-37.74,25.14,16.86,25.2,37.74,25.2S215.08,219.22,215.08,205.3Z"/><path class="cls-3" d="M215.08,205.3c0-13.92-16.92-25.14-37.8-25.14s-37.74,11.22-37.74,25.14,16.86,25.2,37.74,25.2S215.08,219.22,215.08,205.3Z"/><text class="cls-4" transform="translate(146.02 207.04)">calculate<tspan class="cls-7" x="30.82" y="0"> </tspan><tspan class="cls-12" x="32.8" y="0">distance</tspan></text><path class="cls-1" d="M216.46,275.86c0-13.92-16.92-25.2-37.74-25.2s-37.8,11.28-37.8,25.2S157.84,301,178.72,301s37.74-11.28,37.74-25.14"/><path class="cls-8" d="M215.08,274.42c0-13.92-16.92-25.14-37.8-25.14s-37.74,11.22-37.74,25.14,16.86,25.2,37.74,25.2S215.08,288.34,215.08,274.42Z"/><path class="cls-3" d="M215.08,274.42c0-13.92-16.92-25.14-37.8-25.14s-37.74,11.22-37.74,25.14,16.86,25.2,37.74,25.2S215.08,288.34,215.08,274.42Z"/><path class="cls-3" d="M215.08,274.42c0-13.92-16.92-25.14-37.8-25.14s-37.74,11.22-37.74,25.14,16.86,25.2,37.74,25.2S215.08,288.34,215.08,274.42Z"/><text class="cls-4" transform="translate(154.66 271.84)">create<tspan class="cls-7" x="21.22" y="0"> </tspan><tspan x="23.2" y="0">list</tspan><tspan class="cls-7" x="33.61" y="0"> </tspan><tspan x="35.59" y="0">of </tspan></text><text class="cls-4" transform="translate(157.54 281.2)"><tspan class="cls-5">ressource</tspan><tspan x="34.49" y="0">s</tspan></text><path class="cls-1" d="M374.86,335.62c0-13.92-16.92-25.2-37.74-25.2s-37.8,11.28-37.8,25.2,16.92,25.14,37.8,25.14,37.74-11.28,37.74-25.14"/><path class="cls-8" d="M373.48,334.18c0-13.92-16.92-25.14-37.8-25.14s-37.74,11.22-37.74,25.14,16.86,25.2,37.74,25.2S373.48,348.1,373.48,334.18Z"/><path class="cls-3" d="M373.48,334.18c0-13.92-16.92-25.14-37.8-25.14s-37.74,11.22-37.74,25.14,16.86,25.2,37.74,25.2S373.48,348.1,373.48,334.18Z"/><path class="cls-3" d="M373.48,334.18c0-13.92-16.92-25.14-37.8-25.14s-37.74,11.22-37.74,25.14,16.86,25.2,37.74,25.2S373.48,348.1,373.48,334.18Z"/><text class="cls-4" transform="translate(307.3 331.6)"><tspan class="cls-13">make</tspan><tspan class="cls-14" x="18.44" y="0"> </tspan><tspan class="cls-13" x="20.43" y="0">ressource</tspan><tspan x="54.92" y="0"> </tspan></text><text class="cls-4" transform="translate(323.14 340.96)">a<tspan class="cls-15" x="4" y="0">v</tspan><tspan x="7.85" y="0">iable</tspan></text><path class="cls-1" d="M374.86,408.34c0-13.92-16.92-25.2-37.74-25.2s-37.8,11.28-37.8,25.2,16.92,25.14,37.8,25.14,37.74-11.28,37.74-25.14"/><path class="cls-8" d="M373.48,406.9c0-13.92-16.92-25.14-37.8-25.14S297.94,393,297.94,406.9s16.86,25.2,37.74,25.2S373.48,420.82,373.48,406.9Z"/><path class="cls-3" d="M373.48,406.9c0-13.92-16.92-25.14-37.8-25.14S297.94,393,297.94,406.9s16.86,25.2,37.74,25.2S373.48,420.82,373.48,406.9Z"/><path class="cls-3" d="M373.48,406.9c0-13.92-16.92-25.14-37.8-25.14S297.94,393,297.94,406.9s16.86,25.2,37.74,25.2S373.48,420.82,373.48,406.9Z"/><text class="cls-4" transform="translate(307.3 404.32)"><tspan class="cls-13">make</tspan><tspan class="cls-14" x="18.44" y="0"> </tspan><tspan class="cls-13" x="20.43" y="0">ressource</tspan><tspan x="54.92" y="0"> </tspan></text><text class="cls-4" transform="translate(318.82 413.68)"><tspan class="cls-16">un</tspan><tspan class="cls-14" x="8.78" y="0">a</tspan><tspan class="cls-17" x="12.77" y="0">v</tspan><tspan class="cls-18" x="16.62" y="0">a</tspan><tspan class="cls-19" x="20.64" y="0">ibl</tspan><tspan x="29.01" y="0">e</tspan></text><path class="cls-1" d="M374.86,519.22c0-13.92-16.92-25.2-37.74-25.2s-37.8,11.28-37.8,25.2,16.92,25.14,37.8,25.14,37.74-11.28,37.74-25.14"/><path class="cls-8" d="M373.48,517.78c0-13.92-16.92-25.14-37.8-25.14s-37.74,11.22-37.74,25.14S314.8,543,335.68,543,373.48,531.7,373.48,517.78Z"/><path class="cls-3" d="M373.48,517.78c0-13.92-16.92-25.14-37.8-25.14s-37.74,11.22-37.74,25.14S314.8,543,335.68,543,373.48,531.7,373.48,517.78Z"/><path class="cls-3" d="M373.48,517.78c0-13.92-16.92-25.14-37.8-25.14s-37.74,11.22-37.74,25.14S314.8,543,335.68,543,373.48,531.7,373.48,517.78Z"/><text class="cls-4" transform="translate(301.54 519.52)">se<tspan class="cls-13" x="8.01" y="0">nd</tspan><tspan class="cls-7" x="16.82" y="0"> </tspan><tspan class="cls-9" x="18.8" y="0">err</tspan><tspan class="cls-13" x="28.41" y="0">o</tspan><tspan x="32.82" y="0">r</tspan><tspan class="cls-14" x="35.62" y="0"> </tspan><tspan x="37.61" y="0">messa</tspan><tspan class="cls-13" x="60.03" y="0">g</tspan><tspan x="64.43" y="0">e</tspan></text><path class="cls-1" d="M216.46,519.22c0-13.92-16.92-25.2-37.74-25.2s-37.8,11.28-37.8,25.2,16.92,25.14,37.8,25.14,37.74-11.28,37.74-25.14"/><path class="cls-8" d="M215.08,517.78c0-13.92-16.92-25.14-37.8-25.14s-37.74,11.22-37.74,25.14S156.4,543,177.28,543,215.08,531.7,215.08,517.78Z"/><path class="cls-3" d="M215.08,517.78c0-13.92-16.92-25.14-37.8-25.14s-37.74,11.22-37.74,25.14S156.4,543,177.28,543,215.08,531.7,215.08,517.78Z"/><path class="cls-3" d="M215.08,517.78c0-13.92-16.92-25.14-37.8-25.14s-37.74,11.22-37.74,25.14S156.4,543,177.28,543,215.08,531.7,215.08,517.78Z"/><text class="cls-4" transform="translate(153.94 515.2)">detect<tspan class="cls-10" x="21.21" y="0"> </tspan><tspan class="cls-11" x="23.19" y="0">w</tspan><tspan class="cls-20" x="28.95" y="0">r</tspan><tspan class="cls-12" x="31.77" y="0">ong </tspan></text><text class="cls-4" transform="translate(159.7 524.56)"><tspan class="cls-5">message</tspan><tspan x="30.87" y="0">s</tspan></text><path class="cls-1" d="M374.86,39.7c0-13.92-16.92-25.2-37.74-25.2s-37.8,11.28-37.8,25.2,16.92,25.14,37.8,25.14,37.74-11.28,37.74-25.14"/><path class="cls-8" d="M373.48,38.26c0-13.92-16.92-25.14-37.8-25.14s-37.74,11.22-37.74,25.14,16.86,25.2,37.74,25.2S373.48,52.18,373.48,38.26Z"/><path class="cls-3" d="M373.48,38.26c0-13.92-16.92-25.14-37.8-25.14s-37.74,11.22-37.74,25.14,16.86,25.2,37.74,25.2S373.48,52.18,373.48,38.26Z"/><path class="cls-3" d="M373.48,38.26c0-13.92-16.92-25.14-37.8-25.14s-37.74,11.22-37.74,25.14,16.86,25.2,37.74,25.2S373.48,52.18,373.48,38.26Z"/><text class="cls-21" transform="translate(308.74 40)">publi<tspan class="cls-7" x="17.16" y="0">s</tspan><tspan class="cls-19" x="21.15" y="0">h</tspan><tspan class="cls-7" x="25.54" y="0"> </tspan><tspan class="cls-19" x="27.53" y="0">to</tspan><tspan class="cls-14" x="34.31" y="0"> </tspan><tspan class="cls-19" x="36.29" y="0">topi</tspan><tspan class="cls-9" x="49.46" y="0">c</tspan></text><path class="cls-1" d="M374.86,263.62c0-13.92-16.92-25.2-37.74-25.2s-37.8,11.28-37.8,25.2,16.92,25.14,37.8,25.14,37.74-11.28,37.74-25.14"/><path class="cls-8" d="M373.48,262.18c0-13.92-16.92-25.14-37.8-25.14s-37.74,11.22-37.74,25.14,16.86,25.2,37.74,25.2S373.48,276.1,373.48,262.18Z"/><path class="cls-3" d="M373.48,262.18c0-13.92-16.92-25.14-37.8-25.14s-37.74,11.22-37.74,25.14,16.86,25.2,37.74,25.2S373.48,276.1,373.48,262.18Z"/><path class="cls-3" d="M373.48,262.18c0-13.92-16.92-25.14-37.8-25.14s-37.74,11.22-37.74,25.14,16.86,25.2,37.74,25.2S373.48,276.1,373.48,262.18Z"/><text class="cls-4" transform="translate(303.7 263.92)">register<tspan class="cls-7" x="26.41" y="0"> </tspan><tspan x="28.4" y="0">ne</tspan><tspan class="cls-11" x="36.8" y="0">w</tspan><tspan class="cls-14" x="42.56" y="0"> </tspan><tspan x="44.55" y="0">entity</tspan></text><path class="cls-1" d="M498.7,209.62c0-13.92-16.92-25.2-37.74-25.2s-37.8,11.28-37.8,25.2,16.92,25.14,37.8,25.14,37.74-11.28,37.74-25.14"/><path class="cls-8" d="M497.32,208.18c0-13.92-16.92-25.14-37.8-25.14s-37.74,11.22-37.74,25.14,16.86,25.2,37.74,25.2S497.32,222.1,497.32,208.18Z"/><path class="cls-3" d="M497.32,208.18c0-13.92-16.92-25.14-37.8-25.14s-37.74,11.22-37.74,25.14,16.86,25.2,37.74,25.2S497.32,222.1,497.32,208.18Z"/><path class="cls-3" d="M497.32,208.18c0-13.92-16.92-25.14-37.8-25.14s-37.74,11.22-37.74,25.14,16.86,25.2,37.74,25.2S497.32,222.1,497.32,208.18Z"/><text class="cls-4" transform="translate(428.26 209.92)">register<tspan class="cls-7" x="26.41" y="0"> </tspan><tspan class="cls-9" x="28.4" y="0">firefighter</tspan></text><path class="cls-1" d="M498.7,340.66c0-13.92-16.92-25.2-37.74-25.2s-37.8,11.28-37.8,25.2S440.08,365.8,461,365.8s37.74-11.28,37.74-25.14"/><path class="cls-8" d="M497.32,339.22c0-13.92-16.92-25.14-37.8-25.14s-37.74,11.22-37.74,25.14,16.86,25.2,37.74,25.2S497.32,353.14,497.32,339.22Z"/><path class="cls-3" d="M497.32,339.22c0-13.92-16.92-25.14-37.8-25.14s-37.74,11.22-37.74,25.14,16.86,25.2,37.74,25.2S497.32,353.14,497.32,339.22Z"/><path class="cls-3" d="M497.32,339.22c0-13.92-16.92-25.14-37.8-25.14s-37.74,11.22-37.74,25.14,16.86,25.2,37.74,25.2S497.32,353.14,497.32,339.22Z"/><text class="cls-4" transform="translate(426.1 340.96)">register<tspan class="cls-7" x="26.41" y="0"> </tspan><tspan class="cls-9" x="28.4" y="0">ambulance</tspan></text><path class="cls-1" d="M498.7,141.94c0-13.92-16.92-25.2-37.74-25.2s-37.8,11.28-37.8,25.2,16.92,25.14,37.8,25.14,37.74-11.28,37.74-25.14"/><path class="cls-8" d="M497.32,140.5c0-13.92-16.92-25.14-37.8-25.14s-37.74,11.22-37.74,25.14,16.86,25.2,37.74,25.2S497.32,154.42,497.32,140.5Z"/><path class="cls-3" d="M497.32,140.5c0-13.92-16.92-25.14-37.8-25.14s-37.74,11.22-37.74,25.14,16.86,25.2,37.74,25.2S497.32,154.42,497.32,140.5Z"/><path class="cls-3" d="M497.32,140.5c0-13.92-16.92-25.14-37.8-25.14s-37.74,11.22-37.74,25.14,16.86,25.2,37.74,25.2S497.32,154.42,497.32,140.5Z"/><text class="cls-4" transform="translate(434.74 142.24)">register<tspan class="cls-7" x="26.41" y="0"> </tspan><tspan x="28.4" y="0">police</tspan></text><path class="cls-1" d="M498.7,272.26c0-13.92-16.92-25.2-37.74-25.2s-37.8,11.28-37.8,25.2S440.08,297.4,461,297.4s37.74-11.28,37.74-25.14"/><path class="cls-8" d="M497.32,270.82c0-13.92-16.92-25.14-37.8-25.14s-37.74,11.22-37.74,25.14S438.64,296,459.52,296,497.32,284.74,497.32,270.82Z"/><path class="cls-3" d="M497.32,270.82c0-13.92-16.92-25.14-37.8-25.14s-37.74,11.22-37.74,25.14S438.64,296,459.52,296,497.32,284.74,497.32,270.82Z"/><path class="cls-3" d="M497.32,270.82c0-13.92-16.92-25.14-37.8-25.14s-37.74,11.22-37.74,25.14S438.64,296,459.52,296,497.32,284.74,497.32,270.82Z"/><text class="cls-4" transform="translate(431.14 272.56)">register<tspan class="cls-7" x="26.41" y="0"> </tspan><tspan x="28.4" y="0">hospital</tspan></text><path class="cls-1" d="M216.46,347.14c0-13.92-16.92-25.2-37.74-25.2s-37.8,11.28-37.8,25.2,16.92,25.14,37.8,25.14,37.74-11.28,37.74-25.14"/><path class="cls-8" d="M215.08,345.7c0-13.92-16.92-25.14-37.8-25.14s-37.74,11.22-37.74,25.14,16.86,25.2,37.74,25.2S215.08,359.62,215.08,345.7Z"/><path class="cls-3" d="M215.08,345.7c0-13.92-16.92-25.14-37.8-25.14s-37.74,11.22-37.74,25.14,16.86,25.2,37.74,25.2S215.08,359.62,215.08,345.7Z"/><path class="cls-3" d="M215.08,345.7c0-13.92-16.92-25.14-37.8-25.14s-37.74,11.22-37.74,25.14,16.86,25.2,37.74,25.2S215.08,359.62,215.08,345.7Z"/><text class="cls-4" transform="translate(143.14 347.44)">ma<tspan class="cls-5" x="10.41" y="0">n</tspan><tspan x="14.81" y="0">a</tspan><tspan class="cls-5" x="18.82" y="0">g</tspan><tspan class="cls-6" x="23.22" y="0">e</tspan><tspan class="cls-10" x="27.23" y="0"> </tspan><tspan x="29.21" y="0">ress</tspan><tspan class="cls-5" x="44.03" y="0">ou</tspan><tspan class="cls-12" x="52.84" y="0">rces</tspan></text><line class="cls-3" x1="297.94" y1="281.68" x2="215.14" y2="325.6"/><polygon class="cls-22" points="223.06 316.24 227.38 324.16 215.14 325.6 223.06 316.24"/><polygon class="cls-3" points="223.06 316.24 227.38 324.16 215.14 325.6 223.06 316.24"/><line class="cls-3" x1="297.94" y1="391.84" x2="215.14" y2="360.16"/><polygon class="cls-22" points="227.38 360.16 224.5 368.08 215.14 360.16 227.38 360.16"/><polygon class="cls-3" points="227.38 360.16 224.5 368.08 215.14 360.16 227.38 360.16"/><line class="cls-3" x1="297.94" y1="336.4" x2="215.14" y2="342.88"/><polygon class="cls-22" points="225.94 337.84 226.66 346.48 215.14 342.88 225.94 337.84"/><polygon class="cls-3" points="225.94 337.84 226.66 346.48 215.14 342.88 225.94 337.84"/><line class="cls-3" x1="215.14" y1="517.84" x2="220.18" y2="517.84"/><line class="cls-3" x1="223.06" y1="517.84" x2="228.1" y2="517.84"/><line class="cls-3" x1="230.98" y1="517.84" x2="236.02" y2="517.84"/><line class="cls-3" x1="238.9" y1="517.84" x2="243.94" y2="517.84"/><line class="cls-3" x1="246.82" y1="517.84" x2="251.86" y2="517.84"/><line class="cls-3" x1="254.74" y1="517.84" x2="259.78" y2="517.84"/><line class="cls-3" x1="262.66" y1="517.84" x2="267.7" y2="517.84"/><line class="cls-3" x1="270.58" y1="517.84" x2="275.62" y2="517.84"/><line class="cls-3" x1="278.5" y1="517.84" x2="283.54" y2="517.84"/><line class="cls-3" x1="286.42" y1="517.84" x2="291.46" y2="517.84"/><line class="cls-3" x1="294.34" y1="517.84" x2="297.94" y2="517.84"/><line class="cls-3" x1="215.14" y1="517.84" x2="225.94" y2="513.52"/><line class="cls-3" x1="215.14" y1="517.84" x2="225.94" y2="522.16"/><line class="cls-3" x1="421.78" y1="315.52" x2="373.54" y2="285.28"/><polygon class="cls-22" points="385.78 287.44 380.74 295.36 373.54 285.28 385.78 287.44"/><polygon class="cls-3" points="385.78 287.44 380.74 295.36 373.54 285.28 385.78 287.44"/><line class="cls-3" x1="421.78" y1="268" x2="373.54" y2="264.4"/><polygon class="cls-22" points="385.06 260.8 385.06 269.44 373.54 264.4 385.06 260.8"/><polygon class="cls-3" points="385.06 260.8 385.06 269.44 373.54 264.4 385.06 260.8"/><line class="cls-3" x1="421.78" y1="224.08" x2="373.54" y2="244.96"/><polygon class="cls-22" points="382.18 236.32 385.78 244.24 373.54 244.96 382.18 236.32"/><polygon class="cls-3" points="382.18 236.32 385.78 244.24 373.54 244.96 382.18 236.32"/><line class="cls-3" x1="433.3" y1="165.76" x2="360.58" y2="237.04"/><polygon class="cls-22" points="365.62 226.24 372.1 232 360.58 237.04 365.62 226.24"/><polygon class="cls-3" points="365.62 226.24 372.1 232 360.58 237.04 365.62 226.24"/><line class="cls-3" x1="297.94" y1="118.96" x2="215.14" y2="93.76"/><polygon class="cls-22" points="227.38 93.04 225.22 100.96 215.14 93.76 227.38 93.04"/><polygon class="cls-3" points="227.38 93.04 225.22 100.96 215.14 93.76 227.38 93.04"/><line class="cls-3" x1="297.94" y1="48.4" x2="215.14" y2="72.16"/><polygon class="cls-22" points="225.22 64.96 227.38 72.88 215.14 72.16 225.22 64.96"/><polygon class="cls-3" points="225.22 64.96 227.38 72.88 215.14 72.16 225.22 64.96"/><line class="cls-3" x1="55.3" y1="337.84" x2="159.7" y2="492.64"/><line class="cls-3" x1="62.5" y1="296.08" x2="139.54" y2="281.68"/><line class="cls-3" x1="62.5" y1="281.68" x2="139.54" y2="229.84"/><line class="cls-3" x1="55.3" y1="267.28" x2="159.7" y2="108.16"/><line class="cls-3" x1="62.5" y1="311.2" x2="139.54" y2="334.24"/><rect class="cls-23" x="241.06" y="520" width="29.7" height="8.04"/><text class="cls-24" transform="translate(241.06 526.42)"><tspan class="cls-5">«e</tspan><tspan class="cls-25" x="8.02" y="0">x</tspan><tspan class="cls-13" x="11.57" y="0">tend</tspan><tspan x="25.61" y="0">»</tspan></text></svg>