<svg id="Ebene_1" data-name="Ebene 1" xmlns="http://www.w3.org/2000/svg" viewBox="0 0 494.52 531.6"><defs><style>.cls-1{fill:#dfdfdf;}.cls-1,.cls-2,.cls-22,.cls-8{fill-rule:evenodd;}.cls-2{fill:#f8e2c1;}.cls-3{fill:none;stroke:#000;stroke-linecap:round;stroke-linejoin:round;stroke-width:0.72px;}.cls-21,.cls-24,.cls-4{font-size:7.2px;}.cls-21,.cls-4{font-family:Arial-BoldMT, Arial;font-weight:700;}.cls-24,.cls-5{letter-spacing:0em;}.cls-6{letter-spacing:0em;}.cls-7{letter-spacing:0em;}.cls-8{fill:#e5f2fe;}.cls-9{letter-spacing:0em;}.cls-10{letter-spacing:0em;}.cls-11{letter-spacing:0.02em;}.cls-12{letter-spacing:0em;}.cls-13{letter-spacing:0em;}.cls-14{letter-spacing:0em;}.cls-15{letter-spacing:-0.02em;}.cls-16,.cls-21{letter-spacing:0em;}.cls-17{letter-spacing:-0.02em;}.cls-18{letter-spacing:0em;}.cls-19{letter-spacing:0em;}.cls-20{letter-spacing:0em;}.cls-22{fill:#fcf2e3;}.cls-23{fill:#fff;}.cls-24{font-family:ArialMT, Arial;}.cls-25{letter-spacing:-0.01em;}</style></defs><path class="cls-1" d="M49.72,274.62a7.89,7.89,0,1,0-7.86,7.86,7.9,7.9,0,0,0,7.86-7.86" transform="translate(-12.4 -6.48)"/><path class="cls-2" d="M48.34,273.18a7.89,7.89,0,1,0-7.92,7.92A7.86,7.86,0,0,0,48.34,273.18Z" transform="translate(-12.4 -6.48)"/><path class="cls-3" d="M48.34,273.18a7.89,7.89,0,1,0-7.92,7.92A7.86,7.86,0,0,0,48.34,273.18Z" transform="translate(-12.4 -6.48)"/><path class="cls-3" d="M48.34,273.18a7.89,7.89,0,1,0-7.92,7.92A7.86,7.86,0,0,0,48.34,273.18Z" transform="translate(-12.4 -6.48)"/><line class="cls-3" x1="28.08" y1="274.68" x2="28.08" y2="289.8"/><line class="cls-3" x1="17.28" y1="278.28" x2="28.08" y2="278.28"/><line class="cls-3" x1="38.88" y1="278.28" x2="28.08" y2="278.28"/><line class="cls-3" x1="28.08" y1="289.8" x2="36.72" y2="304.92"/><line class="cls-3" x1="28.08" y1="289.8" x2="19.44" y2="304.92"/><text class="cls-4" transform="translate(0 311.64)">ma<tspan class="cls-5" x="10.41" y="0">n</tspan><tspan x="14.81" y="0">a</tspan><tspan class="cls-5" x="18.82" y="0">g</tspan><tspan class="cls-6" x="23.22" y="0">er</tspan><tspan class="cls-7" x="30.03" y="0"> </tspan><tspan x="32.01" y="0">(</tspan><tspan class="cls-5" x="34.41" y="0">Lu</tspan><tspan x="43.22" y="0">kas)</tspan></text><path class="cls-1" d="M383.08,125.58c0-13.92-16.92-25.2-37.74-25.2s-37.8,11.28-37.8,25.2,16.92,25.14,37.8,25.14,37.74-11.28,37.74-25.14" transform="translate(-12.4 -6.48)"/><path class="cls-8" d="M381.7,124.14c0-13.92-16.92-25.14-37.8-25.14s-37.74,11.22-37.74,25.14,16.86,25.2,37.74,25.2S381.7,138.06,381.7,124.14Z" transform="translate(-12.4 -6.48)"/><path class="cls-3" d="M381.7,124.14c0-13.92-16.92-25.14-37.8-25.14s-37.74,11.22-37.74,25.14,16.86,25.2,37.74,25.2S381.7,138.06,381.7,124.14Z" transform="translate(-12.4 -6.48)"/><path class="cls-3" d="M381.7,124.14c0-13.92-16.92-25.14-37.8-25.14s-37.74,11.22-37.74,25.14,16.86,25.2,37.74,25.2S381.7,138.06,381.7,124.14Z" transform="translate(-12.4 -6.48)"/><text class="cls-4" transform="translate(305.28 119.4)">read<tspan class="cls-7" x="15.21" y="0"> </tspan><tspan x="17.19" y="0">from</tspan><tspan class="cls-7" x="33.19" y="0"> </tspan><tspan class="cls-9" x="35.18" y="0">topic</tspan></text><path class="cls-1" d="M224.68,78.06c0-13.92-16.92-25.2-37.74-25.2s-37.8,11.28-37.8,25.2,16.92,25.14,37.8,25.14,37.74-11.28,37.74-25.14" transform="translate(-12.4 -6.48)"/><path class="cls-8" d="M223.3,76.62c0-13.92-16.92-25.14-37.8-25.14S147.76,62.7,147.76,76.62s16.86,25.2,37.74,25.2S223.3,90.54,223.3,76.62Z" transform="translate(-12.4 -6.48)"/><path class="cls-3" d="M223.3,76.62c0-13.92-16.92-25.14-37.8-25.14S147.76,62.7,147.76,76.62s16.86,25.2,37.74,25.2S223.3,90.54,223.3,76.62Z" transform="translate(-12.4 -6.48)"/><path class="cls-3" d="M223.3,76.62c0-13.92-16.92-25.14-37.8-25.14S147.76,62.7,147.76,76.62s16.86,25.2,37.74,25.2S223.3,90.54,223.3,76.62Z" transform="translate(-12.4 -6.48)"/><text class="cls-4" transform="translate(140.4 67.56)">communicate<tspan class="cls-10" x="46.41" y="0"> </tspan><tspan class="cls-11" x="48.4" y="0">w</tspan><tspan class="cls-7" x="54.16" y="0">i</tspan><tspan x="56.14" y="0">th </tspan></text><text class="cls-4" transform="translate(162 76.92)">broker</text><path class="cls-1" d="M224.68,233.58c0-13.92-16.92-25.2-37.74-25.2s-37.8,11.28-37.8,25.2,16.92,25.14,37.8,25.14,37.74-11.28,37.74-25.14" transform="translate(-12.4 -6.48)"/><path class="cls-8" d="M223.3,232.14c0-13.92-16.92-25.14-37.8-25.14s-37.74,11.22-37.74,25.14,16.86,25.2,37.74,25.2S223.3,246.06,223.3,232.14Z" transform="translate(-12.4 -6.48)"/><path class="cls-3" d="M223.3,232.14c0-13.92-16.92-25.14-37.8-25.14s-37.74,11.22-37.74,25.14,16.86,25.2,37.74,25.2S223.3,246.06,223.3,232.14Z" transform="translate(-12.4 -6.48)"/><path class="cls-3" d="M223.3,232.14c0-13.92-16.92-25.14-37.8-25.14s-37.74,11.22-37.74,25.14,16.86,25.2,37.74,25.2S223.3,246.06,223.3,232.14Z" transform="translate(-12.4 -6.48)"/><text class="cls-4" transform="translate(141.84 227.4)">calculate<tspan class="cls-7" x="30.82" y="0"> </tspan><tspan class="cls-12" x="32.8" y="0">distance</tspan></text><path class="cls-1" d="M224.68,352.38c0-13.92-16.92-25.2-37.74-25.2s-37.8,11.28-37.8,25.2,16.92,25.14,37.8,25.14,37.74-11.28,37.74-25.14" transform="translate(-12.4 -6.48)"/><path class="cls-8" d="M223.3,350.94c0-13.92-16.92-25.14-37.8-25.14S147.76,337,147.76,350.94s16.86,25.2,37.74,25.2S223.3,364.86,223.3,350.94Z" transform="translate(-12.4 -6.48)"/><path class="cls-3" d="M223.3,350.94c0-13.92-16.92-25.14-37.8-25.14S147.76,337,147.76,350.94s16.86,25.2,37.74,25.2S223.3,364.86,223.3,350.94Z" transform="translate(-12.4 -6.48)"/><path class="cls-3" d="M223.3,350.94c0-13.92-16.92-25.14-37.8-25.14S147.76,337,147.76,350.94s16.86,25.2,37.74,25.2S223.3,364.86,223.3,350.94Z" transform="translate(-12.4 -6.48)"/><text class="cls-4" transform="translate(150.48 341.88)">create<tspan class="cls-7" x="21.22" y="0"> </tspan><tspan x="23.2" y="0">list</tspan><tspan class="cls-7" x="33.61" y="0"> </tspan><tspan x="35.59" y="0">of </tspan></text><text class="cls-4" transform="translate(153.36 351.24)"><tspan class="cls-5">ressource</tspan><tspan x="34.49" y="0">s</tspan></text><path class="cls-1" d="M383.08,329.34c0-13.92-16.92-25.2-37.74-25.2s-37.8,11.28-37.8,25.2,16.92,25.14,37.8,25.14,37.74-11.28,37.74-25.14" transform="translate(-12.4 -6.48)"/><path class="cls-8" d="M381.7,327.9c0-13.92-16.92-25.14-37.8-25.14S306.16,314,306.16,327.9,323,353.1,343.9,353.1,381.7,341.82,381.7,327.9Z" transform="translate(-12.4 -6.48)"/><path class="cls-3" d="M381.7,327.9c0-13.92-16.92-25.14-37.8-25.14S306.16,314,306.16,327.9,323,353.1,343.9,353.1,381.7,341.82,381.7,327.9Z" transform="translate(-12.4 -6.48)"/><path class="cls-3" d="M381.7,327.9c0-13.92-16.92-25.14-37.8-25.14S306.16,314,306.16,327.9,323,353.1,343.9,353.1,381.7,341.82,381.7,327.9Z" transform="translate(-12.4 -6.48)"/><text class="cls-4" transform="translate(303.12 318.84)"><tspan class="cls-13">make</tspan><tspan class="cls-14" x="18.44" y="0"> </tspan><tspan class="cls-13" x="20.43" y="0">ressource</tspan><tspan x="54.92" y="0"> </tspan></text><text class="cls-4" transform="translate(318.96 328.2)">a<tspan class="cls-15" x="4" y="0">v</tspan><tspan x="7.85" y="0">iable</tspan></text><path class="cls-1" d="M383.08,402.06c0-13.92-16.92-25.2-37.74-25.2s-37.8,11.28-37.8,25.2,16.92,25.14,37.8,25.14,37.74-11.28,37.74-25.14" transform="translate(-12.4 -6.48)"/><path class="cls-8" d="M381.7,400.62c0-13.92-16.92-25.14-37.8-25.14s-37.74,11.22-37.74,25.14,16.86,25.2,37.74,25.2S381.7,414.54,381.7,400.62Z" transform="translate(-12.4 -6.48)"/><path class="cls-3" d="M381.7,400.62c0-13.92-16.92-25.14-37.8-25.14s-37.74,11.22-37.74,25.14,16.86,25.2,37.74,25.2S381.7,414.54,381.7,400.62Z" transform="translate(-12.4 -6.48)"/><path class="cls-3" d="M381.7,400.62c0-13.92-16.92-25.14-37.8-25.14s-37.74,11.22-37.74,25.14,16.86,25.2,37.74,25.2S381.7,414.54,381.7,400.62Z" transform="translate(-12.4 -6.48)"/><text class="cls-4" transform="translate(303.12 391.56)"><tspan class="cls-13">make</tspan><tspan class="cls-14" x="18.44" y="0"> </tspan><tspan class="cls-13" x="20.43" y="0">ressource</tspan><tspan x="54.92" y="0"> </tspan></text><text class="cls-4" transform="translate(314.64 400.92)"><tspan class="cls-16">un</tspan><tspan class="cls-14" x="8.78" y="0">a</tspan><tspan class="cls-17" x="12.77" y="0">v</tspan><tspan class="cls-18" x="16.62" y="0">a</tspan><tspan class="cls-19" x="20.64" y="0">ibl</tspan><tspan x="29.01" y="0">e</tspan></text><path class="cls-1" d="M383.08,512.94c0-13.92-16.92-25.2-37.74-25.2s-37.8,11.28-37.8,25.2,16.92,25.14,37.8,25.14,37.74-11.28,37.74-25.14" transform="translate(-12.4 -6.48)"/><path class="cls-8" d="M381.7,511.5c0-13.92-16.92-25.14-37.8-25.14s-37.74,11.22-37.74,25.14S323,536.7,343.9,536.7,381.7,525.42,381.7,511.5Z" transform="translate(-12.4 -6.48)"/><path class="cls-3" d="M381.7,511.5c0-13.92-16.92-25.14-37.8-25.14s-37.74,11.22-37.74,25.14S323,536.7,343.9,536.7,381.7,525.42,381.7,511.5Z" transform="translate(-12.4 -6.48)"/><path class="cls-3" d="M381.7,511.5c0-13.92-16.92-25.14-37.8-25.14s-37.74,11.22-37.74,25.14S323,536.7,343.9,536.7,381.7,525.42,381.7,511.5Z" transform="translate(-12.4 -6.48)"/><text class="cls-4" transform="translate(297.36 506.76)">se<tspan class="cls-13" x="8.01" y="0">nd</tspan><tspan class="cls-7" x="16.82" y="0"> </tspan><tspan class="cls-9" x="18.8" y="0">err</tspan><tspan class="cls-13" x="28.41" y="0">o</tspan><tspan x="32.82" y="0">r</tspan><tspan class="cls-14" x="35.62" y="0"> </tspan><tspan x="37.61" y="0">messa</tspan><tspan class="cls-13" x="60.03" y="0">g</tspan><tspan x="64.43" y="0">e</tspan></text><path class="cls-1" d="M224.68,512.94c0-13.92-16.92-25.2-37.74-25.2s-37.8,11.28-37.8,25.2,16.92,25.14,37.8,25.14,37.74-11.28,37.74-25.14" transform="translate(-12.4 -6.48)"/><path class="cls-8" d="M223.3,511.5c0-13.92-16.92-25.14-37.8-25.14s-37.74,11.22-37.74,25.14,16.86,25.2,37.74,25.2S223.3,525.42,223.3,511.5Z" transform="translate(-12.4 -6.48)"/><path class="cls-3" d="M223.3,511.5c0-13.92-16.92-25.14-37.8-25.14s-37.74,11.22-37.74,25.14,16.86,25.2,37.74,25.2S223.3,525.42,223.3,511.5Z" transform="translate(-12.4 -6.48)"/><path class="cls-3" d="M223.3,511.5c0-13.92-16.92-25.14-37.8-25.14s-37.74,11.22-37.74,25.14,16.86,25.2,37.74,25.2S223.3,525.42,223.3,511.5Z" transform="translate(-12.4 -6.48)"/><text class="cls-4" transform="translate(149.76 502.44)">detect<tspan class="cls-10" x="21.21" y="0"> </tspan><tspan class="cls-11" x="23.19" y="0">w</tspan><tspan class="cls-20" x="28.95" y="0">r</tspan><tspan class="cls-12" x="31.77" y="0">ong </tspan></text><text class="cls-4" transform="translate(155.52 511.8)"><tspan class="cls-5">message</tspan><tspan x="30.87" y="0">s</tspan></text><path class="cls-1" d="M383.08,33.42c0-13.92-16.92-25.2-37.74-25.2s-37.8,11.28-37.8,25.2,16.92,25.14,37.8,25.14,37.74-11.28,37.74-25.14" transform="translate(-12.4 -6.48)"/><path class="cls-8" d="M381.7,32c0-13.92-16.92-25.14-37.8-25.14S306.16,18.06,306.16,32,323,57.18,343.9,57.18,381.7,45.9,381.7,32Z" transform="translate(-12.4 -6.48)"/><path class="cls-3" d="M381.7,32c0-13.92-16.92-25.14-37.8-25.14S306.16,18.06,306.16,32,323,57.18,343.9,57.18,381.7,45.9,381.7,32Z" transform="translate(-12.4 -6.48)"/><path class="cls-3" d="M381.7,32c0-13.92-16.92-25.14-37.8-25.14S306.16,18.06,306.16,32,323,57.18,343.9,57.18,381.7,45.9,381.7,32Z" transform="translate(-12.4 -6.48)"/><text class="cls-21" transform="translate(304.56 27.24)">publi<tspan class="cls-7" x="17.16" y="0">s</tspan><tspan class="cls-19" x="21.15" y="0">h</tspan><tspan class="cls-7" x="25.54" y="0"> </tspan><tspan class="cls-19" x="27.53" y="0">to</tspan><tspan class="cls-14" x="34.31" y="0"> </tspan><tspan class="cls-19" x="36.29" y="0">topi</tspan><tspan class="cls-9" x="49.46" y="0">c</tspan></text><path class="cls-1" d="M379.48,257.34c0-13.92-16.92-25.2-37.74-25.2s-37.8,11.28-37.8,25.2,16.92,25.14,37.8,25.14,37.74-11.28,37.74-25.14" transform="translate(-12.4 -6.48)"/><path class="cls-8" d="M378.1,255.9c0-13.92-16.92-25.14-37.8-25.14S302.56,242,302.56,255.9s16.86,25.2,37.74,25.2S378.1,269.82,378.1,255.9Z" transform="translate(-12.4 -6.48)"/><path class="cls-3" d="M378.1,255.9c0-13.92-16.92-25.14-37.8-25.14S302.56,242,302.56,255.9s16.86,25.2,37.74,25.2S378.1,269.82,378.1,255.9Z" transform="translate(-12.4 -6.48)"/><path class="cls-3" d="M378.1,255.9c0-13.92-16.92-25.14-37.8-25.14S302.56,242,302.56,255.9s16.86,25.2,37.74,25.2S378.1,269.82,378.1,255.9Z" transform="translate(-12.4 -6.48)"/><text class="cls-4" transform="translate(295.92 251.16)">register<tspan class="cls-7" x="26.41" y="0"> </tspan><tspan x="28.4" y="0">ne</tspan><tspan class="cls-11" x="36.8" y="0">w</tspan><tspan class="cls-14" x="42.56" y="0"> </tspan><tspan x="44.55" y="0">entity</tspan></text><path class="cls-1" d="M506.92,203.34c0-13.92-16.92-25.2-37.74-25.2s-37.8,11.28-37.8,25.2,16.92,25.14,37.8,25.14,37.74-11.28,37.74-25.14" transform="translate(-12.4 -6.48)"/><path class="cls-8" d="M505.54,201.9c0-13.92-16.92-25.14-37.8-25.14S430,188,430,201.9s16.86,25.2,37.74,25.2S505.54,215.82,505.54,201.9Z" transform="translate(-12.4 -6.48)"/><path class="cls-3" d="M505.54,201.9c0-13.92-16.92-25.14-37.8-25.14S430,188,430,201.9s16.86,25.2,37.74,25.2S505.54,215.82,505.54,201.9Z" transform="translate(-12.4 -6.48)"/><path class="cls-3" d="M505.54,201.9c0-13.92-16.92-25.14-37.8-25.14S430,188,430,201.9s16.86,25.2,37.74,25.2S505.54,215.82,505.54,201.9Z" transform="translate(-12.4 -6.48)"/><text class="cls-4" transform="translate(424.08 197.16)">register<tspan class="cls-7" x="26.41" y="0"> </tspan><tspan class="cls-9" x="28.4" y="0">firefighter</tspan></text><path class="cls-1" d="M506.92,334.38c0-13.92-16.92-25.2-37.74-25.2s-37.8,11.28-37.8,25.2,16.92,25.14,37.8,25.14,37.74-11.28,37.74-25.14" transform="translate(-12.4 -6.48)"/><path class="cls-8" d="M505.54,332.94c0-13.92-16.92-25.14-37.8-25.14S430,319,430,332.94s16.86,25.2,37.74,25.2S505.54,346.86,505.54,332.94Z" transform="translate(-12.4 -6.48)"/><path class="cls-3" d="M505.54,332.94c0-13.92-16.92-25.14-37.8-25.14S430,319,430,332.94s16.86,25.2,37.74,25.2S505.54,346.86,505.54,332.94Z" transform="translate(-12.4 -6.48)"/><path class="cls-3" d="M505.54,332.94c0-13.92-16.92-25.14-37.8-25.14S430,319,430,332.94s16.86,25.2,37.74,25.2S505.54,346.86,505.54,332.94Z" transform="translate(-12.4 -6.48)"/><text class="cls-4" transform="translate(421.92 328.2)">register<tspan class="cls-7" x="26.41" y="0"> </tspan><tspan class="cls-9" x="28.4" y="0">ambulance</tspan></text><path class="cls-1" d="M506.92,135.66c0-13.92-16.92-25.2-37.74-25.2s-37.8,11.28-37.8,25.2,16.92,25.14,37.8,25.14,37.74-11.28,37.74-25.14" transform="translate(-12.4 -6.48)"/><path class="cls-8" d="M505.54,134.22c0-13.92-16.92-25.14-37.8-25.14S430,120.3,430,134.22s16.86,25.2,37.74,25.2S505.54,148.14,505.54,134.22Z" transform="translate(-12.4 -6.48)"/><path class="cls-3" d="M505.54,134.22c0-13.92-16.92-25.14-37.8-25.14S430,120.3,430,134.22s16.86,25.2,37.74,25.2S505.54,148.14,505.54,134.22Z" transform="translate(-12.4 -6.48)"/><path class="cls-3" d="M505.54,134.22c0-13.92-16.92-25.14-37.8-25.14S430,120.3,430,134.22s16.86,25.2,37.74,25.2S505.54,148.14,505.54,134.22Z" transform="translate(-12.4 -6.48)"/><text class="cls-4" transform="translate(430.56 129.48)">register<tspan class="cls-7" x="26.41" y="0"> </tspan><tspan x="28.4" y="0">police</tspan></text><path class="cls-1" d="M506.92,266c0-13.92-16.92-25.2-37.74-25.2s-37.8,11.28-37.8,25.2,16.92,25.14,37.8,25.14,37.74-11.28,37.74-25.14" transform="translate(-12.4 -6.48)"/><path class="cls-8" d="M505.54,264.54c0-13.92-16.92-25.14-37.8-25.14S430,250.62,430,264.54s16.86,25.2,37.74,25.2S505.54,278.46,505.54,264.54Z" transform="translate(-12.4 -6.48)"/><path class="cls-3" d="M505.54,264.54c0-13.92-16.92-25.14-37.8-25.14S430,250.62,430,264.54s16.86,25.2,37.74,25.2S505.54,278.46,505.54,264.54Z" transform="translate(-12.4 -6.48)"/><path class="cls-3" d="M505.54,264.54c0-13.92-16.92-25.14-37.8-25.14S430,250.62,430,264.54s16.86,25.2,37.74,25.2S505.54,278.46,505.54,264.54Z" transform="translate(-12.4 -6.48)"/><text class="cls-4" transform="translate(426.96 259.8)">register<tspan class="cls-7" x="26.41" y="0"> </tspan><tspan x="28.4" y="0">hospital</tspan></text><line class="cls-3" x1="290.16" y1="271.8" x2="210.96" y2="320.76"/><polygon class="cls-22" points="218.16 310.68 223.2 318.6 210.96 320.76 218.16 310.68"/><polygon class="cls-3" points="218.16 310.68 223.2 318.6 210.96 320.76 218.16 310.68"/><line class="cls-3" x1="293.76" y1="381.96" x2="210.96" y2="356.04"/><polygon class="cls-22" points="223.2 355.32 220.32 363.96 210.96 356.04 223.2 355.32"/><polygon class="cls-3" points="223.2 355.32 220.32 363.96 210.96 356.04 223.2 355.32"/><line class="cls-3" x1="293.76" y1="326.52" x2="210.96" y2="338.76"/><polygon class="cls-22" points="221.76 333 223.2 341.64 210.96 338.76 221.76 333"/><polygon class="cls-3" points="221.76 333 223.2 341.64 210.96 338.76 221.76 333"/><line class="cls-3" x1="210.96" y1="505.08" x2="216" y2="505.08"/><line class="cls-3" x1="218.88" y1="505.08" x2="223.92" y2="505.08"/><line class="cls-3" x1="226.8" y1="505.08" x2="231.84" y2="505.08"/><line class="cls-3" x1="234.72" y1="505.08" x2="239.76" y2="505.08"/><line class="cls-3" x1="242.64" y1="505.08" x2="247.68" y2="505.08"/><line class="cls-3" x1="250.56" y1="505.08" x2="255.6" y2="505.08"/><line class="cls-3" x1="258.48" y1="505.08" x2="263.52" y2="505.08"/><line class="cls-3" x1="266.4" y1="505.08" x2="271.44" y2="505.08"/><line class="cls-3" x1="274.32" y1="505.08" x2="279.36" y2="505.08"/><line class="cls-3" x1="282.24" y1="505.08" x2="287.28" y2="505.08"/><line class="cls-3" x1="290.16" y1="505.08" x2="293.76" y2="505.08"/><line class="cls-3" x1="210.96" y1="505.08" x2="221.76" y2="500.76"/><line class="cls-3" x1="210.96" y1="505.08" x2="221.76" y2="509.4"/><line class="cls-3" x1="293.76" y1="106.2" x2="210.96" y2="81"/><polygon class="cls-22" points="223.2 80.28 221.04 88.2 210.96 81 223.2 80.28"/><polygon class="cls-3" points="223.2 80.28 221.04 88.2 210.96 81 223.2 80.28"/><line class="cls-3" x1="293.76" y1="35.64" x2="210.96" y2="59.4"/><polygon class="cls-22" points="221.04 52.2 223.2 60.12 210.96 59.4 221.04 52.2"/><polygon class="cls-3" points="221.04 52.2 223.2 60.12 210.96 59.4 221.04 52.2"/><line class="cls-3" x1="51.12" y1="325.08" x2="155.52" y2="479.88"/><line class="cls-3" x1="58.32" y1="300.6" x2="135.36" y2="330.12"/><line class="cls-3" x1="58.32" y1="276.12" x2="135.36" y2="242.28"/><line class="cls-3" x1="51.12" y1="254.52" x2="155.52" y2="95.4"/><line class="cls-3" x1="428.4" y1="153" x2="353.52" y2="224.28"/><polygon class="cls-22" points="358.56 213.48 365.04 219.24 353.52 224.28 358.56 213.48"/><polygon class="cls-3" points="358.56 213.48 365.04 219.24 353.52 224.28 358.56 213.48"/><line class="cls-3" x1="417.6" y1="211.32" x2="365.76" y2="232.92"/><polygon class="cls-22" points="374.4 224.28 378 232.2 365.76 232.92 374.4 224.28"/><polygon class="cls-3" points="374.4 224.28 378 232.2 365.76 232.92 374.4 224.28"/><line class="cls-3" x1="417.6" y1="255.24" x2="365.76" y2="251.64"/><polygon class="cls-22" points="377.28 248.04 377.28 256.68 365.76 251.64 377.28 248.04"/><polygon class="cls-3" points="377.28 248.04 377.28 256.68 365.76 251.64 377.28 248.04"/><line class="cls-3" x1="417.6" y1="303.48" x2="365.76" y2="272.52"/><polygon class="cls-22" points="378 274.68 373.68 281.88 365.76 272.52 378 274.68"/><polygon class="cls-3" points="378 274.68 373.68 281.88 365.76 272.52 378 274.68"/><rect class="cls-23" x="236.88" y="507.24" width="29.7" height="8.04"/><text class="cls-24" transform="translate(236.88 513.66)">«e<tspan class="cls-25" x="8.02" y="0">x</tspan><tspan class="cls-13" x="11.57" y="0">tend</tspan><tspan class="cls-12" x="25.61" y="0">»</tspan></text></svg>