<svg id="Ebene_1" data-name="Ebene 1" xmlns="http://www.w3.org/2000/svg" viewBox="0 0 494.52 531.6"><defs><style>.cls-1{fill:#dfdfdf;}.cls-1,.cls-2,.cls-22,.cls-8{fill-rule:evenodd;}.cls-2{fill:#f8e2c2;}.cls-3{fill:none;stroke:#000;stroke-linecap:round;stroke-linejoin:round;stroke-width:0.72px;}.cls-21,.cls-24,.cls-4{font-size:7.2px;}.cls-21,.cls-4{font-family:Arial-BoldMT, Arial;font-weight:700;}.cls-5{letter-spacing:0em;}.cls-6{letter-spacing:0em;}.cls-7{letter-spacing:0em;}.cls-8{fill:#e5f2fc;}.cls-9{letter-spacing:0em;}.cls-10{letter-spacing:0em;}.cls-11{letter-spacing:0.02em;}.cls-12{letter-spacing:0em;}.cls-13{letter-spacing:0em;}.cls-14{letter-spacing:0em;}.cls-15{letter-spacing:-0.02em;}.cls-16,.cls-21{letter-spacing:0em;}.cls-17{letter-spacing:-0.02em;}.cls-18{letter-spacing:0em;}.cls-19{letter-spacing:0em;}.cls-20{letter-spacing:0em;}.cls-22{fill:#fcf2e3;}.cls-23{fill:#fff;}.cls-24{font-family:ArialMT, Arial;}.cls-25{letter-spacing:-0.01em;}</style></defs><path class="cls-1" d="M41.5,280.9a7.89,7.89,0,1,0-7.86,7.86,7.9,7.9,0,0,0,7.86-7.86" transform="translate(-4.18 -12.76)"/><path class="cls-2" d="M40.12,279.46a7.89,7.89,0,1,0-7.92,7.92A7.86,7.86,0,0,0,40.12,279.46Z" transform="translate(-4.18 -12.76)"/><path class="cls-3" d="M40.12,279.46a7.89,7.89,0,1,0-7.92,7.92A7.86,7.86,0,0,0,40.12,279.46Z" transform="translate(-4.18 -12.76)"/><path class="cls-3" d="M40.12,279.46a7.89,7.89,0,1,0-7.92,7.92A7.86,7.86,0,0,0,40.12,279.46Z" transform="translate(-4.18 -12.76)"/><line class="cls-3" x1="28.08" y1="274.68" x2="28.08" y2="289.8"/><line class="cls-3" x1="17.28" y1="278.28" x2="28.08" y2="278.28"/><line class="cls-3" x1="38.88" y1="278.28" x2="28.08" y2="278.28"/><line class="cls-3" x1="28.08" y1="289.8" x2="36.72" y2="304.92"/><line class="cls-3" x1="28.08" y1="289.8" x2="19.44" y2="304.92"/><text class="cls-4" transform="translate(0 311.64)">ma<tspan class="cls-5" x="10.41" y="0">n</tspan><tspan x="14.81" y="0">a</tspan><tspan class="cls-5" x="18.82" y="0">g</tspan><tspan class="cls-6" x="23.22" y="0">er</tspan><tspan class="cls-7" x="30.03" y="0"> </tspan><tspan x="32.01" y="0">(</tspan><tspan class="cls-5" x="34.41" y="0">Lu</tspan><tspan x="43.22" y="0">kas)</tspan></text><path class="cls-1" d="M374.86,131.86c0-13.92-16.92-25.2-37.74-25.2s-37.8,11.28-37.8,25.2S316.24,157,337.12,157s37.74-11.28,37.74-25.14" transform="translate(-4.18 -12.76)"/><path class="cls-8" d="M373.48,130.42c0-13.92-16.92-25.14-37.8-25.14s-37.74,11.22-37.74,25.14,16.86,25.2,37.74,25.2S373.48,144.34,373.48,130.42Z" transform="translate(-4.18 -12.76)"/><path class="cls-3" d="M373.48,130.42c0-13.92-16.92-25.14-37.8-25.14s-37.74,11.22-37.74,25.14,16.86,25.2,37.74,25.2S373.48,144.34,373.48,130.42Z" transform="translate(-4.18 -12.76)"/><path class="cls-3" d="M373.48,130.42c0-13.92-16.92-25.14-37.8-25.14s-37.74,11.22-37.74,25.14,16.86,25.2,37.74,25.2S373.48,144.34,373.48,130.42Z" transform="translate(-4.18 -12.76)"/><text class="cls-4" transform="translate(305.28 119.4)">read<tspan class="cls-7" x="15.21" y="0"> </tspan><tspan x="17.19" y="0">from</tspan><tspan class="cls-7" x="33.19" y="0"> </tspan><tspan class="cls-9" x="35.18" y="0">topic</tspan></text><path class="cls-1" d="M216.46,84.34c0-13.92-16.92-25.2-37.74-25.2s-37.8,11.28-37.8,25.2,16.92,25.14,37.8,25.14,37.74-11.28,37.74-25.14" transform="translate(-4.18 -12.76)"/><path class="cls-8" d="M215.08,82.9c0-13.92-16.92-25.14-37.8-25.14S139.54,69,139.54,82.9s16.86,25.2,37.74,25.2S215.08,96.82,215.08,82.9Z" transform="translate(-4.18 -12.76)"/><path class="cls-3" d="M215.08,82.9c0-13.92-16.92-25.14-37.8-25.14S139.54,69,139.54,82.9s16.86,25.2,37.74,25.2S215.08,96.82,215.08,82.9Z" transform="translate(-4.18 -12.76)"/><path class="cls-3" d="M215.08,82.9c0-13.92-16.92-25.14-37.8-25.14S139.54,69,139.54,82.9s16.86,25.2,37.74,25.2S215.08,96.82,215.08,82.9Z" transform="translate(-4.18 -12.76)"/><text class="cls-4" transform="translate(140.4 67.56)">communicate<tspan class="cls-10" x="46.41" y="0"> </tspan><tspan class="cls-11" x="48.4" y="0">w</tspan><tspan class="cls-7" x="54.16" y="0">i</tspan><tspan x="56.14" y="0">th </tspan></text><text class="cls-4" transform="translate(162 76.92)">broker</text><path class="cls-1" d="M216.46,206.74c0-13.92-16.92-25.2-37.74-25.2s-37.8,11.28-37.8,25.2,16.92,25.14,37.8,25.14,37.74-11.28,37.74-25.14" transform="translate(-4.18 -12.76)"/><path class="cls-8" d="M215.08,205.3c0-13.92-16.92-25.14-37.8-25.14s-37.74,11.22-37.74,25.14,16.86,25.2,37.74,25.2S215.08,219.22,215.08,205.3Z" transform="translate(-4.18 -12.76)"/><path class="cls-3" d="M215.08,205.3c0-13.92-16.92-25.14-37.8-25.14s-37.74,11.22-37.74,25.14,16.86,25.2,37.74,25.2S215.08,219.22,215.08,205.3Z" transform="translate(-4.18 -12.76)"/><path class="cls-3" d="M215.08,205.3c0-13.92-16.92-25.14-37.8-25.14s-37.74,11.22-37.74,25.14,16.86,25.2,37.74,25.2S215.08,219.22,215.08,205.3Z" transform="translate(-4.18 -12.76)"/><text class="cls-4" transform="translate(141.84 194.28)">calculate<tspan class="cls-7" x="30.82" y="0"> </tspan><tspan class="cls-12" x="32.8" y="0">distance</tspan></text><path class="cls-1" d="M216.46,275.86c0-13.92-16.92-25.2-37.74-25.2s-37.8,11.28-37.8,25.2S157.84,301,178.72,301s37.74-11.28,37.74-25.14" transform="translate(-4.18 -12.76)"/><path class="cls-8" d="M215.08,274.42c0-13.92-16.92-25.14-37.8-25.14s-37.74,11.22-37.74,25.14,16.86,25.2,37.74,25.2S215.08,288.34,215.08,274.42Z" transform="translate(-4.18 -12.76)"/><path class="cls-3" d="M215.08,274.42c0-13.92-16.92-25.14-37.8-25.14s-37.74,11.22-37.74,25.14,16.86,25.2,37.74,25.2S215.08,288.34,215.08,274.42Z" transform="translate(-4.18 -12.76)"/><path class="cls-3" d="M215.08,274.42c0-13.92-16.92-25.14-37.8-25.14s-37.74,11.22-37.74,25.14,16.86,25.2,37.74,25.2S215.08,288.34,215.08,274.42Z" transform="translate(-4.18 -12.76)"/><text class="cls-4" transform="translate(150.48 259.08)">create<tspan class="cls-7" x="21.22" y="0"> </tspan><tspan x="23.2" y="0">list</tspan><tspan class="cls-7" x="33.61" y="0"> </tspan><tspan x="35.59" y="0">of </tspan></text><text class="cls-4" transform="translate(153.36 268.44)"><tspan class="cls-5">ressource</tspan><tspan x="34.49" y="0">s</tspan></text><path class="cls-1" d="M374.86,335.62c0-13.92-16.92-25.2-37.74-25.2s-37.8,11.28-37.8,25.2,16.92,25.14,37.8,25.14,37.74-11.28,37.74-25.14" transform="translate(-4.18 -12.76)"/><path class="cls-8" d="M373.48,334.18c0-13.92-16.92-25.14-37.8-25.14s-37.74,11.22-37.74,25.14,16.86,25.2,37.74,25.2S373.48,348.1,373.48,334.18Z" transform="translate(-4.18 -12.76)"/><path class="cls-3" d="M373.48,334.18c0-13.92-16.92-25.14-37.8-25.14s-37.74,11.22-37.74,25.14,16.86,25.2,37.74,25.2S373.48,348.1,373.48,334.18Z" transform="translate(-4.18 -12.76)"/><path class="cls-3" d="M373.48,334.18c0-13.92-16.92-25.14-37.8-25.14s-37.74,11.22-37.74,25.14,16.86,25.2,37.74,25.2S373.48,348.1,373.48,334.18Z" transform="translate(-4.18 -12.76)"/><text class="cls-4" transform="translate(303.12 318.84)"><tspan class="cls-13">make</tspan><tspan class="cls-14" x="18.44" y="0"> </tspan><tspan class="cls-13" x="20.43" y="0">ressource</tspan><tspan x="54.92" y="0"> </tspan></text><text class="cls-4" transform="translate(318.96 328.2)">a<tspan class="cls-15" x="4" y="0">v</tspan><tspan x="7.85" y="0">iable</tspan></text><path class="cls-1" d="M374.86,408.34c0-13.92-16.92-25.2-37.74-25.2s-37.8,11.28-37.8,25.2,16.92,25.14,37.8,25.14,37.74-11.28,37.74-25.14" transform="translate(-4.18 -12.76)"/><path class="cls-8" d="M373.48,406.9c0-13.92-16.92-25.14-37.8-25.14S297.94,393,297.94,406.9s16.86,25.2,37.74,25.2S373.48,420.82,373.48,406.9Z" transform="translate(-4.18 -12.76)"/><path class="cls-3" d="M373.48,406.9c0-13.92-16.92-25.14-37.8-25.14S297.94,393,297.94,406.9s16.86,25.2,37.74,25.2S373.48,420.82,373.48,406.9Z" transform="translate(-4.18 -12.76)"/><path class="cls-3" d="M373.48,406.9c0-13.92-16.92-25.14-37.8-25.14S297.94,393,297.94,406.9s16.86,25.2,37.74,25.2S373.48,420.82,373.48,406.9Z" transform="translate(-4.18 -12.76)"/><text class="cls-4" transform="translate(303.12 391.56)"><tspan class="cls-13">make</tspan><tspan class="cls-14" x="18.44" y="0"> </tspan><tspan class="cls-13" x="20.43" y="0">ressource</tspan><tspan x="54.92" y="0"> </tspan></text><text class="cls-4" transform="translate(314.64 400.92)"><tspan class="cls-16">un</tspan><tspan class="cls-14" x="8.78" y="0">a</tspan><tspan class="cls-17" x="12.77" y="0">v</tspan><tspan class="cls-18" x="16.62" y="0">a</tspan><tspan class="cls-19" x="20.64" y="0">ibl</tspan><tspan x="29.01" y="0">e</tspan></text><path class="cls-1" d="M374.86,519.22c0-13.92-16.92-25.2-37.74-25.2s-37.8,11.28-37.8,25.2,16.92,25.14,37.8,25.14,37.74-11.28,37.74-25.14" transform="translate(-4.18 -12.76)"/><path class="cls-8" d="M373.48,517.78c0-13.92-16.92-25.14-37.8-25.14s-37.74,11.22-37.74,25.14S314.8,543,335.68,543,373.48,531.7,373.48,517.78Z" transform="translate(-4.18 -12.76)"/><path class="cls-3" d="M373.48,517.78c0-13.92-16.92-25.14-37.8-25.14s-37.74,11.22-37.74,25.14S314.8,543,335.68,543,373.48,531.7,373.48,517.78Z" transform="translate(-4.18 -12.76)"/><path class="cls-3" d="M373.48,517.78c0-13.92-16.92-25.14-37.8-25.14s-37.74,11.22-37.74,25.14S314.8,543,335.68,543,373.48,531.7,373.48,517.78Z" transform="translate(-4.18 -12.76)"/><text class="cls-4" transform="translate(297.36 506.76)">se<tspan class="cls-13" x="8.01" y="0">nd</tspan><tspan class="cls-7" x="16.82" y="0"> </tspan><tspan class="cls-9" x="18.8" y="0">err</tspan><tspan class="cls-13" x="28.41" y="0">o</tspan><tspan x="32.82" y="0">r</tspan><tspan class="cls-14" x="35.62" y="0"> </tspan><tspan x="37.61" y="0">messa</tspan><tspan class="cls-13" x="60.03" y="0">g</tspan><tspan x="64.43" y="0">e</tspan></text><path class="cls-1" d="M216.46,519.22c0-13.92-16.92-25.2-37.74-25.2s-37.8,11.28-37.8,25.2,16.92,25.14,37.8,25.14,37.74-11.28,37.74-25.14" transform="translate(-4.18 -12.76)"/><path class="cls-8" d="M215.08,517.78c0-13.92-16.92-25.14-37.8-25.14s-37.74,11.22-37.74,25.14S156.4,543,177.28,543,215.08,531.7,215.08,517.78Z" transform="translate(-4.18 -12.76)"/><path class="cls-3" d="M215.08,517.78c0-13.92-16.92-25.14-37.8-25.14s-37.74,11.22-37.74,25.14S156.4,543,177.28,543,215.08,531.7,215.08,517.78Z" transform="translate(-4.18 -12.76)"/><path class="cls-3" d="M215.08,517.78c0-13.92-16.92-25.14-37.8-25.14s-37.74,11.22-37.74,25.14S156.4,543,177.28,543,215.08,531.7,215.08,517.78Z" transform="translate(-4.18 -12.76)"/><text class="cls-4" transform="translate(149.76 502.44)">detect<tspan class="cls-10" x="21.21" y="0"> </tspan><tspan class="cls-11" x="23.19" y="0">w</tspan><tspan class="cls-20" x="28.95" y="0">r</tspan><tspan class="cls-12" x="31.77" y="0">ong </tspan></text><text class="cls-4" transform="translate(155.52 511.8)"><tspan class="cls-5">message</tspan><tspan x="30.87" y="0">s</tspan></text><path class="cls-1" d="M374.86,39.7c0-13.92-16.92-25.2-37.74-25.2s-37.8,11.28-37.8,25.2,16.92,25.14,37.8,25.14,37.74-11.28,37.74-25.14" transform="translate(-4.18 -12.76)"/><path class="cls-8" d="M373.48,38.26c0-13.92-16.92-25.14-37.8-25.14s-37.74,11.22-37.74,25.14,16.86,25.2,37.74,25.2S373.48,52.18,373.48,38.26Z" transform="translate(-4.18 -12.76)"/><path class="cls-3" d="M373.48,38.26c0-13.92-16.92-25.14-37.8-25.14s-37.74,11.22-37.74,25.14,16.86,25.2,37.74,25.2S373.48,52.18,373.48,38.26Z" transform="translate(-4.18 -12.76)"/><path class="cls-3" d="M373.48,38.26c0-13.92-16.92-25.14-37.8-25.14s-37.74,11.22-37.74,25.14,16.86,25.2,37.74,25.2S373.48,52.18,373.48,38.26Z" transform="translate(-4.18 -12.76)"/><text class="cls-21" transform="translate(304.56 27.24)">publi<tspan class="cls-7" x="17.16" y="0">s</tspan><tspan class="cls-19" x="21.15" y="0">h</tspan><tspan class="cls-7" x="25.54" y="0"> </tspan><tspan class="cls-19" x="27.53" y="0">to</tspan><tspan class="cls-14" x="34.31" y="0"> </tspan><tspan class="cls-19" x="36.29" y="0">topi</tspan><tspan class="cls-9" x="49.46" y="0">c</tspan></text><path class="cls-1" d="M374.86,263.62c0-13.92-16.92-25.2-37.74-25.2s-37.8,11.28-37.8,25.2,16.92,25.14,37.8,25.14,37.74-11.28,37.74-25.14" transform="translate(-4.18 -12.76)"/><path class="cls-8" d="M373.48,262.18c0-13.92-16.92-25.14-37.8-25.14s-37.74,11.22-37.74,25.14,16.86,25.2,37.74,25.2S373.48,276.1,373.48,262.18Z" transform="translate(-4.18 -12.76)"/><path class="cls-3" d="M373.48,262.18c0-13.92-16.92-25.14-37.8-25.14s-37.74,11.22-37.74,25.14,16.86,25.2,37.74,25.2S373.48,276.1,373.48,262.18Z" transform="translate(-4.18 -12.76)"/><path class="cls-3" d="M373.48,262.18c0-13.92-16.92-25.14-37.8-25.14s-37.74,11.22-37.74,25.14,16.86,25.2,37.74,25.2S373.48,276.1,373.48,262.18Z" transform="translate(-4.18 -12.76)"/><text class="cls-4" transform="translate(299.52 251.16)">register<tspan class="cls-7" x="26.41" y="0"> </tspan><tspan x="28.4" y="0">ne</tspan><tspan class="cls-11" x="36.8" y="0">w</tspan><tspan class="cls-14" x="42.56" y="0"> </tspan><tspan x="44.55" y="0">entity</tspan></text><path class="cls-1" d="M498.7,209.62c0-13.92-16.92-25.2-37.74-25.2s-37.8,11.28-37.8,25.2,16.92,25.14,37.8,25.14,37.74-11.28,37.74-25.14" transform="translate(-4.18 -12.76)"/><path class="cls-8" d="M497.32,208.18c0-13.92-16.92-25.14-37.8-25.14s-37.74,11.22-37.74,25.14,16.86,25.2,37.74,25.2S497.32,222.1,497.32,208.18Z" transform="translate(-4.18 -12.76)"/><path class="cls-3" d="M497.32,208.18c0-13.92-16.92-25.14-37.8-25.14s-37.74,11.22-37.74,25.14,16.86,25.2,37.74,25.2S497.32,222.1,497.32,208.18Z" transform="translate(-4.18 -12.76)"/><path class="cls-3" d="M497.32,208.18c0-13.92-16.92-25.14-37.8-25.14s-37.74,11.22-37.74,25.14,16.86,25.2,37.74,25.2S497.32,222.1,497.32,208.18Z" transform="translate(-4.18 -12.76)"/><text class="cls-4" transform="translate(424.08 197.16)">register<tspan class="cls-7" x="26.41" y="0"> </tspan><tspan class="cls-9" x="28.4" y="0">firefighter</tspan></text><path class="cls-1" d="M498.7,340.66c0-13.92-16.92-25.2-37.74-25.2s-37.8,11.28-37.8,25.2S440.08,365.8,461,365.8s37.74-11.28,37.74-25.14" transform="translate(-4.18 -12.76)"/><path class="cls-8" d="M497.32,339.22c0-13.92-16.92-25.14-37.8-25.14s-37.74,11.22-37.74,25.14,16.86,25.2,37.74,25.2S497.32,353.14,497.32,339.22Z" transform="translate(-4.18 -12.76)"/><path class="cls-3" d="M497.32,339.22c0-13.92-16.92-25.14-37.8-25.14s-37.74,11.22-37.74,25.14,16.86,25.2,37.74,25.2S497.32,353.14,497.32,339.22Z" transform="translate(-4.18 -12.76)"/><path class="cls-3" d="M497.32,339.22c0-13.92-16.92-25.14-37.8-25.14s-37.74,11.22-37.74,25.14,16.86,25.2,37.74,25.2S497.32,353.14,497.32,339.22Z" transform="translate(-4.18 -12.76)"/><text class="cls-4" transform="translate(421.92 328.2)">register<tspan class="cls-7" x="26.41" y="0"> </tspan><tspan class="cls-9" x="28.4" y="0">ambulance</tspan></text><path class="cls-1" d="M498.7,141.94c0-13.92-16.92-25.2-37.74-25.2s-37.8,11.28-37.8,25.2,16.92,25.14,37.8,25.14,37.74-11.28,37.74-25.14" transform="translate(-4.18 -12.76)"/><path class="cls-8" d="M497.32,140.5c0-13.92-16.92-25.14-37.8-25.14s-37.74,11.22-37.74,25.14,16.86,25.2,37.74,25.2S497.32,154.42,497.32,140.5Z" transform="translate(-4.18 -12.76)"/><path class="cls-3" d="M497.32,140.5c0-13.92-16.92-25.14-37.8-25.14s-37.74,11.22-37.74,25.14,16.86,25.2,37.74,25.2S497.32,154.42,497.32,140.5Z" transform="translate(-4.18 -12.76)"/><path class="cls-3" d="M497.32,140.5c0-13.92-16.92-25.14-37.8-25.14s-37.74,11.22-37.74,25.14,16.86,25.2,37.74,25.2S497.32,154.42,497.32,140.5Z" transform="translate(-4.18 -12.76)"/><text class="cls-4" transform="translate(430.56 129.48)">register<tspan class="cls-7" x="26.41" y="0"> </tspan><tspan x="28.4" y="0">police</tspan></text><path class="cls-1" d="M498.7,272.26c0-13.92-16.92-25.2-37.74-25.2s-37.8,11.28-37.8,25.2S440.08,297.4,461,297.4s37.74-11.28,37.74-25.14" transform="translate(-4.18 -12.76)"/><path class="cls-8" d="M497.32,270.82c0-13.92-16.92-25.14-37.8-25.14s-37.74,11.22-37.74,25.14S438.64,296,459.52,296,497.32,284.74,497.32,270.82Z" transform="translate(-4.18 -12.76)"/><path class="cls-3" d="M497.32,270.82c0-13.92-16.92-25.14-37.8-25.14s-37.74,11.22-37.74,25.14S438.64,296,459.52,296,497.32,284.74,497.32,270.82Z" transform="translate(-4.18 -12.76)"/><path class="cls-3" d="M497.32,270.82c0-13.92-16.92-25.14-37.8-25.14s-37.74,11.22-37.74,25.14S438.64,296,459.52,296,497.32,284.74,497.32,270.82Z" transform="translate(-4.18 -12.76)"/><text class="cls-4" transform="translate(426.96 259.8)">register<tspan class="cls-7" x="26.41" y="0"> </tspan><tspan x="28.4" y="0">hospital</tspan></text><path class="cls-1" d="M216.46,347.14c0-13.92-16.92-25.2-37.74-25.2s-37.8,11.28-37.8,25.2,16.92,25.14,37.8,25.14,37.74-11.28,37.74-25.14" transform="translate(-4.18 -12.76)"/><path class="cls-8" d="M215.08,345.7c0-13.92-16.92-25.14-37.8-25.14s-37.74,11.22-37.74,25.14,16.86,25.2,37.74,25.2S215.08,359.62,215.08,345.7Z" transform="translate(-4.18 -12.76)"/><path class="cls-3" d="M215.08,345.7c0-13.92-16.92-25.14-37.8-25.14s-37.74,11.22-37.74,25.14,16.86,25.2,37.74,25.2S215.08,359.62,215.08,345.7Z" transform="translate(-4.18 -12.76)"/><path class="cls-3" d="M215.08,345.7c0-13.92-16.92-25.14-37.8-25.14s-37.74,11.22-37.74,25.14,16.86,25.2,37.74,25.2S215.08,359.62,215.08,345.7Z" transform="translate(-4.18 -12.76)"/><text class="cls-4" transform="translate(138.96 334.68)">ma<tspan class="cls-5" x="10.41" y="0">n</tspan><tspan x="14.81" y="0">a</tspan><tspan class="cls-5" x="18.82" y="0">g</tspan><tspan class="cls-6" x="23.22" y="0">e</tspan><tspan class="cls-10" x="27.23" y="0"> </tspan><tspan x="29.21" y="0">ress</tspan><tspan class="cls-5" x="44.03" y="0">ou</tspan><tspan class="cls-12" x="52.84" y="0">rces</tspan></text><line class="cls-3" x1="293.76" y1="268.92" x2="210.96" y2="312.84"/><polygon class="cls-22" points="218.88 303.48 223.2 311.4 210.96 312.84 218.88 303.48"/><polygon class="cls-3" points="218.88 303.48 223.2 311.4 210.96 312.84 218.88 303.48"/><line class="cls-3" x1="293.76" y1="379.08" x2="210.96" y2="347.4"/><polygon class="cls-22" points="223.2 347.4 220.32 355.32 210.96 347.4 223.2 347.4"/><polygon class="cls-3" points="223.2 347.4 220.32 355.32 210.96 347.4 223.2 347.4"/><line class="cls-3" x1="293.76" y1="323.64" x2="210.96" y2="330.12"/><polygon class="cls-22" points="221.76 325.08 222.48 333.72 210.96 330.12 221.76 325.08"/><polygon class="cls-3" points="221.76 325.08 222.48 333.72 210.96 330.12 221.76 325.08"/><line class="cls-3" x1="210.96" y1="505.08" x2="216" y2="505.08"/><line class="cls-3" x1="218.88" y1="505.08" x2="223.92" y2="505.08"/><line class="cls-3" x1="226.8" y1="505.08" x2="231.84" y2="505.08"/><line class="cls-3" x1="234.72" y1="505.08" x2="239.76" y2="505.08"/><line class="cls-3" x1="242.64" y1="505.08" x2="247.68" y2="505.08"/><line class="cls-3" x1="250.56" y1="505.08" x2="255.6" y2="505.08"/><line class="cls-3" x1="258.48" y1="505.08" x2="263.52" y2="505.08"/><line class="cls-3" x1="266.4" y1="505.08" x2="271.44" y2="505.08"/><line class="cls-3" x1="274.32" y1="505.08" x2="279.36" y2="505.08"/><line class="cls-3" x1="282.24" y1="505.08" x2="287.28" y2="505.08"/><line class="cls-3" x1="290.16" y1="505.08" x2="293.76" y2="505.08"/><line class="cls-3" x1="210.96" y1="505.08" x2="221.76" y2="500.76"/><line class="cls-3" x1="210.96" y1="505.08" x2="221.76" y2="509.4"/><line class="cls-3" x1="417.6" y1="302.76" x2="369.36" y2="272.52"/><polygon class="cls-22" points="381.6 274.68 376.56 282.6 369.36 272.52 381.6 274.68"/><polygon class="cls-3" points="381.6 274.68 376.56 282.6 369.36 272.52 381.6 274.68"/><line class="cls-3" x1="417.6" y1="255.24" x2="369.36" y2="251.64"/><polygon class="cls-22" points="380.88 248.04 380.88 256.68 369.36 251.64 380.88 248.04"/><polygon class="cls-3" points="380.88 248.04 380.88 256.68 369.36 251.64 380.88 248.04"/><line class="cls-3" x1="417.6" y1="211.32" x2="369.36" y2="232.2"/><polygon class="cls-22" points="378 223.56 381.6 231.48 369.36 232.2 378 223.56"/><polygon class="cls-3" points="378 223.56 381.6 231.48 369.36 232.2 378 223.56"/><line class="cls-3" x1="429.12" y1="153" x2="356.4" y2="224.28"/><polygon class="cls-22" points="361.44 213.48 367.92 219.24 356.4 224.28 361.44 213.48"/><polygon class="cls-3" points="361.44 213.48 367.92 219.24 356.4 224.28 361.44 213.48"/><line class="cls-3" x1="293.76" y1="106.2" x2="210.96" y2="81"/><polygon class="cls-22" points="223.2 80.28 221.04 88.2 210.96 81 223.2 80.28"/><polygon class="cls-3" points="223.2 80.28 221.04 88.2 210.96 81 223.2 80.28"/><line class="cls-3" x1="293.76" y1="35.64" x2="210.96" y2="59.4"/><polygon class="cls-22" points="221.04 52.2 223.2 60.12 210.96 59.4 221.04 52.2"/><polygon class="cls-3" points="221.04 52.2 223.2 60.12 210.96 59.4 221.04 52.2"/><line class="cls-3" x1="51.12" y1="325.08" x2="155.52" y2="479.88"/><line class="cls-3" x1="58.32" y1="283.32" x2="135.36" y2="268.92"/><line class="cls-3" x1="58.32" y1="268.92" x2="135.36" y2="217.08"/><line class="cls-3" x1="51.12" y1="254.52" x2="155.52" y2="95.4"/><line class="cls-3" x1="58.32" y1="298.44" x2="135.36" y2="321.48"/><rect class="cls-23" x="236.88" y="507.24" width="29.7" height="8.04"/><text class="cls-24" transform="translate(236.88 513.66)"><tspan class="cls-5">«e</tspan><tspan class="cls-25" x="8.02" y="0">x</tspan><tspan class="cls-13" x="11.57" y="0">tend</tspan><tspan x="25.61" y="0">»</tspan></text></svg>