<svg id="Ebene_1" data-name="Ebene 1" xmlns="http://www.w3.org/2000/svg" xmlns:xlink="http://www.w3.org/1999/xlink" viewBox="0 0 908.64 1090"><defs><style>.cls-1,.cls-5{fill:none;}.cls-2{clip-path:url(#clip-path);}.cls-3{fill:#dfdfdf;}.cls-4{fill:#f8e2c1;}.cls-5{stroke:#000;stroke-linecap:round;stroke-linejoin:round;stroke-width:0.72px;}.cls-6{fill:#e5f2fe;}.cls-7{fill:#fcf2e3;fill-rule:evenodd;}.cls-8{fill:#fff;}</style><clipPath id="clip-path"><rect class="cls-1" x="-24.18" y="-26.44" width="994.18" height="1405.6"/></clipPath></defs><g class="cls-2"><circle class="cls-3" cx="79.23" cy="507.42" r="13.28"/><circle class="cls-4" cx="76.77" cy="505.02" r="13.28" transform="translate(-103.17 26.94) rotate(-11.98)"/><circle class="cls-5" cx="76.77" cy="505.02" r="13.28" transform="translate(-103.17 26.94) rotate(-11.98)"/><circle class="cls-5" cx="76.82" cy="505.02" r="13.23"/><line class="cls-5" x1="76.82" y1="518.25" x2="76.82" y2="543.5"/><line class="cls-5" x1="58.79" y1="524.26" x2="76.82" y2="524.26"/><line class="cls-5" x1="94.86" y1="524.26" x2="76.82" y2="524.26"/><line class="cls-5" x1="76.82" y1="543.5" x2="91.25" y2="568.75"/><line class="cls-5" x1="76.82" y1="543.5" x2="62.39" y2="568.75"/></g><path d="M52.45,575.72c0-.6,0-1.09-.05-1.57h.93l.05.93h0A2,2,0,0,1,55.24,574a1.74,1.74,0,0,1,1.65,1.17h0a2.46,2.46,0,0,1,.65-.76,2,2,0,0,1,1.29-.41c.77,0,1.91.51,1.91,2.53V580h-1v-3.3c0-1.12-.41-1.79-1.27-1.79a1.38,1.38,0,0,0-1.25,1,1.74,1.74,0,0,0-.08.53V580h-1v-3.49c0-.93-.4-1.6-1.21-1.6a1.6,1.6,0,0,0-1.4,1.58V580h-1Z"/><path d="M65.59,580l-.08-.74h0a2.16,2.16,0,0,1-1.78.87,1.66,1.66,0,0,1-1.78-1.67c0-1.41,1.25-2.18,3.5-2.17v-.12a1.19,1.19,0,0,0-1.32-1.34,2.81,2.81,0,0,0-1.51.43l-.25-.7a3.67,3.67,0,0,1,1.92-.52c1.78,0,2.21,1.22,2.21,2.39v2.17a7.49,7.49,0,0,0,.1,1.4Zm-.15-3c-1.16,0-2.47.18-2.47,1.31a.94.94,0,0,0,1,1,1.45,1.45,0,0,0,1.41-1,1.2,1.2,0,0,0,.06-.33Z"/><path d="M68.09,575.72c0-.6,0-1.09,0-1.57H69l.06,1h0A2.15,2.15,0,0,1,71,574c.81,0,2.06.49,2.06,2.48V580H72v-3.36c0-.94-.35-1.72-1.35-1.72A1.53,1.53,0,0,0,69.22,576a1.89,1.89,0,0,0-.07.5V580H68.09Z"/><path d="M78.1,580l-.09-.74h0a2.17,2.17,0,0,1-1.78.87,1.66,1.66,0,0,1-1.78-1.67c0-1.41,1.25-2.18,3.5-2.17v-.12a1.19,1.19,0,0,0-1.32-1.34,2.85,2.85,0,0,0-1.52.43l-.24-.7a3.64,3.64,0,0,1,1.91-.52c1.78,0,2.21,1.22,2.21,2.39v2.17a8.44,8.44,0,0,0,.1,1.4Zm-.16-3c-1.15,0-2.46.18-2.46,1.31a.94.94,0,0,0,1,1,1.44,1.44,0,0,0,1.4-1,.92.92,0,0,0,.06-.33Z"/><path d="M85.61,574.15c0,.42,0,.89,0,1.6v3.38a3.35,3.35,0,0,1-.83,2.65,3.11,3.11,0,0,1-2.12.7,3.79,3.79,0,0,1-1.94-.48l.27-.81a3.26,3.26,0,0,0,1.71.46c1.08,0,1.87-.57,1.87-2V579h0a2.08,2.08,0,0,1-1.85,1,2.59,2.59,0,0,1-2.48-2.83A2.8,2.8,0,0,1,82.8,574a1.94,1.94,0,0,1,1.82,1h0l0-.88Zm-1.09,2.29a1.47,1.47,0,0,0-.06-.48A1.53,1.53,0,0,0,83,574.84c-1,0-1.73.86-1.73,2.2,0,1.15.58,2.1,1.72,2.1a1.55,1.55,0,0,0,1.47-1.09,1.77,1.77,0,0,0,.08-.56Z"/><path d="M88,577.25a1.86,1.86,0,0,0,2,2,3.85,3.85,0,0,0,1.62-.3l.18.76a4.9,4.9,0,0,1-1.94.36A2.7,2.7,0,0,1,87,577.15c0-1.75,1-3.14,2.73-3.14a2.47,2.47,0,0,1,2.4,2.75,4.88,4.88,0,0,1,0,.49Zm3.1-.76a1.51,1.51,0,0,0-1.47-1.72A1.75,1.75,0,0,0,88,576.49Z"/><path d="M93.38,576c0-.68,0-1.27,0-1.81h.93l0,1.14h0A1.77,1.77,0,0,1,96,574a1.37,1.37,0,0,1,.31,0v1a1.9,1.9,0,0,0-.37,0,1.48,1.48,0,0,0-1.41,1.36,2.46,2.46,0,0,0,0,.49V580H93.38Z"/><g class="cls-2"><ellipse class="cls-3" cx="669" cy="256.12" rx="63.18" ry="42.13"/><ellipse class="cls-6" cx="666.55" cy="253.72" rx="63.18" ry="42.13"/><ellipse class="cls-5" cx="666.55" cy="253.72" rx="63.18" ry="42.13"/><ellipse class="cls-5" cx="666.6" cy="253.72" rx="63.13" ry="42.08"/></g><path d="M623.59,252.52c0-.68,0-1.27-.05-1.81h.92l0,1.14h0a1.75,1.75,0,0,1,1.61-1.28,1,1,0,0,1,.3,0v1a1.32,1.32,0,0,0-.36,0,1.49,1.49,0,0,0-1.42,1.36,3.37,3.37,0,0,0,0,.49v3.1h-1Z"/><path d="M628,253.81a1.86,1.86,0,0,0,2,2,3.83,3.83,0,0,0,1.61-.3l.18.75a4.69,4.69,0,0,1-1.94.37,2.7,2.7,0,0,1-2.86-2.94c0-1.75,1-3.14,2.73-3.14a2.46,2.46,0,0,1,2.4,2.74,4.92,4.92,0,0,1,0,.5Zm3.1-.76a1.51,1.51,0,0,0-1.47-1.72,1.76,1.76,0,0,0-1.62,1.72Z"/><path d="M636.58,256.52l-.08-.73h0a2.16,2.16,0,0,1-1.78.87,1.65,1.65,0,0,1-1.77-1.67c0-1.41,1.25-2.18,3.49-2.17v-.12a1.2,1.2,0,0,0-1.32-1.35,2.84,2.84,0,0,0-1.51.44l-.24-.7a3.61,3.61,0,0,1,1.91-.52c1.78,0,2.21,1.22,2.21,2.38v2.18a7.31,7.31,0,0,0,.1,1.39Zm-.15-3c-1.16,0-2.47.18-2.47,1.31a.94.94,0,0,0,1,1,1.46,1.46,0,0,0,1.41-1,1.35,1.35,0,0,0,.06-.34Z"/><path d="M644.11,248v7c0,.52,0,1.11,0,1.5h-.95l-.05-1h0a2.17,2.17,0,0,1-2,1.15c-1.4,0-2.48-1.19-2.48-3,0-1.94,1.19-3.13,2.6-3.13a2,2,0,0,1,1.76.89h0V248Zm-1.06,5.08a2.18,2.18,0,0,0,0-.44,1.57,1.57,0,0,0-1.53-1.23c-1.1,0-1.74,1-1.74,2.25s.57,2.15,1.71,2.15a1.61,1.61,0,0,0,1.56-1.26,2.19,2.19,0,0,0,0-.46Z"/><path d="M648.63,256.52v-5h-.81v-.8h.81v-.28a2.71,2.71,0,0,1,.68-2,2,2,0,0,1,1.42-.54,2.59,2.59,0,0,1,.9.16l-.15.82a1.58,1.58,0,0,0-.67-.13c-.9,0-1.13.79-1.13,1.68v.32h1.41v.8h-1.41v5Z"/><path d="M652.11,252.52c0-.68,0-1.27-.05-1.81H653l0,1.14h.05a1.75,1.75,0,0,1,1.61-1.28.91.91,0,0,1,.3,0v1a1.28,1.28,0,0,0-.36,0,1.5,1.5,0,0,0-1.42,1.36,3.37,3.37,0,0,0-.05.49v3.1h-1Z"/><path d="M661.2,253.57a2.85,2.85,0,0,1-2.9,3.09,2.77,2.77,0,0,1-2.79-3,2.85,2.85,0,0,1,2.89-3.09A2.76,2.76,0,0,1,661.2,253.57Zm-4.62.06c0,1.27.73,2.23,1.77,2.23s1.77-1,1.77-2.26c0-1-.5-2.23-1.75-2.23S656.58,252.52,656.58,253.63Z"/><path d="M662.64,252.28c0-.6,0-1.09,0-1.57h.93l.05.93h0a2,2,0,0,1,1.83-1.07,1.72,1.72,0,0,1,1.65,1.17h0a2.35,2.35,0,0,1,.65-.76,2,2,0,0,1,1.29-.41c.77,0,1.91.51,1.91,2.53v3.42h-1v-3.29c0-1.12-.41-1.79-1.27-1.79a1.36,1.36,0,0,0-1.25,1,1.69,1.69,0,0,0-.08.53v3.59h-1V253c0-.93-.41-1.6-1.22-1.6a1.45,1.45,0,0,0-1.31,1.06,1.4,1.4,0,0,0-.08.51v3.51h-1Z"/><path d="M676.53,249v1.68H678v.8h-1.51v3.14c0,.72.2,1.13.79,1.13a2.78,2.78,0,0,0,.62-.07l0,.79a2.59,2.59,0,0,1-.93.15,1.48,1.48,0,0,1-1.15-.45,2.15,2.15,0,0,1-.4-1.51v-3.18h-.91v-.8h.91v-1.4Z"/><path d="M684.5,253.57a2.85,2.85,0,0,1-2.9,3.09,2.77,2.77,0,0,1-2.79-3,2.85,2.85,0,0,1,2.89-3.09A2.76,2.76,0,0,1,684.5,253.57Zm-4.62.06c0,1.27.74,2.23,1.77,2.23s1.77-1,1.77-2.26c0-1-.49-2.23-1.74-2.23S679.88,252.52,679.88,253.63Z"/><path d="M685.84,252.6c0-.74,0-1.34-.05-1.89h1l0,1h0a2.29,2.29,0,0,1,2.07-1.13c1.4,0,2.46,1.19,2.46,3,0,2.09-1.27,3.13-2.64,3.13a2,2,0,0,1-1.79-.92h0v3.17h-1Zm1,1.56a2.82,2.82,0,0,0,0,.43,1.64,1.64,0,0,0,1.59,1.24c1.12,0,1.76-.92,1.76-2.25,0-1.17-.61-2.17-1.73-2.17a1.7,1.7,0,0,0-1.6,1.32,1.93,1.93,0,0,0-.07.43Z"/><path d="M694,249.07a.62.62,0,0,1-.67.65.63.63,0,0,1-.64-.65.65.65,0,0,1,.67-.66A.62.62,0,0,1,694,249.07Zm-1.17,7.45v-5.81h1.05v5.81Z"/><path d="M699.75,256.31a4,4,0,0,1-1.67.34,2.77,2.77,0,0,1-2.9-3,3,3,0,0,1,3.12-3.1,3.43,3.43,0,0,1,1.47.31l-.24.81a2.51,2.51,0,0,0-1.23-.27,2.19,2.19,0,0,0,0,4.37,2.9,2.9,0,0,0,1.3-.29Z"/><g class="cls-2"><ellipse class="cls-3" cx="321.51" cy="179.17" rx="63.18" ry="42.13"/><ellipse class="cls-6" cx="319.06" cy="176.77" rx="63.18" ry="42.13"/><ellipse class="cls-5" cx="319.06" cy="176.77" rx="63.18" ry="42.13"/><ellipse class="cls-5" cx="319.11" cy="176.77" rx="63.13" ry="42.08"/></g><path d="M269.42,172.14a3.78,3.78,0,0,1-1.67.34,2.76,2.76,0,0,1-2.9-3,3,3,0,0,1,3.13-3.09,3.49,3.49,0,0,1,1.47.3l-.24.82a2.42,2.42,0,0,0-1.23-.28,2.2,2.2,0,0,0,0,4.38,3,3,0,0,0,1.3-.29Z"/><path d="M275.85,169.4a2.84,2.84,0,0,1-2.89,3.09,2.76,2.76,0,0,1-2.79-3,2.84,2.84,0,0,1,2.88-3.09A2.75,2.75,0,0,1,275.85,169.4Zm-4.61.06c0,1.27.73,2.24,1.76,2.24s1.77-.95,1.77-2.26c0-1-.49-2.24-1.74-2.24S271.24,168.35,271.24,169.46Z"/><path d="M277.3,168.11c0-.6,0-1.09-.05-1.57h.93l0,.94h0a2,2,0,0,1,1.83-1.07,1.71,1.71,0,0,1,1.64,1.16h0a2.58,2.58,0,0,1,.65-.76,2,2,0,0,1,1.28-.4c.77,0,1.92.5,1.92,2.52v3.43h-1v-3.3c0-1.11-.41-1.79-1.26-1.79a1.38,1.38,0,0,0-1.25,1,1.73,1.73,0,0,0-.09.53v3.6h-1v-3.49c0-.92-.41-1.6-1.21-1.6a1.44,1.44,0,0,0-1.31,1.06,1.5,1.5,0,0,0-.09.52v3.51h-1Z"/><path d="M287.22,168.11c0-.6,0-1.09-.05-1.57h.93l0,.94h0a2,2,0,0,1,1.83-1.07,1.71,1.71,0,0,1,1.64,1.16h0a2.58,2.58,0,0,1,.65-.76,2,2,0,0,1,1.28-.4c.77,0,1.92.5,1.92,2.52v3.43h-1v-3.3c0-1.11-.41-1.79-1.26-1.79a1.38,1.38,0,0,0-1.25,1,1.73,1.73,0,0,0-.09.53v3.6h-1v-3.49c0-.92-.41-1.6-1.21-1.6a1.44,1.44,0,0,0-1.31,1.06,1.5,1.5,0,0,0-.09.52v3.51h-1Z"/><path d="M302,170.77c0,.6,0,1.13.05,1.59h-.94l-.06-1h0a2.18,2.18,0,0,1-1.92,1.08c-.91,0-2-.5-2-2.55v-3.4h1.06v3.22c0,1.11.34,1.85,1.3,1.85a1.52,1.52,0,0,0,1.39-1,1.57,1.57,0,0,0,.1-.54v-3.57H302Z"/><path d="M303.87,168.11c0-.6,0-1.09-.05-1.57h.94l.06,1h0a2.16,2.16,0,0,1,1.93-1.09c.8,0,2.06.48,2.06,2.47v3.48h-1.06V169c0-.93-.35-1.72-1.35-1.72a1.51,1.51,0,0,0-1.42,1.09,1.45,1.45,0,0,0-.07.49v3.5h-1.06Z"/><path d="M311.83,164.9a.62.62,0,0,1-.67.65.63.63,0,0,1-.64-.65.65.65,0,0,1,.66-.66A.63.63,0,0,1,311.83,164.9Zm-1.18,7.46v-5.82h1.06v5.82Z"/><path d="M317.62,172.14a3.87,3.87,0,0,1-1.68.34,2.76,2.76,0,0,1-2.89-3,3,3,0,0,1,3.12-3.09,3.45,3.45,0,0,1,1.47.3l-.24.82a2.39,2.39,0,0,0-1.23-.28,2.2,2.2,0,0,0,0,4.38,3,3,0,0,0,1.29-.29Z"/><path d="M322,172.36l-.08-.74h0a2.16,2.16,0,0,1-1.78.87,1.66,1.66,0,0,1-1.78-1.67c0-1.41,1.25-2.18,3.5-2.17v-.12a1.19,1.19,0,0,0-1.32-1.34,2.9,2.9,0,0,0-1.51.43l-.24-.7a3.61,3.61,0,0,1,1.91-.51c1.78,0,2.21,1.21,2.21,2.38V171a7.49,7.49,0,0,0,.1,1.4Zm-.15-3c-1.16,0-2.47.18-2.47,1.31a.94.94,0,0,0,1,1,1.45,1.45,0,0,0,1.41-1,1.2,1.2,0,0,0,.06-.33Z"/><path d="M325.78,164.87v1.67h1.51v.8h-1.51v3.14c0,.72.2,1.13.79,1.13a2.29,2.29,0,0,0,.62-.07l0,.79a2.39,2.39,0,0,1-.93.15,1.48,1.48,0,0,1-1.15-.45,2.15,2.15,0,0,1-.4-1.51v-3.18h-.91v-.8h.91v-1.4Z"/><path d="M329.15,169.64a1.86,1.86,0,0,0,2,2,3.76,3.76,0,0,0,1.61-.3l.18.76a4.67,4.67,0,0,1-1.93.36,2.7,2.7,0,0,1-2.86-2.94c0-1.75,1-3.13,2.73-3.13a2.46,2.46,0,0,1,2.4,2.74,2.81,2.81,0,0,1,0,.49Zm3.1-.76a1.51,1.51,0,0,0-1.47-1.72,1.75,1.75,0,0,0-1.62,1.72Z"/><path d="M337.48,166.54l.77,3c.17.65.32,1.25.43,1.85h0c.13-.59.32-1.22.51-1.84l.95-3h.89l.91,2.91c.21.7.38,1.31.51,1.9h0a19.29,19.29,0,0,1,.44-1.89l.83-2.92h1.05L343,172.36h-1l-.89-2.78c-.2-.65-.37-1.23-.51-1.91h0a14.91,14.91,0,0,1-.53,1.92l-.94,2.77h-1l-1.75-5.82Z"/><path d="M347.59,164.9a.66.66,0,0,1-1.31,0,.65.65,0,0,1,.66-.66A.63.63,0,0,1,347.59,164.9Zm-1.18,7.46v-5.82h1.06v5.82Z"/><path d="M350.5,164.87v1.67H352v.8H350.5v3.14c0,.72.21,1.13.79,1.13a2.24,2.24,0,0,0,.62-.07l0,.79a2.48,2.48,0,0,1-.94.15,1.46,1.46,0,0,1-1.14-.45,2.15,2.15,0,0,1-.41-1.51v-3.18h-.9v-.8h.9v-1.4Z"/><path d="M353.28,163.82h1.06v3.63h0a1.93,1.93,0,0,1,.76-.74,2.16,2.16,0,0,1,1.08-.3c.78,0,2,.48,2,2.49v3.46h-1.06V169c0-.94-.34-1.74-1.34-1.74a1.51,1.51,0,0,0-1.42,1.06,1.31,1.31,0,0,0-.07.51v3.51h-1.06Z"/><path d="M301.3,188c0-.4.05-1,.05-1.51v-7h1v3.66h0a2.15,2.15,0,0,1,2-1.07c1.44,0,2.47,1.2,2.45,3,0,2.08-1.31,3.11-2.61,3.11A2.06,2.06,0,0,1,302.3,187h0l-.05,1Zm1.09-2.33a2.32,2.32,0,0,0,.05.38,1.65,1.65,0,0,0,1.59,1.24c1.1,0,1.76-.9,1.76-2.24,0-1.16-.6-2.16-1.73-2.16a1.69,1.69,0,0,0-1.61,1.3,2.34,2.34,0,0,0-.06.43Z"/><path d="M308.3,184c0-.68,0-1.27-.05-1.81h.92l0,1.14h.05a1.74,1.74,0,0,1,1.61-1.27,1.39,1.39,0,0,1,.3,0v1a1.88,1.88,0,0,0-.36,0,1.49,1.49,0,0,0-1.42,1.36,3.68,3.68,0,0,0-.05.5V188h-1Z"/><path d="M317.39,185a2.85,2.85,0,0,1-2.9,3.09,2.76,2.76,0,0,1-2.79-3,2.84,2.84,0,0,1,2.88-3.09A2.75,2.75,0,0,1,317.39,185Zm-4.62.06c0,1.27.73,2.24,1.77,2.24s1.76-1,1.76-2.26c0-1-.49-2.24-1.74-2.24S312.77,184,312.77,185.09Z"/><path d="M319.88,184.84h0a7.91,7.91,0,0,1,.52-.66l1.7-2h1.28l-2.25,2.39,2.56,3.43h-1.29l-2-2.79-.54.6V188h-1.05v-8.54h1.05Z"/><path d="M325,185.27a1.86,1.86,0,0,0,2,2,3.76,3.76,0,0,0,1.61-.3l.18.76a4.67,4.67,0,0,1-1.93.36,2.7,2.7,0,0,1-2.86-2.94c0-1.75,1-3.13,2.73-3.13a2.46,2.46,0,0,1,2.4,2.74,2.81,2.81,0,0,1,0,.49Zm3.1-.76a1.51,1.51,0,0,0-1.47-1.72,1.75,1.75,0,0,0-1.62,1.72Z"/><path d="M330.35,184c0-.68,0-1.27-.05-1.81h.93l0,1.14h.05a1.75,1.75,0,0,1,1.61-1.27,1.32,1.32,0,0,1,.3,0v1a1.79,1.79,0,0,0-.36,0,1.5,1.5,0,0,0-1.42,1.36,3.68,3.68,0,0,0-.05.5V188h-1Z"/><g class="cls-2"><ellipse class="cls-3" cx="321.51" cy="438.89" rx="63.18" ry="42.13"/><ellipse class="cls-6" cx="319.06" cy="436.48" rx="63.18" ry="42.13"/><ellipse class="cls-5" cx="319.06" cy="436.48" rx="63.18" ry="42.13"/><ellipse class="cls-5" cx="319.11" cy="436.48" rx="63.13" ry="42.08"/></g><path d="M271.83,439.07a4,4,0,0,1-1.67.34,2.76,2.76,0,0,1-2.9-3,3,3,0,0,1,3.12-3.09,3.45,3.45,0,0,1,1.47.3l-.24.82a2.39,2.39,0,0,0-1.23-.28,2.2,2.2,0,0,0,0,4.38,3,3,0,0,0,1.3-.29Z"/><path d="M276.22,439.29l-.09-.74h0a2.17,2.17,0,0,1-1.78.87,1.66,1.66,0,0,1-1.78-1.67c0-1.41,1.25-2.18,3.5-2.17v-.12a1.2,1.2,0,0,0-1.33-1.34,2.93,2.93,0,0,0-1.51.43l-.24-.7a3.64,3.64,0,0,1,1.91-.52c1.78,0,2.21,1.22,2.21,2.39v2.17a8.44,8.44,0,0,0,.1,1.4Zm-.16-3c-1.15,0-2.47.18-2.47,1.31a.94.94,0,0,0,1,1,1.45,1.45,0,0,0,1.41-1,.92.92,0,0,0,.06-.33Z"/><path d="M278.72,430.75h1v8.54h-1Z"/><path d="M285.7,439.07a3.93,3.93,0,0,1-1.67.34,2.77,2.77,0,0,1-2.9-3,3,3,0,0,1,3.13-3.09,3.49,3.49,0,0,1,1.47.3l-.24.82a2.42,2.42,0,0,0-1.23-.28,2.2,2.2,0,0,0,0,4.38,3,3,0,0,0,1.3-.29Z"/><path d="M291.81,437.7c0,.6,0,1.13.05,1.59h-.94l-.06-1h0a2.19,2.19,0,0,1-1.93,1.08c-.91,0-2-.51-2-2.55v-3.4h1v3.22c0,1.11.34,1.85,1.3,1.85a1.54,1.54,0,0,0,1.4-1,1.57,1.57,0,0,0,.09-.54v-3.57h1.06Z"/><path d="M293.67,430.75h1.06v8.54h-1.06Z"/><path d="M299.74,439.29l-.09-.74h0a2.14,2.14,0,0,1-1.78.87,1.65,1.65,0,0,1-1.77-1.67c0-1.41,1.25-2.18,3.49-2.17v-.12a1.19,1.19,0,0,0-1.32-1.34,2.93,2.93,0,0,0-1.51.43l-.24-.7a3.61,3.61,0,0,1,1.91-.52c1.78,0,2.21,1.22,2.21,2.39v2.17a8.44,8.44,0,0,0,.1,1.4Zm-.16-3c-1.16,0-2.47.18-2.47,1.31a.94.94,0,0,0,1,1,1.45,1.45,0,0,0,1.41-1,1.2,1.2,0,0,0,.06-.33Z"/><path d="M303.51,431.8v1.67H305v.8h-1.52v3.14c0,.72.2,1.13.79,1.13a2.24,2.24,0,0,0,.62-.07l.05.79a2.48,2.48,0,0,1-.94.15,1.46,1.46,0,0,1-1.14-.45,2.1,2.1,0,0,1-.41-1.51v-3.18h-.9v-.8h.9v-1.4Z"/><path d="M306.8,436.57a1.87,1.87,0,0,0,2,2,3.76,3.76,0,0,0,1.61-.3l.18.76a4.84,4.84,0,0,1-1.93.36,2.71,2.71,0,0,1-2.87-2.94c0-1.75,1-3.14,2.73-3.14a2.48,2.48,0,0,1,2.41,2.75,2.81,2.81,0,0,1,0,.49Zm3.11-.76a1.51,1.51,0,0,0-1.47-1.72,1.75,1.75,0,0,0-1.62,1.72Z"/><path d="M319.89,430.75v7c0,.52,0,1.11.05,1.51H319l-.05-1h0a2.14,2.14,0,0,1-2,1.14c-1.41,0-2.49-1.19-2.49-3,0-1.93,1.19-3.13,2.61-3.13a2,2,0,0,1,1.75.89h0v-3.47Zm-1.06,5.09a1.68,1.68,0,0,0-.05-.45,1.55,1.55,0,0,0-1.53-1.22c-1.09,0-1.74,1-1.74,2.24s.58,2.16,1.72,2.16a1.59,1.59,0,0,0,1.55-1.27,1.64,1.64,0,0,0,.05-.45Z"/><path d="M322.82,431.83a.62.62,0,0,1-.67.65.63.63,0,0,1-.64-.65.65.65,0,0,1,.66-.66A.63.63,0,0,1,322.82,431.83Zm-1.18,7.46v-5.82h1.06v5.82Z"/><path d="M324.31,438.21a2.86,2.86,0,0,0,1.4.42c.77,0,1.13-.39,1.13-.87s-.3-.78-1.08-1.07c-1.05-.37-1.54-.95-1.54-1.65a1.79,1.79,0,0,1,2-1.71,2.87,2.87,0,0,1,1.44.37l-.27.77a2.22,2.22,0,0,0-1.19-.34c-.62,0-1,.36-1,.79s.35.7,1.1,1c1,.38,1.53.89,1.53,1.75,0,1-.79,1.75-2.18,1.75a3.33,3.33,0,0,1-1.63-.4Z"/><path d="M330.49,431.8v1.67H332v.8h-1.52v3.14c0,.72.21,1.13.8,1.13a2.21,2.21,0,0,0,.61-.07l.05.79a2.48,2.48,0,0,1-.94.15,1.46,1.46,0,0,1-1.14-.45,2.15,2.15,0,0,1-.41-1.51v-3.18h-.9v-.8h.9v-1.4Z"/><path d="M336.42,439.29l-.08-.74h0a2.16,2.16,0,0,1-1.78.87,1.66,1.66,0,0,1-1.78-1.67c0-1.41,1.25-2.18,3.5-2.17v-.12a1.19,1.19,0,0,0-1.32-1.34,3,3,0,0,0-1.52.43l-.24-.7a3.64,3.64,0,0,1,1.91-.52c1.78,0,2.22,1.22,2.22,2.39v2.17a8.52,8.52,0,0,0,.09,1.4Zm-.16-3c-1.15,0-2.46.18-2.46,1.31a.94.94,0,0,0,1,1,1.43,1.43,0,0,0,1.4-1,.92.92,0,0,0,.06-.33Z"/><path d="M338.92,435c0-.6,0-1.09-.05-1.57h.94l.06,1h0a2.14,2.14,0,0,1,1.92-1.1c.81,0,2.06.49,2.06,2.48v3.48h-1.06v-3.36c0-.94-.35-1.72-1.35-1.72a1.51,1.51,0,0,0-1.42,1.08,1.55,1.55,0,0,0-.07.5v3.5h-1.06Z"/><path d="M349.85,439.07a3.93,3.93,0,0,1-1.67.34,2.77,2.77,0,0,1-2.9-3,3,3,0,0,1,3.13-3.09,3.49,3.49,0,0,1,1.47.3l-.24.82a2.42,2.42,0,0,0-1.23-.28,2.2,2.2,0,0,0,0,4.38,3,3,0,0,0,1.3-.29Z"/><path d="M351.61,436.57a1.86,1.86,0,0,0,2,2,3.76,3.76,0,0,0,1.61-.3l.19.76a4.94,4.94,0,0,1-1.94.36,2.7,2.7,0,0,1-2.86-2.94c0-1.75,1-3.14,2.73-3.14a2.47,2.47,0,0,1,2.4,2.75,4.88,4.88,0,0,1,0,.49Zm3.1-.76a1.51,1.51,0,0,0-1.47-1.72,1.75,1.75,0,0,0-1.62,1.72Z"/><g class="cls-2"><ellipse class="cls-3" cx="321.51" cy="637.28" rx="63.18" ry="42.13"/><ellipse class="cls-6" cx="319.06" cy="634.88" rx="63.18" ry="42.13"/><ellipse class="cls-5" cx="319.06" cy="634.88" rx="63.18" ry="42.13"/><ellipse class="cls-5" cx="319.11" cy="634.88" rx="63.13" ry="42.08"/></g><path d="M286.26,630.25a4,4,0,0,1-1.68.34,2.76,2.76,0,0,1-2.89-3,3,3,0,0,1,3.12-3.09,3.45,3.45,0,0,1,1.47.3l-.24.82a2.39,2.39,0,0,0-1.23-.28,2.2,2.2,0,0,0,0,4.38,3.09,3.09,0,0,0,1.3-.29Z"/><path d="M287.42,626.46c0-.68,0-1.27-.05-1.81h.93l0,1.14h0a1.77,1.77,0,0,1,1.62-1.28,1.19,1.19,0,0,1,.29,0v1a1.71,1.71,0,0,0-.36,0,1.48,1.48,0,0,0-1.41,1.36,2.46,2.46,0,0,0,0,.49v3.11h-1.05Z"/><path d="M291.83,627.75a1.87,1.87,0,0,0,2,2,3.76,3.76,0,0,0,1.61-.3l.18.76a4.84,4.84,0,0,1-1.93.36,2.7,2.7,0,0,1-2.86-2.94c0-1.75,1-3.14,2.72-3.14a2.48,2.48,0,0,1,2.41,2.75,2.81,2.81,0,0,1,0,.49Zm3.11-.76a1.51,1.51,0,0,0-1.47-1.72,1.75,1.75,0,0,0-1.62,1.72Z"/><path d="M300.42,630.47l-.08-.74h0a2.16,2.16,0,0,1-1.78.87,1.66,1.66,0,0,1-1.78-1.67c0-1.41,1.25-2.18,3.5-2.17v-.12a1.19,1.19,0,0,0-1.32-1.34,2.87,2.87,0,0,0-1.52.43l-.24-.7a3.64,3.64,0,0,1,1.91-.52c1.78,0,2.22,1.22,2.22,2.39v2.17a8.52,8.52,0,0,0,.09,1.4Zm-.16-3c-1.15,0-2.46.18-2.46,1.31a.94.94,0,0,0,1,1,1.43,1.43,0,0,0,1.4-1,.92.92,0,0,0,.06-.33Z"/><path d="M304.2,623v1.67h1.51v.8H304.2v3.14c0,.72.2,1.13.79,1.13a2.15,2.15,0,0,0,.61-.07l0,.79a2.44,2.44,0,0,1-.94.15,1.46,1.46,0,0,1-1.14-.45,2.15,2.15,0,0,1-.41-1.51v-3.18h-.9v-.8h.9v-1.4Z"/><path d="M307.56,627.75a1.87,1.87,0,0,0,2,2,3.8,3.8,0,0,0,1.61-.3l.18.76a4.86,4.86,0,0,1-1.94.36,2.7,2.7,0,0,1-2.86-2.94c0-1.75,1-3.14,2.73-3.14a2.48,2.48,0,0,1,2.41,2.75,4.35,4.35,0,0,1,0,.49Zm3.11-.76a1.51,1.51,0,0,0-1.47-1.72,1.77,1.77,0,0,0-1.63,1.72Z"/><path d="M315.47,621.93h1.06v8.54h-1.06Z"/><path d="M319.63,623a.62.62,0,0,1-.67.65.63.63,0,0,1-.64-.65.65.65,0,0,1,.67-.66A.62.62,0,0,1,319.63,623Zm-1.17,7.46v-5.82h1.05v5.82Z"/><path d="M321.13,629.38a2.69,2.69,0,0,0,1.39.43c.77,0,1.13-.39,1.13-.87s-.3-.78-1.08-1.07c-1.05-.37-1.54-1-1.54-1.65a1.8,1.8,0,0,1,2-1.71,2.83,2.83,0,0,1,1.43.37l-.27.77a2.19,2.19,0,0,0-1.19-.34c-.62,0-1,.36-1,.79s.35.7,1.11,1c1,.38,1.52.89,1.52,1.75,0,1-.79,1.75-2.17,1.75a3.34,3.34,0,0,1-1.64-.4Z"/><path d="M327.23,623v1.67h1.52v.8h-1.52v3.14c0,.72.21,1.13.8,1.13a2.21,2.21,0,0,0,.61-.07l.05.79a2.48,2.48,0,0,1-.94.15,1.46,1.46,0,0,1-1.14-.45,2.15,2.15,0,0,1-.41-1.51v-3.18h-.9v-.8h.9v-1.4Z"/><path d="M337.75,627.51a2.84,2.84,0,0,1-2.89,3.09,2.77,2.77,0,0,1-2.79-3,2.85,2.85,0,0,1,2.88-3.1A2.76,2.76,0,0,1,337.75,627.51Zm-4.61.06c0,1.27.73,2.24,1.77,2.24s1.76-.95,1.76-2.27c0-1-.49-2.23-1.74-2.23S333.14,626.46,333.14,627.57Z"/><path d="M339.31,630.47v-5h-.82v-.8h.82v-.28a2.75,2.75,0,0,1,.67-2,2,2,0,0,1,1.42-.54,2.32,2.32,0,0,1,.9.17l-.14.81a1.67,1.67,0,0,0-.68-.13c-.9,0-1.13.8-1.13,1.68v.32h1.41v.8h-1.41v5Z"/><path d="M288.12,642.1c0-.69,0-1.28-.05-1.82H289l0,1.14h.05a1.75,1.75,0,0,1,1.61-1.27,1.32,1.32,0,0,1,.3,0v1a1.86,1.86,0,0,0-.36,0,1.49,1.49,0,0,0-1.42,1.36,3.47,3.47,0,0,0,0,.49v3.1h-1.05Z"/><path d="M292.53,643.38a1.87,1.87,0,0,0,2,2,3.8,3.8,0,0,0,1.61-.3l.18.76a4.69,4.69,0,0,1-1.94.36,2.7,2.7,0,0,1-2.86-2.93c0-1.76,1-3.14,2.73-3.14a2.47,2.47,0,0,1,2.41,2.74,4,4,0,0,1,0,.49Zm3.1-.75a1.49,1.49,0,0,0-1.46-1.72,1.76,1.76,0,0,0-1.63,1.72Z"/><path d="M297.75,645a2.82,2.82,0,0,0,1.39.42c.77,0,1.14-.39,1.14-.87s-.31-.78-1.09-1.07c-1-.37-1.54-1-1.54-1.64a1.8,1.8,0,0,1,2-1.71,2.91,2.91,0,0,1,1.43.36l-.26.77a2.22,2.22,0,0,0-1.19-.34c-.63,0-1,.36-1,.8s.35.69,1.11,1c1,.39,1.53.89,1.53,1.76s-.8,1.74-2.18,1.74a3.27,3.27,0,0,1-1.63-.4Z"/><path d="M302.44,645a2.82,2.82,0,0,0,1.39.42c.77,0,1.13-.39,1.13-.87s-.3-.78-1.08-1.07c-1-.37-1.54-1-1.54-1.64a1.8,1.8,0,0,1,2-1.71,2.91,2.91,0,0,1,1.43.36l-.26.77a2.22,2.22,0,0,0-1.19-.34c-.63,0-1,.36-1,.8s.35.69,1.11,1c1,.39,1.53.89,1.53,1.76s-.8,1.74-2.18,1.74a3.34,3.34,0,0,1-1.64-.4Z"/><path d="M312.54,643.14a2.85,2.85,0,0,1-2.9,3.09,2.77,2.77,0,0,1-2.79-3,2.84,2.84,0,0,1,2.89-3.09A2.75,2.75,0,0,1,312.54,643.14Zm-4.62.06c0,1.28.74,2.24,1.77,2.24s1.77-1,1.77-2.26c0-1-.5-2.24-1.75-2.24S307.92,642.1,307.92,643.2Z"/><path d="M318.85,644.51c0,.6,0,1.13,0,1.59H318l-.06-1h0a2.19,2.19,0,0,1-1.92,1.08c-.92,0-2-.5-2-2.55v-3.4H315v3.22c0,1.11.34,1.86,1.3,1.86a1.48,1.48,0,0,0,1.49-1.51v-3.57h1.06Z"/><path d="M320.72,642.1c0-.69,0-1.28-.05-1.82h.92l0,1.14h.05a1.74,1.74,0,0,1,1.61-1.27,1.39,1.39,0,0,1,.3,0v1a1.94,1.94,0,0,0-.36,0,1.48,1.48,0,0,0-1.42,1.36,3.37,3.37,0,0,0-.05.49v3.1h-1Z"/><path d="M328.69,645.88a3.81,3.81,0,0,1-1.67.34,2.76,2.76,0,0,1-2.9-3,3,3,0,0,1,3.13-3.09,3.6,3.6,0,0,1,1.46.3l-.24.82a2.37,2.37,0,0,0-1.22-.28,2.2,2.2,0,0,0,0,4.38,3,3,0,0,0,1.3-.29Z"/><path d="M330.44,643.38a1.87,1.87,0,0,0,2,2,3.76,3.76,0,0,0,1.61-.3l.18.76a4.67,4.67,0,0,1-1.93.36,2.7,2.7,0,0,1-2.87-2.93c0-1.76,1-3.14,2.73-3.14a2.47,2.47,0,0,1,2.41,2.74,4,4,0,0,1,0,.49Zm3.11-.75a1.51,1.51,0,0,0-1.47-1.72,1.74,1.74,0,0,0-1.62,1.72Z"/><path d="M335.66,645a2.86,2.86,0,0,0,1.4.42c.77,0,1.13-.39,1.13-.87s-.3-.78-1.08-1.07c-1.05-.37-1.54-1-1.54-1.64a1.79,1.79,0,0,1,2-1.71,3,3,0,0,1,1.43.36l-.27.77a2.22,2.22,0,0,0-1.19-.34c-.62,0-1,.36-1,.8s.35.69,1.1,1c1,.39,1.53.89,1.53,1.76s-.79,1.74-2.18,1.74a3.33,3.33,0,0,1-1.63-.4Z"/><g class="cls-2"><ellipse class="cls-3" cx="669" cy="596.4" rx="63.18" ry="42.13"/><ellipse class="cls-6" cx="666.55" cy="594" rx="63.18" ry="42.13"/><ellipse class="cls-5" cx="666.55" cy="594" rx="63.18" ry="42.13"/><ellipse class="cls-5" cx="666.6" cy="594" rx="63.13" ry="42.08"/></g><path d="M620,585.34c0-.6,0-1.09-.05-1.57h.93l0,.93h0a2,2,0,0,1,1.83-1.07,1.72,1.72,0,0,1,1.64,1.17h0a2.46,2.46,0,0,1,.65-.76,2,2,0,0,1,1.28-.41c.77,0,1.92.51,1.92,2.53v3.43h-1v-3.3c0-1.12-.41-1.79-1.26-1.79a1.36,1.36,0,0,0-1.25,1,1.73,1.73,0,0,0-.09.53v3.6h-1V586.1c0-.93-.41-1.6-1.21-1.6a1.44,1.44,0,0,0-1.31,1.06,1.42,1.42,0,0,0-.09.52v3.51h-1Z"/><path d="M633.12,589.59l-.08-.74h0a2.17,2.17,0,0,1-1.78.87,1.66,1.66,0,0,1-1.78-1.67c0-1.41,1.25-2.18,3.5-2.17v-.12a1.19,1.19,0,0,0-1.32-1.34,2.87,2.87,0,0,0-1.52.43l-.24-.7a3.64,3.64,0,0,1,1.91-.52c1.78,0,2.22,1.22,2.22,2.38v2.18a8.52,8.52,0,0,0,.09,1.4Zm-.16-3c-1.15,0-2.46.18-2.46,1.31a.94.94,0,0,0,1,1,1.43,1.43,0,0,0,1.4-1,1,1,0,0,0,.06-.33Z"/><path d="M636.67,586.44h0c.14-.21.35-.46.52-.67l1.71-2h1.27l-2.25,2.39,2.56,3.43h-1.28l-2-2.79-.54.6v2.19h-1v-8.54h1Z"/><path d="M641.78,586.87a1.86,1.86,0,0,0,2,2,3.76,3.76,0,0,0,1.61-.3l.19.76a4.94,4.94,0,0,1-1.94.36,2.7,2.7,0,0,1-2.86-2.94c0-1.75,1-3.14,2.73-3.14a2.47,2.47,0,0,1,2.4,2.75,4.88,4.88,0,0,1,0,.49Zm3.1-.76a1.51,1.51,0,0,0-1.47-1.72,1.75,1.75,0,0,0-1.62,1.72Z"/><path d="M649.83,585.58c0-.68,0-1.27,0-1.81h.92l0,1.14h0a1.75,1.75,0,0,1,1.61-1.28,1.36,1.36,0,0,1,.3,0v1a1.32,1.32,0,0,0-.36,0,1.48,1.48,0,0,0-1.42,1.36,2.38,2.38,0,0,0,0,.49v3.11h-1Z"/><path d="M654.25,586.87a1.86,1.86,0,0,0,2,2,3.76,3.76,0,0,0,1.61-.3l.18.76a4.84,4.84,0,0,1-1.93.36,2.7,2.7,0,0,1-2.86-2.94c0-1.75,1-3.14,2.73-3.14a2.47,2.47,0,0,1,2.4,2.75,2.81,2.81,0,0,1,0,.49Zm3.1-.76a1.51,1.51,0,0,0-1.47-1.72,1.75,1.75,0,0,0-1.62,1.72Z"/><path d="M659.46,588.5a2.76,2.76,0,0,0,1.4.42c.77,0,1.13-.38,1.13-.86s-.3-.78-1.08-1.07c-1-.37-1.54-1-1.54-1.65a1.8,1.8,0,0,1,2-1.71,2.83,2.83,0,0,1,1.43.37l-.27.76a2.32,2.32,0,0,0-1.19-.33c-.62,0-1,.36-1,.79s.35.7,1.11,1c1,.38,1.52.89,1.52,1.75,0,1-.79,1.75-2.17,1.75a3.34,3.34,0,0,1-1.64-.4Z"/><path d="M664.15,588.5a2.76,2.76,0,0,0,1.4.42c.77,0,1.13-.38,1.13-.86s-.3-.78-1.08-1.07c-1.05-.37-1.54-1-1.54-1.65a1.8,1.8,0,0,1,2-1.71,2.83,2.83,0,0,1,1.43.37l-.27.76a2.32,2.32,0,0,0-1.19-.33c-.62,0-1,.36-1,.79s.35.7,1.1,1c1,.38,1.53.89,1.53,1.75,0,1-.79,1.75-2.17,1.75a3.34,3.34,0,0,1-1.64-.4Z"/><path d="M674.25,586.63a2.84,2.84,0,0,1-2.89,3.09,2.77,2.77,0,0,1-2.79-3,2.84,2.84,0,0,1,2.88-3.09A2.76,2.76,0,0,1,674.25,586.63Zm-4.61.06c0,1.27.73,2.23,1.77,2.23s1.76-.95,1.76-2.26c0-1-.49-2.23-1.74-2.23S669.64,585.58,669.64,586.69Z"/><path d="M680.57,588c0,.6,0,1.13,0,1.59h-.94l-.06-1h0a2.18,2.18,0,0,1-1.92,1.08c-.91,0-2-.51-2-2.55v-3.4h1.06V587c0,1.1.34,1.85,1.3,1.85a1.52,1.52,0,0,0,1.39-1,1.57,1.57,0,0,0,.1-.54v-3.57h1.06Z"/><path d="M682.32,585.58c0-.68,0-1.27,0-1.81h.92l0,1.14h0a1.75,1.75,0,0,1,1.61-1.28,1.36,1.36,0,0,1,.3,0v1a1.32,1.32,0,0,0-.36,0,1.48,1.48,0,0,0-1.42,1.36,2.38,2.38,0,0,0,0,.49v3.11h-1Z"/><path d="M690.4,589.37a3.93,3.93,0,0,1-1.67.34,2.77,2.77,0,0,1-2.9-3,3,3,0,0,1,3.13-3.09,3.49,3.49,0,0,1,1.47.3l-.24.81a2.54,2.54,0,0,0-1.23-.27,2,2,0,0,0-2.06,2.2,2,2,0,0,0,2,2.17,3,3,0,0,0,1.3-.28Z"/><path d="M692.16,586.87a1.86,1.86,0,0,0,2,2,3.85,3.85,0,0,0,1.62-.3l.18.76a4.9,4.9,0,0,1-1.94.36,2.7,2.7,0,0,1-2.86-2.94c0-1.75,1-3.14,2.73-3.14a2.47,2.47,0,0,1,2.4,2.75,4.88,4.88,0,0,1,0,.49Zm3.1-.76a1.51,1.51,0,0,0-1.47-1.72,1.75,1.75,0,0,0-1.62,1.72Z"/><path d="M649.65,605.22l-.08-.74h0a2.16,2.16,0,0,1-1.78.87,1.66,1.66,0,0,1-1.78-1.67c0-1.41,1.25-2.18,3.5-2.17v-.12a1.19,1.19,0,0,0-1.32-1.34,2.9,2.9,0,0,0-1.51.43l-.24-.7a3.61,3.61,0,0,1,1.91-.51c1.78,0,2.21,1.21,2.21,2.38v2.17a7.49,7.49,0,0,0,.1,1.4Zm-.15-3c-1.16,0-2.47.18-2.47,1.31a.94.94,0,0,0,1,1,1.45,1.45,0,0,0,1.41-1,1.2,1.2,0,0,0,.06-.33Z"/><path d="M652.56,599.4l1.15,3.27a15.54,15.54,0,0,1,.46,1.49h0c.13-.48.3-1,.49-1.49l1.13-3.27h1.11l-2.28,5.82h-1l-2.22-5.82Z"/><path d="M659,597.76a.62.62,0,0,1-.67.65.63.63,0,0,1-.64-.65.65.65,0,0,1,.67-.66A.62.62,0,0,1,659,597.76Zm-1.17,7.46V599.4h1v5.82Z"/><path d="M663.9,605.22l-.08-.74h0a2.16,2.16,0,0,1-1.78.87,1.66,1.66,0,0,1-1.78-1.67c0-1.41,1.25-2.18,3.5-2.17v-.12a1.19,1.19,0,0,0-1.32-1.34,3,3,0,0,0-1.52.43l-.24-.7a3.67,3.67,0,0,1,1.92-.51c1.78,0,2.21,1.21,2.21,2.38v2.17a7.49,7.49,0,0,0,.1,1.4Zm-.15-3c-1.16,0-2.47.18-2.47,1.31a.94.94,0,0,0,1,1,1.45,1.45,0,0,0,1.41-1,1.2,1.2,0,0,0,.06-.33Z"/><path d="M666.43,605.22c0-.4.05-1,.05-1.51v-7h1v3.66h0a2.15,2.15,0,0,1,2-1.07c1.44,0,2.46,1.2,2.45,3,0,2.08-1.31,3.11-2.61,3.11a2.06,2.06,0,0,1-1.94-1.09h0l0,1Zm1.09-2.34a2.3,2.3,0,0,0,.05.39,1.64,1.64,0,0,0,1.59,1.24c1.1,0,1.76-.9,1.76-2.24,0-1.16-.6-2.16-1.73-2.16a1.69,1.69,0,0,0-1.61,1.3,2.34,2.34,0,0,0-.06.43Z"/><path d="M673.43,596.68h1.05v8.54h-1.05Z"/><path d="M676.85,602.5a1.87,1.87,0,0,0,2,2,3.8,3.8,0,0,0,1.61-.3l.18.76a4.69,4.69,0,0,1-1.94.36,2.7,2.7,0,0,1-2.86-2.94c0-1.75,1-3.13,2.73-3.13A2.47,2.47,0,0,1,681,602a4.35,4.35,0,0,1,0,.49Zm3.11-.76a1.51,1.51,0,0,0-1.47-1.72,1.77,1.77,0,0,0-1.63,1.72Z"/><g class="cls-2"><ellipse class="cls-3" cx="669" cy="717.84" rx="63.18" ry="42.13"/><ellipse class="cls-6" cx="666.55" cy="715.44" rx="63.18" ry="42.13"/><ellipse class="cls-5" cx="666.55" cy="715.44" rx="63.18" ry="42.13"/><ellipse class="cls-5" cx="666.6" cy="715.44" rx="63.13" ry="42.08"/></g><path d="M620,706.78c0-.6,0-1.09-.05-1.57h.93l0,.94h0a2,2,0,0,1,1.83-1.07,1.71,1.71,0,0,1,1.64,1.16h0a2.58,2.58,0,0,1,.65-.76,2,2,0,0,1,1.28-.4c.77,0,1.92.5,1.92,2.52V711h-1v-3.3c0-1.12-.41-1.79-1.26-1.79a1.38,1.38,0,0,0-1.25,1,1.73,1.73,0,0,0-.09.53V711h-1v-3.49c0-.93-.41-1.6-1.21-1.6A1.44,1.44,0,0,0,621.1,707a1.5,1.5,0,0,0-.09.52V711h-1Z"/><path d="M633.12,711l-.08-.74h0a2.17,2.17,0,0,1-1.78.87,1.66,1.66,0,0,1-1.78-1.67c0-1.41,1.25-2.18,3.5-2.17v-.12a1.19,1.19,0,0,0-1.32-1.34,3,3,0,0,0-1.52.43l-.24-.7a3.63,3.63,0,0,1,1.91-.51c1.78,0,2.22,1.21,2.22,2.38v2.17a8.52,8.52,0,0,0,.09,1.4Zm-.16-3c-1.15,0-2.46.18-2.46,1.31a.94.94,0,0,0,1,1,1.43,1.43,0,0,0,1.4-1,.92.92,0,0,0,.06-.33Z"/><path d="M636.67,707.88h0a7.91,7.91,0,0,1,.52-.66l1.71-2h1.27l-2.25,2.39L640.5,711h-1.28l-2-2.79-.54.6V711h-1v-8.54h1Z"/><path d="M641.78,708.31a1.86,1.86,0,0,0,2,2,3.76,3.76,0,0,0,1.61-.3l.19.76a4.76,4.76,0,0,1-1.94.36,2.7,2.7,0,0,1-2.86-2.94c0-1.75,1-3.13,2.73-3.13a2.46,2.46,0,0,1,2.4,2.74,4.88,4.88,0,0,1,0,.49Zm3.1-.76a1.51,1.51,0,0,0-1.47-1.72,1.75,1.75,0,0,0-1.62,1.72Z"/><path d="M649.83,707c0-.68,0-1.27,0-1.81h.92l0,1.14h0a1.74,1.74,0,0,1,1.61-1.27,1.39,1.39,0,0,1,.3,0v1a1.88,1.88,0,0,0-.36,0,1.48,1.48,0,0,0-1.42,1.36,2.54,2.54,0,0,0,0,.49V711h-1Z"/><path d="M654.25,708.31a1.86,1.86,0,0,0,2,2,3.76,3.76,0,0,0,1.61-.3l.18.76a4.67,4.67,0,0,1-1.93.36,2.7,2.7,0,0,1-2.86-2.94c0-1.75,1-3.13,2.73-3.13a2.46,2.46,0,0,1,2.4,2.74,2.81,2.81,0,0,1,0,.49Zm3.1-.76a1.51,1.51,0,0,0-1.47-1.72,1.75,1.75,0,0,0-1.62,1.72Z"/><path d="M659.46,710a2.86,2.86,0,0,0,1.4.42c.77,0,1.13-.39,1.13-.87s-.3-.78-1.08-1.07c-1-.37-1.54-.95-1.54-1.65a1.79,1.79,0,0,1,2-1.7,2.83,2.83,0,0,1,1.43.36l-.27.77a2.22,2.22,0,0,0-1.19-.34c-.62,0-1,.36-1,.79s.35.7,1.11,1c1,.38,1.52.89,1.52,1.75,0,1-.79,1.75-2.17,1.75a3.34,3.34,0,0,1-1.64-.4Z"/><path d="M664.15,710a2.86,2.86,0,0,0,1.4.42c.77,0,1.13-.39,1.13-.87s-.3-.78-1.08-1.07c-1.05-.37-1.54-.95-1.54-1.65a1.79,1.79,0,0,1,2-1.7,2.83,2.83,0,0,1,1.43.36l-.27.77a2.22,2.22,0,0,0-1.19-.34c-.62,0-1,.36-1,.79s.35.7,1.1,1c1,.38,1.53.89,1.53,1.75,0,1-.79,1.75-2.17,1.75a3.34,3.34,0,0,1-1.64-.4Z"/><path d="M674.25,708.07a2.84,2.84,0,0,1-2.89,3.09,2.77,2.77,0,0,1-2.79-3,2.84,2.84,0,0,1,2.88-3.09A2.75,2.75,0,0,1,674.25,708.07Zm-4.61.06c0,1.27.73,2.24,1.77,2.24s1.76-1,1.76-2.26c0-1-.49-2.24-1.74-2.24S669.64,707,669.64,708.13Z"/><path d="M680.57,709.44c0,.6,0,1.13,0,1.59h-.94l-.06-.95h0a2.18,2.18,0,0,1-1.92,1.08c-.91,0-2-.51-2-2.55v-3.4h1.06v3.22c0,1.11.34,1.85,1.3,1.85a1.52,1.52,0,0,0,1.39-1,1.57,1.57,0,0,0,.1-.54v-3.57h1.06Z"/><path d="M682.32,707c0-.68,0-1.27,0-1.81h.92l0,1.14h0a1.74,1.74,0,0,1,1.61-1.27,1.39,1.39,0,0,1,.3,0v1a1.88,1.88,0,0,0-.36,0,1.48,1.48,0,0,0-1.42,1.36,2.54,2.54,0,0,0,0,.49V711h-1Z"/><path d="M690.4,710.81a3.78,3.78,0,0,1-1.67.34,2.77,2.77,0,0,1-2.9-3,3,3,0,0,1,3.13-3.09,3.49,3.49,0,0,1,1.47.3l-.24.82a2.42,2.42,0,0,0-1.23-.28,2,2,0,0,0-2.06,2.2,2,2,0,0,0,2,2.18,3,3,0,0,0,1.3-.29Z"/><path d="M692.16,708.31a1.86,1.86,0,0,0,2,2,3.85,3.85,0,0,0,1.62-.3l.18.76a4.72,4.72,0,0,1-1.94.36,2.7,2.7,0,0,1-2.86-2.94c0-1.75,1-3.13,2.73-3.13a2.46,2.46,0,0,1,2.4,2.74,4.88,4.88,0,0,1,0,.49Zm3.1-.76a1.51,1.51,0,0,0-1.47-1.72,1.75,1.75,0,0,0-1.62,1.72Z"/><path d="M644.09,725.07c0,.6,0,1.13,0,1.59h-.93l-.06-.95h0a2.18,2.18,0,0,1-1.92,1.08c-.92,0-2-.5-2-2.55v-3.4h1.06v3.22c0,1.11.34,1.85,1.3,1.85a1.52,1.52,0,0,0,1.39-1,1.57,1.57,0,0,0,.1-.54v-3.57h1.06Z"/><path d="M646,722.41c0-.6,0-1.09-.05-1.57h.94l.06,1h0a2.16,2.16,0,0,1,1.93-1.09c.8,0,2,.48,2,2.47v3.48h-1V723.3c0-.93-.35-1.72-1.35-1.72a1.51,1.51,0,0,0-1.42,1.09,1.45,1.45,0,0,0-.07.49v3.5H646Z"/><path d="M655.85,726.66l-.09-.74h0a2.17,2.17,0,0,1-1.78.87,1.66,1.66,0,0,1-1.78-1.67c0-1.41,1.25-2.18,3.5-2.16v-.13a1.2,1.2,0,0,0-1.33-1.34,2.93,2.93,0,0,0-1.51.43l-.24-.7a3.63,3.63,0,0,1,1.91-.51c1.78,0,2.21,1.21,2.21,2.38v2.17a8.44,8.44,0,0,0,.1,1.4Zm-.16-3c-1.15,0-2.47.18-2.47,1.31a.94.94,0,0,0,1,1,1.45,1.45,0,0,0,1.41-1,1,1,0,0,0,.06-.34Z"/><path d="M658.76,720.84l1.14,3.27c.19.53.35,1,.47,1.49h0c.14-.48.3-1,.5-1.49l1.13-3.27h1.1l-2.28,5.82h-1l-2.21-5.82Z"/><path d="M667.28,726.66l-.08-.74h0a2.16,2.16,0,0,1-1.78.87,1.66,1.66,0,0,1-1.78-1.67c0-1.41,1.25-2.18,3.5-2.16v-.13a1.19,1.19,0,0,0-1.32-1.34,3,3,0,0,0-1.52.43l-.24-.7a3.63,3.63,0,0,1,1.91-.51c1.78,0,2.22,1.21,2.22,2.38v2.17a8.52,8.52,0,0,0,.09,1.4Zm-.15-3c-1.16,0-2.47.18-2.47,1.31a.94.94,0,0,0,1,1,1.43,1.43,0,0,0,1.4-1,1,1,0,0,0,.07-.34Z"/><path d="M671,719.2a.66.66,0,0,1-1.31,0,.65.65,0,0,1,.66-.66A.63.63,0,0,1,671,719.2Zm-1.18,7.46v-5.82h1.06v5.82Z"/><path d="M672.69,726.66c0-.4,0-1,0-1.5v-7h1v3.66h0a2.17,2.17,0,0,1,2-1.07c1.45,0,2.47,1.2,2.46,3,0,2.08-1.31,3.11-2.61,3.11a2.07,2.07,0,0,1-1.95-1.09h0l0,1Zm1.1-2.33a2.33,2.33,0,0,0,0,.38,1.65,1.65,0,0,0,1.59,1.24c1.11,0,1.77-.9,1.77-2.24,0-1.16-.6-2.16-1.73-2.16a1.68,1.68,0,0,0-1.61,1.3,1.71,1.71,0,0,0-.06.43Z"/><path d="M679.58,718.12h1.06v8.54h-1.06Z"/><path d="M683,723.94a1.86,1.86,0,0,0,2,2,3.85,3.85,0,0,0,1.62-.3l.18.76a4.72,4.72,0,0,1-1.94.36,2.7,2.7,0,0,1-2.86-2.94c0-1.75,1-3.13,2.73-3.13a2.46,2.46,0,0,1,2.4,2.74,4.88,4.88,0,0,1,0,.49Zm3.1-.76a1.51,1.51,0,0,0-1.47-1.72,1.76,1.76,0,0,0-1.62,1.72Z"/><g class="cls-2"><ellipse class="cls-3" cx="669" cy="905.42" rx="63.18" ry="42.13"/><ellipse class="cls-6" cx="666.55" cy="903.01" rx="63.18" ry="42.13"/><ellipse class="cls-5" cx="666.55" cy="903.01" rx="63.18" ry="42.13"/><ellipse class="cls-5" cx="666.6" cy="903.01" rx="63.13" ry="42.08"/></g><path d="M610.21,904.73a2.76,2.76,0,0,0,1.4.43c.77,0,1.13-.39,1.13-.87s-.3-.78-1.08-1.07c-1-.37-1.54-1-1.54-1.65a1.8,1.8,0,0,1,2-1.71,2.83,2.83,0,0,1,1.43.37l-.27.77a2.22,2.22,0,0,0-1.19-.34c-.62,0-1,.36-1,.79s.35.7,1.11,1c1,.38,1.52.89,1.52,1.75,0,1-.79,1.75-2.17,1.75a3.34,3.34,0,0,1-1.64-.4Z"/><path d="M615.64,903.1a1.86,1.86,0,0,0,2,2,3.85,3.85,0,0,0,1.62-.3l.18.76a4.9,4.9,0,0,1-1.94.36,2.7,2.7,0,0,1-2.86-2.94c0-1.75,1-3.14,2.73-3.14a2.47,2.47,0,0,1,2.4,2.75,4.88,4.88,0,0,1,0,.49Zm3.1-.76a1.51,1.51,0,0,0-1.47-1.72,1.75,1.75,0,0,0-1.62,1.72Z"/><path d="M621,901.57c0-.6,0-1.09,0-1.57h.94l.06,1h0a2.16,2.16,0,0,1,1.93-1.1c.8,0,2.06.49,2.06,2.48v3.48H624.9v-3.36c0-.94-.35-1.72-1.35-1.72a1.51,1.51,0,0,0-1.42,1.08,1.55,1.55,0,0,0-.07.5v3.5H621Z"/><path d="M632.81,897.28v7c0,.52,0,1.11.05,1.51h-1l0-1h0a2.14,2.14,0,0,1-2,1.14c-1.41,0-2.49-1.19-2.49-3,0-1.94,1.19-3.13,2.61-3.13a2,2,0,0,1,1.76.89h0v-3.47Zm-1.06,5.09a1.68,1.68,0,0,0,0-.45,1.56,1.56,0,0,0-1.53-1.23c-1.09,0-1.74,1-1.74,2.25s.58,2.15,1.72,2.15a1.58,1.58,0,0,0,1.55-1.26,1.64,1.64,0,0,0,0-.45Z"/><path d="M637.85,903.1a1.86,1.86,0,0,0,2,2,3.76,3.76,0,0,0,1.61-.3l.18.76a4.84,4.84,0,0,1-1.93.36,2.7,2.7,0,0,1-2.86-2.94c0-1.75,1-3.14,2.73-3.14a2.47,2.47,0,0,1,2.4,2.75,2.81,2.81,0,0,1,0,.49Zm3.1-.76a1.51,1.51,0,0,0-1.47-1.72,1.75,1.75,0,0,0-1.62,1.72Z"/><path d="M643.21,901.81c0-.68,0-1.27-.05-1.81h.93l0,1.14h0a1.76,1.76,0,0,1,1.61-1.28,1.28,1.28,0,0,1,.3,0v1a1.79,1.79,0,0,0-.36,0,1.5,1.5,0,0,0-1.42,1.36,3.52,3.52,0,0,0,0,.49v3.11h-1Z"/><path d="M647,901.81c0-.68,0-1.27,0-1.81h.92l0,1.14h0a1.75,1.75,0,0,1,1.61-1.28,1.36,1.36,0,0,1,.3,0v1a1.88,1.88,0,0,0-.36,0,1.48,1.48,0,0,0-1.42,1.36,2.46,2.46,0,0,0,0,.49v3.11H647Z"/><path d="M656.12,902.86a2.85,2.85,0,0,1-2.9,3.09,2.76,2.76,0,0,1-2.78-3,2.85,2.85,0,0,1,2.88-3.1A2.76,2.76,0,0,1,656.12,902.86Zm-4.61.06c0,1.27.73,2.24,1.76,2.24s1.77-.95,1.77-2.27c0-1-.49-2.23-1.74-2.23S651.51,901.81,651.51,902.92Z"/><path d="M657.57,901.81c0-.68,0-1.27-.05-1.81h.92l0,1.14h0a1.75,1.75,0,0,1,1.61-1.28,1.36,1.36,0,0,1,.3,0v1a1.88,1.88,0,0,0-.36,0,1.48,1.48,0,0,0-1.42,1.36,3.52,3.52,0,0,0,0,.49v3.11h-1Z"/><path d="M664.08,901.57c0-.6,0-1.09,0-1.57H665l0,.93h0a2,2,0,0,1,1.83-1.07,1.73,1.73,0,0,1,1.65,1.17h0a2.46,2.46,0,0,1,.65-.76,2,2,0,0,1,1.29-.41c.77,0,1.91.51,1.91,2.53v3.43h-1v-3.3c0-1.12-.41-1.79-1.27-1.79a1.36,1.36,0,0,0-1.25,1,2.11,2.11,0,0,0-.08.53v3.6h-1v-3.49c0-.93-.41-1.6-1.22-1.6a1.56,1.56,0,0,0-1.39,1.58v3.51h-1Z"/><path d="M674.59,903.1a1.87,1.87,0,0,0,2,2,3.8,3.8,0,0,0,1.61-.3l.18.76a4.86,4.86,0,0,1-1.94.36,2.7,2.7,0,0,1-2.86-2.94c0-1.75,1-3.14,2.73-3.14a2.48,2.48,0,0,1,2.41,2.75,4.35,4.35,0,0,1,0,.49Zm3.11-.76a1.51,1.51,0,0,0-1.47-1.72,1.77,1.77,0,0,0-1.63,1.72Z"/><path d="M679.81,904.73a2.73,2.73,0,0,0,1.4.43c.76,0,1.13-.39,1.13-.87s-.3-.78-1.09-1.07c-1-.37-1.54-1-1.54-1.65a1.8,1.8,0,0,1,2-1.71,2.8,2.8,0,0,1,1.43.37l-.26.77a2.22,2.22,0,0,0-1.19-.34c-.63,0-1,.36-1,.79s.35.7,1.11,1c1,.38,1.53.89,1.53,1.75,0,1-.8,1.75-2.18,1.75a3.3,3.3,0,0,1-1.63-.4Z"/><path d="M684.5,904.73a2.72,2.72,0,0,0,1.39.43c.77,0,1.14-.39,1.14-.87s-.31-.78-1.09-1.07c-1-.37-1.54-1-1.54-1.65a1.8,1.8,0,0,1,2-1.71,2.8,2.8,0,0,1,1.43.37l-.26.77a2.22,2.22,0,0,0-1.19-.34c-.63,0-1,.36-1,.79s.35.7,1.11,1c1,.38,1.53.89,1.53,1.75,0,1-.8,1.75-2.18,1.75a3.27,3.27,0,0,1-1.63-.4Z"/><path d="M692.56,905.82l-.09-.74h0a2.17,2.17,0,0,1-1.78.87,1.66,1.66,0,0,1-1.78-1.67c0-1.41,1.25-2.18,3.5-2.17V902a1.2,1.2,0,0,0-1.33-1.34,2.84,2.84,0,0,0-1.51.43l-.24-.7a3.64,3.64,0,0,1,1.91-.52c1.78,0,2.21,1.22,2.21,2.39v2.17a8.44,8.44,0,0,0,.1,1.4Zm-.16-3c-1.15,0-2.47.18-2.47,1.31a.94.94,0,0,0,1,1,1.45,1.45,0,0,0,1.41-1,1,1,0,0,0,.06-.33Z"/><path d="M700.07,900c0,.42-.05.89-.05,1.6V905a3.32,3.32,0,0,1-.83,2.66,3.06,3.06,0,0,1-2.11.7,3.79,3.79,0,0,1-1.94-.48l.27-.81a3.25,3.25,0,0,0,1.7.46c1.09,0,1.88-.57,1.88-2v-.65h0a2.06,2.06,0,0,1-1.85,1,2.59,2.59,0,0,1-2.47-2.83c0-2,1.28-3.1,2.62-3.1a1.91,1.91,0,0,1,1.81,1h0l0-.88ZM699,902.29a1.8,1.8,0,0,0-.06-.48,1.54,1.54,0,0,0-1.48-1.12c-1,0-1.73.86-1.73,2.2,0,1.15.57,2.1,1.72,2.1a1.53,1.53,0,0,0,1.46-1.09,1.82,1.82,0,0,0,.09-.56Z"/><path d="M702.48,903.1a1.86,1.86,0,0,0,2,2,3.76,3.76,0,0,0,1.61-.3l.18.76a4.84,4.84,0,0,1-1.93.36,2.7,2.7,0,0,1-2.86-2.94c0-1.75,1-3.14,2.73-3.14a2.47,2.47,0,0,1,2.4,2.75,2.81,2.81,0,0,1,0,.49Zm3.1-.76a1.51,1.51,0,0,0-1.47-1.72,1.75,1.75,0,0,0-1.62,1.72Z"/><g class="cls-2"><ellipse class="cls-3" cx="321.51" cy="905.42" rx="63.18" ry="42.13"/><ellipse class="cls-6" cx="319.06" cy="903.01" rx="63.18" ry="42.13"/><ellipse class="cls-5" cx="319.06" cy="903.01" rx="63.18" ry="42.13"/><ellipse class="cls-5" cx="319.11" cy="903.01" rx="63.13" ry="42.08"/></g><path d="M284.73,890.06v7c0,.52,0,1.11,0,1.5h-.95l-.05-1h0a2.14,2.14,0,0,1-2,1.14c-1.41,0-2.49-1.19-2.49-3,0-1.94,1.19-3.13,2.61-3.13a2,2,0,0,1,1.76.89h0v-3.48Zm-1.06,5.09a1.65,1.65,0,0,0-.05-.44,1.55,1.55,0,0,0-1.53-1.23c-1.09,0-1.74,1-1.74,2.25s.58,2.15,1.72,2.15a1.59,1.59,0,0,0,1.55-1.26,1.71,1.71,0,0,0,.05-.46Z"/><path d="M287.18,895.88a1.86,1.86,0,0,0,2,2,3.83,3.83,0,0,0,1.61-.3l.18.76a4.69,4.69,0,0,1-1.94.36,2.7,2.7,0,0,1-2.86-2.93c0-1.76,1-3.14,2.73-3.14a2.46,2.46,0,0,1,2.4,2.74,4.49,4.49,0,0,1,0,.49Zm3.1-.75a1.5,1.5,0,0,0-1.46-1.72,1.76,1.76,0,0,0-1.63,1.72Z"/><path d="M293.82,891.11v1.67h1.51v.81h-1.51v3.14c0,.72.2,1.13.79,1.13a2.08,2.08,0,0,0,.61-.08l0,.8a2.69,2.69,0,0,1-.94.14,1.47,1.47,0,0,1-1.14-.44,2.18,2.18,0,0,1-.41-1.52v-3.17h-.9v-.81h.9v-1.39Z"/><path d="M297.11,895.88a1.86,1.86,0,0,0,2,2,3.8,3.8,0,0,0,1.61-.3l.18.76a4.69,4.69,0,0,1-1.94.36,2.7,2.7,0,0,1-2.86-2.93c0-1.76,1-3.14,2.73-3.14a2.47,2.47,0,0,1,2.41,2.74,4,4,0,0,1,0,.49Zm3.11-.75a1.51,1.51,0,0,0-1.47-1.72,1.74,1.74,0,0,0-1.62,1.72Z"/><path d="M306.62,898.38a3.78,3.78,0,0,1-1.67.34,2.77,2.77,0,0,1-2.9-3,3,3,0,0,1,3.13-3.09,3.61,3.61,0,0,1,1.47.3l-.24.82a2.53,2.53,0,0,0-1.23-.28,2,2,0,0,0-2.05,2.2,2,2,0,0,0,2,2.18,3,3,0,0,0,1.3-.29Z"/><path d="M309.07,891.11v1.67h1.51v.81h-1.51v3.14c0,.72.2,1.13.79,1.13a2.08,2.08,0,0,0,.61-.08l0,.8a2.69,2.69,0,0,1-.94.14,1.45,1.45,0,0,1-1.14-.44,2.18,2.18,0,0,1-.41-1.52v-3.17h-.9v-.81h.9v-1.39Z"/><path d="M314.74,892.78l.77,3c.17.65.32,1.25.43,1.85h0c.13-.59.32-1.21.52-1.84l.95-3h.88l.91,2.91c.21.7.38,1.31.51,1.9h0a17,17,0,0,1,.45-1.89l.82-2.92h1.05l-1.87,5.82h-1l-.89-2.78a19.09,19.09,0,0,1-.51-1.91h0a15.53,15.53,0,0,1-.53,1.93l-.93,2.76h-1l-1.75-5.82Z"/><path d="M323.67,894.6c0-.69,0-1.28,0-1.82h.92l0,1.14h.05a1.74,1.74,0,0,1,1.61-1.27,1,1,0,0,1,.3,0v1a1.94,1.94,0,0,0-.36,0,1.47,1.47,0,0,0-1.42,1.36,3.37,3.37,0,0,0,0,.49v3.1h-1.05Z"/><path d="M332.76,895.64a2.84,2.84,0,0,1-2.89,3.09,2.76,2.76,0,0,1-2.79-3,2.84,2.84,0,0,1,2.88-3.09A2.75,2.75,0,0,1,332.76,895.64Zm-4.61.06c0,1.28.73,2.24,1.77,2.24s1.76-1,1.76-2.26c0-1-.49-2.24-1.74-2.24S328.15,894.6,328.15,895.7Z"/><path d="M334.21,894.36c0-.6,0-1.1,0-1.58h.94l.06,1h0a2.15,2.15,0,0,1,1.93-1.09c.8,0,2.05.48,2.05,2.48v3.47H338.1v-3.35c0-.94-.35-1.72-1.34-1.72a1.5,1.5,0,0,0-1.42,1.08,1.45,1.45,0,0,0-.07.49v3.5h-1.06Z"/><path d="M346,892.78c0,.42,0,.89,0,1.6v3.38a3.39,3.39,0,0,1-.83,2.66,3.1,3.1,0,0,1-2.12.69,3.7,3.7,0,0,1-1.94-.48l.27-.8a3.25,3.25,0,0,0,1.7.46c1.09,0,1.88-.57,1.88-2v-.65h0a2.09,2.09,0,0,1-1.86,1,2.6,2.6,0,0,1-2.47-2.84,2.79,2.79,0,0,1,2.62-3.09,1.92,1.92,0,0,1,1.81,1h0l.05-.88Zm-1.09,2.3a1.44,1.44,0,0,0-.06-.48,1.52,1.52,0,0,0-1.48-1.12c-1,0-1.73.85-1.73,2.2,0,1.14.58,2.09,1.72,2.09a1.53,1.53,0,0,0,1.46-1.08,1.87,1.87,0,0,0,.09-.56Z"/><path d="M290.52,910c0-.6,0-1.1,0-1.58h.92l.05.94h0a2,2,0,0,1,1.82-1.07,1.71,1.71,0,0,1,1.65,1.17h0a2.35,2.35,0,0,1,.65-.76,2,2,0,0,1,1.29-.41c.77,0,1.91.5,1.91,2.52v3.43h-1v-3.29c0-1.12-.41-1.79-1.26-1.79a1.34,1.34,0,0,0-1.25,1,1.63,1.63,0,0,0-.09.53v3.59h-1v-3.49c0-.92-.41-1.59-1.22-1.59a1.44,1.44,0,0,0-1.31,1.05,1.49,1.49,0,0,0-.08.52v3.51h-1Z"/><path d="M301,911.51a1.86,1.86,0,0,0,2,2,3.8,3.8,0,0,0,1.61-.3l.18.76a4.69,4.69,0,0,1-1.94.36,2.7,2.7,0,0,1-2.86-2.93c0-1.76,1-3.14,2.73-3.14a2.47,2.47,0,0,1,2.41,2.74,4,4,0,0,1,0,.49Zm3.1-.75a1.49,1.49,0,0,0-1.46-1.72,1.76,1.76,0,0,0-1.63,1.72Z"/><path d="M306.25,913.15a2.83,2.83,0,0,0,1.4.42c.77,0,1.13-.38,1.13-.87s-.3-.78-1.09-1.07c-1-.37-1.53-1-1.53-1.64a1.79,1.79,0,0,1,2-1.71,2.91,2.91,0,0,1,1.43.36l-.26.77a2.31,2.31,0,0,0-1.19-.34c-.63,0-1,.36-1,.8s.34.69,1.1,1c1,.39,1.53.89,1.53,1.76s-.8,1.74-2.18,1.74A3.3,3.3,0,0,1,306,914Z"/><path d="M310.94,913.15a2.82,2.82,0,0,0,1.39.42c.77,0,1.14-.38,1.14-.87s-.3-.78-1.09-1.07c-1-.37-1.54-1-1.54-1.64a1.8,1.8,0,0,1,2-1.71,2.91,2.91,0,0,1,1.43.36l-.26.77a2.31,2.31,0,0,0-1.19-.34c-.63,0-1,.36-1,.8s.35.69,1.11,1c1,.39,1.53.89,1.53,1.76s-.8,1.74-2.18,1.74a3.27,3.27,0,0,1-1.63-.39Z"/><path d="M319,914.23l-.09-.73h0a2.16,2.16,0,0,1-1.78.86,1.66,1.66,0,0,1-1.78-1.67c0-1.4,1.25-2.17,3.5-2.16v-.12a1.21,1.21,0,0,0-1.33-1.35,2.93,2.93,0,0,0-1.51.43l-.24-.69a3.55,3.55,0,0,1,1.91-.52c1.78,0,2.21,1.21,2.21,2.38v2.18a8.4,8.4,0,0,0,.1,1.39Zm-.16-3c-1.15,0-2.46.18-2.46,1.31a.93.93,0,0,0,1,1,1.45,1.45,0,0,0,1.41-1,1,1,0,0,0,.06-.34Z"/><path d="M326.51,908.41c0,.42-.05.89-.05,1.6v3.38a3.35,3.35,0,0,1-.83,2.66,3.06,3.06,0,0,1-2.11.69,3.7,3.7,0,0,1-1.94-.48l.27-.8a3.25,3.25,0,0,0,1.7.46c1.09,0,1.88-.57,1.88-2v-.65h0a2.09,2.09,0,0,1-1.86,1,2.6,2.6,0,0,1-2.47-2.84,2.79,2.79,0,0,1,2.62-3.09,1.92,1.92,0,0,1,1.81,1h0l0-.88Zm-1.09,2.3a1.44,1.44,0,0,0-.06-.48,1.52,1.52,0,0,0-1.48-1.12c-1,0-1.73.85-1.73,2.2,0,1.14.57,2.09,1.72,2.09a1.53,1.53,0,0,0,1.46-1.08,1.88,1.88,0,0,0,.09-.57Z"/><path d="M328.92,911.51a1.86,1.86,0,0,0,2,2,3.76,3.76,0,0,0,1.61-.3l.19.76a4.76,4.76,0,0,1-1.94.36,2.7,2.7,0,0,1-2.86-2.93c0-1.76,1-3.14,2.73-3.14A2.46,2.46,0,0,1,333,911a2.63,2.63,0,0,1,0,.49Zm3.1-.75a1.51,1.51,0,0,0-1.47-1.72,1.74,1.74,0,0,0-1.62,1.72Z"/><path d="M334.13,913.15a2.86,2.86,0,0,0,1.4.42c.77,0,1.13-.38,1.13-.87s-.3-.78-1.08-1.07c-1.05-.37-1.54-1-1.54-1.64a1.8,1.8,0,0,1,2-1.71,2.94,2.94,0,0,1,1.43.36l-.27.77a2.31,2.31,0,0,0-1.19-.34c-.62,0-1,.36-1,.8s.35.69,1.11,1c1,.39,1.52.89,1.52,1.76s-.79,1.74-2.17,1.74a3.34,3.34,0,0,1-1.64-.39Z"/><g class="cls-2"><ellipse class="cls-3" cx="669" cy="102.22" rx="63.18" ry="42.13"/><ellipse class="cls-6" cx="666.55" cy="99.81" rx="63.18" ry="42.13"/><ellipse class="cls-5" cx="666.55" cy="99.81" rx="63.18" ry="42.13"/><ellipse class="cls-5" cx="666.6" cy="99.81" rx="63.13" ry="42.08"/></g><path d="M622.38,98.7c0-.75,0-1.35,0-1.9h.95l0,1h0a2.29,2.29,0,0,1,2.07-1.13c1.4,0,2.46,1.19,2.46,3,0,2.1-1.27,3.13-2.64,3.13a2.07,2.07,0,0,1-1.8-.91h0V105h-1Zm1,1.55a1.88,1.88,0,0,0,.05.43,1.62,1.62,0,0,0,1.58,1.24c1.12,0,1.77-.91,1.77-2.25,0-1.16-.61-2.16-1.73-2.16a1.69,1.69,0,0,0-1.6,1.31,2,2,0,0,0-.07.43Z"/><path d="M634.2,101c0,.6,0,1.13,0,1.59h-.94l-.06-1h0a2.19,2.19,0,0,1-1.92,1.08c-.92,0-2-.5-2-2.55V96.8h1.06V100c0,1.11.33,1.85,1.29,1.85a1.53,1.53,0,0,0,1.4-1,1.57,1.57,0,0,0,.1-.54V96.8h1.05Z"/><path d="M635.91,102.62c0-.4.05-1,.05-1.5v-7h1v3.66h0a2.17,2.17,0,0,1,2-1.07c1.45,0,2.47,1.2,2.46,3,0,2.08-1.31,3.11-2.61,3.11a2.06,2.06,0,0,1-2-1.09h0l0,1Zm1.09-2.33a2.32,2.32,0,0,0,0,.38,1.65,1.65,0,0,0,1.59,1.24c1.11,0,1.77-.9,1.77-2.24,0-1.16-.6-2.16-1.73-2.16A1.81,1.81,0,0,0,637,99.24Z"/><path d="M642.91,94.08H644v8.54h-1.06Z"/><path d="M646.92,95.16a.62.62,0,0,1-.67.65.63.63,0,0,1-.64-.65.65.65,0,0,1,.67-.66A.62.62,0,0,1,646.92,95.16Zm-1.17,7.46V96.8h1v5.82Z"/><path d="M648.56,101.54A2.82,2.82,0,0,0,650,102c.77,0,1.13-.39,1.13-.87s-.3-.78-1.08-1.07c-1-.37-1.54-1-1.54-1.65a1.8,1.8,0,0,1,2-1.7,2.81,2.81,0,0,1,1.43.36l-.26.77a2.22,2.22,0,0,0-1.19-.34c-.63,0-1,.36-1,.79s.35.7,1.11,1c1,.38,1.53.89,1.53,1.76s-.8,1.74-2.18,1.74a3.34,3.34,0,0,1-1.64-.4Z"/><path d="M653.39,94.08h1.06v3.63h0a1.91,1.91,0,0,1,.75-.74,2.22,2.22,0,0,1,1.09-.3c.78,0,2,.48,2,2.49v3.46h-1.06V99.28c0-.94-.35-1.74-1.35-1.74a1.53,1.53,0,0,0-1.42,1.06,1.31,1.31,0,0,0-.07.51v3.51h-1.06Z"/><path d="M664,95.13V96.8h1.51v.8H664v3.14c0,.72.2,1.13.79,1.13a2.15,2.15,0,0,0,.61-.07l0,.79a2.44,2.44,0,0,1-.94.15,1.46,1.46,0,0,1-1.14-.45,2.15,2.15,0,0,1-.41-1.51V97.6h-.9v-.8h.9V95.4Z"/><path d="M672,99.66a2.85,2.85,0,0,1-2.9,3.09,2.76,2.76,0,0,1-2.79-3,2.84,2.84,0,0,1,2.89-3.09A2.75,2.75,0,0,1,672,99.66Zm-4.62.06c0,1.28.73,2.24,1.77,2.24s1.77-.95,1.77-2.26c0-1-.5-2.24-1.75-2.24S667.39,98.61,667.39,99.72Z"/><path d="M677.31,95.13V96.8h1.51v.8h-1.51v3.14c0,.72.2,1.13.79,1.13a2.29,2.29,0,0,0,.62-.07l0,.79a2.39,2.39,0,0,1-.93.15,1.48,1.48,0,0,1-1.15-.45,2.15,2.15,0,0,1-.4-1.51V97.6h-.91v-.8h.91V95.4Z"/><path d="M685.28,99.66a2.85,2.85,0,0,1-2.9,3.09,2.77,2.77,0,0,1-2.79-3,2.84,2.84,0,0,1,2.89-3.09A2.75,2.75,0,0,1,685.28,99.66Zm-4.61.06c0,1.28.73,2.24,1.76,2.24s1.77-.95,1.77-2.26c0-1-.49-2.24-1.74-2.24S680.67,98.61,680.67,99.72Z"/><path d="M686.62,98.7c0-.75,0-1.35,0-1.9h.95l.05,1h0a2.29,2.29,0,0,1,2.07-1.13c1.41,0,2.46,1.19,2.46,3,0,2.1-1.27,3.13-2.64,3.13a2.05,2.05,0,0,1-1.79-.91h0V105h-1Zm1,1.55a2.68,2.68,0,0,0,.05.43,1.63,1.63,0,0,0,1.59,1.24c1.12,0,1.77-.91,1.77-2.25,0-1.16-.62-2.16-1.74-2.16a1.67,1.67,0,0,0-1.59,1.31,1.56,1.56,0,0,0-.08.43Z"/><path d="M694.74,95.16a.62.62,0,0,1-.67.65.63.63,0,0,1-.64-.65.65.65,0,0,1,.67-.66A.62.62,0,0,1,694.74,95.16Zm-1.17,7.46V96.8h1v5.82Z"/><path d="M700.53,102.4a3.81,3.81,0,0,1-1.67.34,2.76,2.76,0,0,1-2.9-3,3,3,0,0,1,3.12-3.09,3.45,3.45,0,0,1,1.47.3l-.24.82a2.39,2.39,0,0,0-1.23-.28,2.2,2.2,0,0,0,0,4.38,3,3,0,0,0,1.3-.29Z"/><g class="cls-2"><ellipse class="cls-3" cx="662.99" cy="476.16" rx="63.18" ry="42.13"/><ellipse class="cls-6" cx="660.53" cy="473.76" rx="63.18" ry="42.13"/><ellipse class="cls-5" cx="660.53" cy="473.76" rx="63.18" ry="42.13"/><ellipse class="cls-5" cx="660.58" cy="473.76" rx="63.13" ry="42.08"/></g><path d="M608,472.56c0-.69,0-1.28-.05-1.82h.92l0,1.14h0a1.74,1.74,0,0,1,1.61-1.27,1,1,0,0,1,.3,0v1a1.94,1.94,0,0,0-.36,0,1.47,1.47,0,0,0-1.42,1.36,3.37,3.37,0,0,0,0,.49v3.1h-1Z"/><path d="M612.37,473.84a1.85,1.85,0,0,0,2,2,3.76,3.76,0,0,0,1.61-.3l.19.76a4.76,4.76,0,0,1-1.94.36,2.7,2.7,0,0,1-2.86-2.93c0-1.76,1-3.14,2.73-3.14a2.46,2.46,0,0,1,2.4,2.74,4.49,4.49,0,0,1,0,.49Zm3.1-.75a1.51,1.51,0,0,0-1.47-1.72,1.74,1.74,0,0,0-1.62,1.72Z"/><path d="M622.74,470.74c0,.42,0,.89,0,1.6v3.38a3.39,3.39,0,0,1-.83,2.66,3.1,3.1,0,0,1-2.12.69,3.7,3.7,0,0,1-1.94-.48l.27-.8a3.26,3.26,0,0,0,1.71.46c1.08,0,1.87-.57,1.87-2v-.65h0a2.09,2.09,0,0,1-1.85,1,2.6,2.6,0,0,1-2.48-2.84,2.8,2.8,0,0,1,2.62-3.09,2,2,0,0,1,1.82,1h0l.05-.88Zm-1.09,2.3a1.44,1.44,0,0,0-.06-.48,1.52,1.52,0,0,0-1.48-1.12c-1,0-1.73.85-1.73,2.2,0,1.14.58,2.09,1.72,2.09a1.55,1.55,0,0,0,1.47-1.08,1.87,1.87,0,0,0,.08-.57Z"/><path d="M625.74,469.11a.66.66,0,0,1-1.31,0,.64.64,0,0,1,.66-.66A.62.62,0,0,1,625.74,469.11Zm-1.18,7.45v-5.82h1.06v5.82Z"/><path d="M627.23,475.48a2.82,2.82,0,0,0,1.39.42c.77,0,1.13-.38,1.13-.87s-.3-.78-1.08-1.07c-1-.37-1.54-.95-1.54-1.64a1.8,1.8,0,0,1,2-1.71,2.91,2.91,0,0,1,1.43.36l-.26.77a2.31,2.31,0,0,0-1.19-.34c-.63,0-1,.36-1,.8s.35.69,1.11,1c1,.39,1.53.89,1.53,1.76s-.8,1.74-2.18,1.74a3.34,3.34,0,0,1-1.64-.39Z"/><path d="M633.41,469.07v1.67h1.51v.81h-1.51v3.14c0,.72.2,1.13.79,1.13a2.22,2.22,0,0,0,.62-.08l0,.8a2.73,2.73,0,0,1-.94.14,1.44,1.44,0,0,1-1.14-.44,2.13,2.13,0,0,1-.41-1.52v-3.17h-.91v-.81h.91v-1.39Z"/><path d="M636.7,473.84a1.86,1.86,0,0,0,2,2,3.76,3.76,0,0,0,1.61-.3l.18.76a4.67,4.67,0,0,1-1.93.36,2.7,2.7,0,0,1-2.87-2.93c0-1.76,1-3.14,2.73-3.14a2.47,2.47,0,0,1,2.41,2.74,4,4,0,0,1,0,.49Zm3.11-.75a1.51,1.51,0,0,0-1.47-1.72,1.74,1.74,0,0,0-1.62,1.72Z"/><path d="M642.07,472.56c0-.69,0-1.28-.05-1.82H643l0,1.14h0a1.74,1.74,0,0,1,1.61-1.27,1,1,0,0,1,.3,0v1a1.94,1.94,0,0,0-.36,0,1.48,1.48,0,0,0-1.42,1.36,3.37,3.37,0,0,0,0,.49v3.1h-1Z"/><path d="M648.58,472.32c0-.6,0-1.1,0-1.58h.93l.07,1h0a2.14,2.14,0,0,1,1.92-1.09c.81,0,2.06.48,2.06,2.48v3.47h-1.06v-3.35c0-.94-.35-1.72-1.35-1.72a1.52,1.52,0,0,0-1.42,1.08,1.75,1.75,0,0,0-.07.49v3.5h-1.06Z"/><path d="M655.85,473.84a1.86,1.86,0,0,0,2,2,3.76,3.76,0,0,0,1.61-.3l.18.76a4.67,4.67,0,0,1-1.93.36,2.7,2.7,0,0,1-2.86-2.93c0-1.76,1-3.14,2.73-3.14a2.46,2.46,0,0,1,2.4,2.74,2.63,2.63,0,0,1,0,.49Zm3.1-.75a1.51,1.51,0,0,0-1.47-1.72,1.74,1.74,0,0,0-1.62,1.72Z"/><path d="M661.63,470.74l.77,3c.17.65.32,1.25.43,1.85h0c.13-.59.32-1.21.52-1.84l1-3h.89l.9,2.91c.21.7.38,1.31.51,1.9h0a17,17,0,0,1,.45-1.89l.83-2.92h1l-1.87,5.82h-1l-.89-2.78a19.09,19.09,0,0,1-.51-1.91h0a15.53,15.53,0,0,1-.53,1.93l-.93,2.76h-1l-1.75-5.82Z"/><path d="M673.7,473.84a1.86,1.86,0,0,0,2,2,3.8,3.8,0,0,0,1.61-.3l.18.76a4.69,4.69,0,0,1-1.94.36,2.7,2.7,0,0,1-2.86-2.93c0-1.76,1-3.14,2.73-3.14a2.47,2.47,0,0,1,2.41,2.74,4,4,0,0,1,0,.49Zm3.11-.75a1.51,1.51,0,0,0-1.47-1.72,1.76,1.76,0,0,0-1.63,1.72Z"/><path d="M679.07,472.32c0-.6,0-1.1-.05-1.58H680l.06,1h0a2.14,2.14,0,0,1,1.92-1.09c.81,0,2.06.48,2.06,2.48v3.47H683v-3.35c0-.94-.35-1.72-1.34-1.72a1.5,1.5,0,0,0-1.42,1.08,1.44,1.44,0,0,0-.08.49v3.5h-1Z"/><path d="M687.12,469.07v1.67h1.52v.81h-1.52v3.14c0,.72.21,1.13.8,1.13a2.13,2.13,0,0,0,.61-.08l.05.8a2.73,2.73,0,0,1-.94.14,1.45,1.45,0,0,1-1.14-.44,2.18,2.18,0,0,1-.41-1.52v-3.17h-.9v-.81h.9v-1.39Z"/><path d="M691,469.11a.62.62,0,0,1-.67.65.63.63,0,0,1-.64-.65.64.64,0,0,1,.67-.66A.62.62,0,0,1,691,469.11Zm-1.17,7.45v-5.82h1v5.82Z"/><path d="M693.92,469.07v1.67h1.51v.81h-1.51v3.14c0,.72.2,1.13.79,1.13a2.08,2.08,0,0,0,.61-.08l0,.8a2.69,2.69,0,0,1-.94.14,1.45,1.45,0,0,1-1.14-.44,2.18,2.18,0,0,1-.41-1.52v-3.17H692v-.81h.9v-1.39Z"/><path d="M697.08,470.74l1.27,3.44c.13.39.28.84.38,1.19h0c.11-.35.23-.79.37-1.21l1.16-3.42h1.11l-1.58,4.15c-.76,2-1.28,3-2,3.64a2.87,2.87,0,0,1-1.3.69l-.26-.89a2.65,2.65,0,0,0,.92-.52,3.22,3.22,0,0,0,.89-1.18.69.69,0,0,0,.09-.25,1.36,1.36,0,0,0-.07-.28l-2.16-5.36Z"/><g class="cls-2"><line class="cls-5" x1="100.87" y1="506.22" x2="289.65" y2="218.85"/><line class="cls-5" x1="100.87" y1="532.67" x2="255.98" y2="464.14"/><line class="cls-5" x1="100.87" y1="551.91" x2="255.98" y2="610.83"/><line class="cls-5" x1="100.87" y1="578.37" x2="289.65" y2="860.93"/><line class="cls-5" x1="603.47" y1="113.04" x2="382.23" y2="162.34"/><polygon class="cls-7" points="399.06 151.52 402.67 164.74 382.23 162.34 399.06 151.52"/><polygon class="cls-5" points="399.06 151.52 402.67 164.74 382.23 162.34 399.06 151.52"/><line class="cls-5" x1="603.47" y1="239.29" x2="382.23" y2="189.99"/><polygon class="cls-7" points="402.67 187.59 399.06 200.81 382.23 189.99 402.67 187.59"/><polygon class="cls-5" points="402.67 187.59 399.06 200.81 382.23 189.99 402.67 187.59"/><line class="cls-5" x1="382.23" y1="903.01" x2="390.65" y2="903.01"/><line class="cls-5" x1="395.46" y1="903.01" x2="403.87" y2="903.01"/><line class="cls-5" x1="408.68" y1="903.01" x2="417.1" y2="903.01"/><line class="cls-5" x1="421.91" y1="903.01" x2="430.33" y2="903.01"/><line class="cls-5" x1="435.14" y1="903.01" x2="443.55" y2="903.01"/><line class="cls-5" x1="448.36" y1="903.01" x2="456.78" y2="903.01"/><line class="cls-5" x1="461.59" y1="903.01" x2="470.01" y2="903.01"/><line class="cls-5" x1="474.82" y1="903.01" x2="483.23" y2="903.01"/><line class="cls-5" x1="488.04" y1="903.01" x2="496.46" y2="903.01"/><line class="cls-5" x1="501.27" y1="903.01" x2="509.68" y2="903.01"/><line class="cls-5" x1="514.49" y1="903.01" x2="522.91" y2="903.01"/><line class="cls-5" x1="527.72" y1="903.01" x2="536.14" y2="903.01"/><line class="cls-5" x1="540.95" y1="903.01" x2="549.36" y2="903.01"/><line class="cls-5" x1="554.17" y1="903.01" x2="562.59" y2="903.01"/><line class="cls-5" x1="567.4" y1="903.01" x2="575.82" y2="903.01"/><line class="cls-5" x1="580.63" y1="903.01" x2="589.04" y2="903.01"/><line class="cls-5" x1="593.85" y1="903.01" x2="602.27" y2="903.01"/><line class="cls-5" x1="382.23" y1="903.01" x2="400.27" y2="895.8"/><line class="cls-5" x1="382.23" y1="903.01" x2="400.27" y2="910.23"/><line class="cls-5" x1="603.47" y1="601.21" x2="382.23" y2="626.46"/><polygon class="cls-7" points="400.27 616.84 402.67 631.27 382.23 626.46 400.27 616.84"/><polygon class="cls-5" points="400.27 616.84 402.67 631.27 382.23 626.46 400.27 616.84"/><line class="cls-5" x1="603.47" y1="699.81" x2="382.23" y2="649.31"/><polygon class="cls-7" points="402.67 646.9 399.06 660.13 382.23 649.31 402.67 646.9"/><polygon class="cls-5" points="402.67 646.9 399.06 660.13 382.23 649.31 402.67 646.9"/><line class="cls-5" x1="597.46" y1="502.61" x2="382.23" y2="603.62"/><polygon class="cls-7" points="396.66 589.19 402.67 602.41 382.23 603.62 396.66 589.19"/><polygon class="cls-5" points="396.66 589.19 402.67 602.41 382.23 603.62 396.66 589.19"/></g><rect class="cls-8" x="467.6" y="906.62" width="49.3" height="13.43"/><path d="M468.78,914.41l1.61,2.21h-.86L468,914.41l1.58-2.21h.86Zm2,0,1.61,2.21h-.85l-1.59-2.21,1.59-2.21h.85Z"/><path d="M474,914.72a1.87,1.87,0,0,0,2,2,3.8,3.8,0,0,0,1.61-.3l.18.76a4.69,4.69,0,0,1-1.94.36,2.7,2.7,0,0,1-2.86-2.93c0-1.76,1-3.14,2.73-3.14a2.47,2.47,0,0,1,2.41,2.74,4.35,4.35,0,0,1,0,.49Zm3.1-.76a1.5,1.5,0,0,0-1.46-1.72A1.77,1.77,0,0,0,474,914Z"/><path d="M479.89,911.62l.83,1.25c.21.32.39.62.59,1h0c.19-.35.39-.65.58-1l.82-1.24h1.14l-2,2.81,2,3h-1.2l-.86-1.31c-.22-.34-.42-.66-.62-1h0c-.19.35-.39.66-.61,1l-.84,1.31h-1.17l2.07-3-2-2.85Z"/><path d="M486.24,910v1.67h1.51v.8h-1.51v3.14c0,.72.2,1.13.79,1.13a2.15,2.15,0,0,0,.61-.07l.05.79a2.44,2.44,0,0,1-.94.15,1.46,1.46,0,0,1-1.14-.45,2.15,2.15,0,0,1-.41-1.51v-3.18h-.9v-.8h.9v-1.4Z"/><path d="M489.53,914.72a1.86,1.86,0,0,0,2,2,3.83,3.83,0,0,0,1.61-.3l.18.76a4.69,4.69,0,0,1-1.94.36,2.7,2.7,0,0,1-2.86-2.93c0-1.76,1-3.14,2.73-3.14a2.46,2.46,0,0,1,2.4,2.74,4.88,4.88,0,0,1,0,.49Zm3.1-.76a1.5,1.5,0,0,0-1.46-1.72,1.77,1.77,0,0,0-1.63,1.72Z"/><path d="M495,913.19c0-.6,0-1.09-.05-1.57h.94l.06,1h0a2.14,2.14,0,0,1,1.92-1.09c.81,0,2.06.48,2.06,2.47v3.48h-1.06v-3.36c0-.93-.35-1.72-1.35-1.72a1.51,1.51,0,0,0-1.41,1.09,1.44,1.44,0,0,0-.08.49v3.5h-1Z"/><path d="M506.59,908.9v7c0,.51,0,1.1.05,1.5h-.95l-.05-1h0a2.16,2.16,0,0,1-2,1.14c-1.41,0-2.49-1.19-2.49-3,0-1.93,1.19-3.12,2.61-3.12a1.93,1.93,0,0,1,1.75.89h0V908.9Zm-1,5.09a2.3,2.3,0,0,0-.05-.45,1.56,1.56,0,0,0-1.53-1.22c-1.09,0-1.74,1-1.74,2.24s.57,2.16,1.72,2.16a1.6,1.6,0,0,0,1.55-1.27,2.06,2.06,0,0,0,.05-.45Z"/><path d="M507.67,912.2h.86l1.6,2.21-1.6,2.21h-.84l1.6-2.21Zm2,0h.86l1.6,2.21-1.6,2.21h-.84l1.6-2.21Z"/></svg>